SplineFontDB: 3.0
FontName: TecnauDataMatrix
FullName: TecnauDataMatrix
FamilyName: TecnauDataMatrix
Weight: Regular
Copyright: Copyright (c) 2018, Nick Heaphy, https://bitbucket.org/nickheaphy/f-tecnau-datamatrix-font
UComments: "2018-2-9: Created with FontForge (http://fontforge.org)"
Version: 002.000
DefaultBaseFilename: TecnauDataMatrix_v2
ItalicAngle: 0
UnderlinePosition: -100
UnderlineWidth: 50
Ascent: 800
Descent: 200
InvalidEm: 0
LayerCount: 2
Layer: 0 0 "Back" 1
Layer: 1 0 "Fore" 0
XUID: [1021 968 1620769337 25326]
StyleMap: 0x0000
FSType: 0
OS2Version: 0
OS2_WeightWidthSlopeOnly: 0
OS2_UseTypoMetrics: 1
CreationTime: 1518142486
ModificationTime: 1518144901
OS2TypoAscent: 0
OS2TypoAOffset: 1
OS2TypoDescent: 0
OS2TypoDOffset: 1
OS2TypoLinegap: 90
OS2WinAscent: 0
OS2WinAOffset: 1
OS2WinDescent: 0
OS2WinDOffset: 1
HheadAscent: 0
HheadAOffset: 1
HheadDescent: 0
HheadDOffset: 1
MarkAttachClasses: 1
DEI: 91125
Encoding: ISO8859-1
UnicodeInterp: none
NameList: AGL For New Fonts
DisplaySize: -48
AntiAlias: 1
FitToEm: 0
WinInfo: 0 17 9
BeginPrivate: 0
EndPrivate
BeginChars: 256 90

StartChar: zero
Encoding: 48 48 0
Width: 1000
VWidth: 0
HStem: -200 200<100 300> -200 100<300 700 900 1000> 0 100<600 700 900 1000> 200 100<800 1000> 400 100<900 1000> 500 100<500 600> 600 100<100 200 300 400 900 1000> 700 100<200 300 600 700>
VStem: 0 100<0 600 700 800> 200 100<100 300 700 800> 300 200<400 500 600 700> 400 100<0 100 700 800> 500 100<200 300> 600 100<700 800> 800 100<700 800> 900 100<400 500>
LayerCount: 2
Back
Fore
SplineSet
200 200 m 1x30c0
 200 300 l 1
 250 300 l 1
 300 300 l 1
 300 200 l 1
 300 100 l 1
 250 100 l 1
 200 100 l 1
 200 200 l 1x30c0
800 250 m 1x1082
 800 300 l 1x1082
 900 300 l 1
 1000 300 l 1
 1000 250 l 1
 1000 200 l 1
 900 200 l 1x1081
 800 200 l 1
 800 250 l 1x1082
600 750 m 1x1184
 600 800 l 1
 650 800 l 1
 700 800 l 1
 700 750 l 1
 700 700 l 1
 650 700 l 1
 600 700 l 1
 600 750 l 1x1184
0 300 m 1
 0 800 l 1
 50 800 l 1
 100 800 l 1x7989
 100 750 l 1
 100 700 l 1
 150 700 l 1
 200 700 l 1x12c9
 200 750 l 1
 200 800 l 1
 250 800 l 1
 300 800 l 1x11c9
 300 750 l 1
 300 700 l 1
 350 700 l 1
 400 700 l 1x12d0
 400 750 l 1
 400 800 l 1
 450 800 l 1
 500 800 l 1x11d0
 500 700 l 1
 500 600 l 1x15a0
 650 600 l 1
 800 600 l 1x12a2
 800 700 l 1
 800 800 l 1
 850 800 l 1
 900 800 l 1x11a2
 900 750 l 1
 900 700 l 1x12a2
 950 700 l 1
 1000 700 l 1
 1000 650 l 1
 1000 600 l 1
 950 600 l 1
 900 600 l 1
 900 550 l 1
 900 500 l 1
 950 500 l 1
 1000 500 l 1
 1000 450 l 1
 1000 400 l 1
 950 400 l 1
 900 400 l 1
 900 450 l 1
 900 500 l 1x1a81
 850 500 l 1
 800 500 l 1x1482
 800 450 l 1
 800 400 l 1
 700 400 l 1
 600 400 l 1x1886
 600 250 l 1x1888
 600 100 l 1
 800 100 l 1x3886
 1000 100 l 1
 1000 50 l 1
 1000 0 l 1
 950 0 l 1
 900 0 l 1
 900 -50 l 1
 900 -100 l 1
 950 -100 l 1
 1000 -100 l 1
 1000 -150 l 1
 1000 -200 l 1
 500 -200 l 1
 0 -200 l 1x7889
 0 300 l 1
300 650 m 1x12a0
 300 700 l 1x12c0
 250 700 l 1x11c0
 200 700 l 1
 200 650 l 1
 200 600 l 1
 150 600 l 1
 100 600 l 1
 100 300 l 1
 100 0 l 1
 200 0 l 1x92c0
 300 0 l 1x92a0
 300 -50 l 1
 300 -100 l 1x50a0
 500 -100 l 1x5088
 700 -100 l 1
 700 -50 l 1
 700 0 l 1
 650 0 l 1
 600 0 l 1
 600 50 l 1
 600 100 l 1
 550 100 l 1
 500 100 l 1
 500 50 l 1
 500 0 l 1
 450 0 l 1
 400 0 l 1
 400 100 l 1
 400 200 l 1x7094
 450 200 l 1
 500 200 l 1
 500 250 l 1
 500 300 l 1x7088
 400 300 l 1
 300 300 l 1x70d0
 300 400 l 1x78a0
 300 500 l 1x14a0
 350 500 l 1
 400 500 l 1x1490
 400 550 l 1
 400 600 l 1x1290
 350 600 l 1
 300 600 l 1
 300 650 l 1x12a0
600 450 m 1x18a4
 600 500 l 1
 550 500 l 1
 500 500 l 1x14a4
 500 450 l 1
 500 400 l 1
 550 400 l 1
 600 400 l 1
 600 450 l 1x18a4
EndSplineSet
Validated: 5
EndChar

StartChar: one
Encoding: 49 49 1
Width: 1000
VWidth: 0
HStem: -200 200<200 300 700 900> -200 100<300 700 900 1000> 0 100<600 700 900 1000> 100 100<200 300> 200 100<100 200 900 1000> 300 100<200 300 500 600> 400 100<300 400 700 800 900 1000> 500 100<800 900> 600 100<100 200 300 400 700 800 900 1000> 700 100<200 300 600 700 800 900>
VStem: 0 200<0 100 200 300 600 700> 0 100<100 200 300 600 700 800> 200 100<100 200 300 400 700 800> 300 200<400 500 600 700> 400 100<500 600 700 800> 600 100<700 800> 700 100<600 700> 800 100<100 200 500 600 700 800> 900 100<0 100 400 500 600 700>
LayerCount: 2
Back
Fore
SplineSet
0 300 m 1x4420
 0 800 l 1
 50 800 l 1
 100 800 l 1x4450
 100 750 l 1
 100 700 l 1x0090
 150 700 l 1
 200 700 l 1x00a0
 200 750 l 1
 200 800 l 1
 250 800 l 1
 300 800 l 1x0048
 300 750 l 1
 300 700 l 1
 350 700 l 1
 400 700 l 1x008a
 400 750 l 1
 400 800 l 1
 450 800 l 1
 500 800 l 1x004a
 500 600 l 1x0084
 500 400 l 1
 550 400 l 1
 600 400 l 1
 600 450 l 1
 600 500 l 1x0505
 700 500 l 1x020080
 800 500 l 1
 800 550 l 1x020040
 800 600 l 1x010080
 750 600 l 1
 700 600 l 1
 700 650 l 1x008080
 700 700 l 1x0081
 650 700 l 1
 600 700 l 1
 600 750 l 1
 600 800 l 1
 650 800 l 1
 700 800 l 1x0041
 700 750 l 1
 700 700 l 1x0081
 750 700 l 1
 800 700 l 1x008080
 800 750 l 1
 800 800 l 1
 850 800 l 1
 900 800 l 1x004040
 900 750 l 1
 900 700 l 1x008040
 950 700 l 1
 1000 700 l 1
 1000 650 l 1
 1000 600 l 1
 950 600 l 1x008020
 900 600 l 1x010040
 900 550 l 1
 900 500 l 1x020040
 950 500 l 1
 1000 500 l 1
 1000 450 l 1
 1000 400 l 1
 950 400 l 1
 900 400 l 1
 900 450 l 1x020020
 900 500 l 1x020040
 850 500 l 1x010040
 800 500 l 1
 800 450 l 1
 800 400 l 1x020040
 750 400 l 1
 700 400 l 1x020080
 700 350 l 1
 700 300 l 1x040080
 600 300 l 1
 500 300 l 1
 500 350 l 1x0403
 500 400 l 1x0404
 400 400 l 1x0202
 300 400 l 1
 300 350 l 1
 300 300 l 1
 250 300 l 1x040a
 200 300 l 1x0820
 200 250 l 1
 200 200 l 1x1020
 250 200 l 1
 300 200 l 1
 300 150 l 1
 300 100 l 1x1008
 250 100 l 1
 200 100 l 1
 200 50 l 1
 200 0 l 1
 250 0 l 1
 300 0 l 1x9024
 300 -50 l 1
 300 -100 l 1x4024
 500 -100 l 1
 700 -100 l 1x400280
 700 -50 l 1
 700 0 l 1x800280
 550 0 l 1
 400 0 l 1x200280
 400 100 l 1x100280
 400 200 l 1
 500 200 l 1
 600 200 l 1
 600 150 l 1
 600 100 l 1x2803
 650 100 l 1
 700 100 l 1x280080
 700 50 l 1
 700 0 l 1x800080
 800 0 l 1x800040
 900 0 l 1
 900 50 l 1x800020
 900 100 l 1x200040
 850 100 l 1
 800 100 l 1x100040
 800 200 l 1x080040
 800 300 l 1x040040
 900 300 l 1
 1000 300 l 1
 1000 250 l 1
 1000 200 l 1x080020
 950 200 l 1
 900 200 l 1
 900 150 l 1
 900 100 l 1x280040
 950 100 l 1
 1000 100 l 1
 1000 50 l 1
 1000 0 l 1
 950 0 l 1x280020
 900 0 l 1x800020
 900 -50 l 1
 900 -100 l 1
 950 -100 l 1
 1000 -100 l 1
 1000 -150 l 1
 1000 -200 l 1
 500 -200 l 1
 0 -200 l 1x401220
 0 300 l 1x4420
300 650 m 1x0284
 300 700 l 1x0288
 250 700 l 1x0048
 200 700 l 1
 200 650 l 1
 200 600 l 1x00a0
 150 600 l 1
 100 600 l 1
 100 450 l 1
 100 300 l 1x0890
 150 300 l 1
 200 300 l 1x08a0
 200 350 l 1
 200 400 l 1
 250 400 l 1
 300 400 l 1x0408
 300 450 l 1
 300 500 l 1x0204
 350 500 l 1
 400 500 l 1
 400 550 l 1
 400 600 l 1x0282
 350 600 l 1
 300 600 l 1
 300 650 l 1x0284
900 650 m 1x010020
 900 700 l 1x008040
 850 700 l 1x004040
 800 700 l 1x008080
 800 650 l 1
 800 600 l 1x010080
 850 600 l 1
 900 600 l 1x010040
 900 650 l 1x010020
200 150 m 1x1008
 200 200 l 1x1020
 150 200 l 1
 100 200 l 1x0810
 100 150 l 1
 100 100 l 1x1010
 150 100 l 1
 200 100 l 1x1020
 200 150 l 1x1008
EndSplineSet
Validated: 5
EndChar

StartChar: two
Encoding: 50 50 2
Width: 1000
VWidth: 0
HStem: -200 100<100 1000> 0 200<100 200 800 900> 0 100<600 700 900 1000> 100 200<200 300 700 800> 200 100<500 600 900 1000> 400 200<500 600 700 800> 400 100<900 1000> 600 100<100 200 300 400 900 1000> 700 100<200 300 600 700>
VStem: 0 200<0 100 600 700> 0 100<-100 0 200 600 700 800> 200 100<700 800> 300 100<400 500> 400 100<0 100 700 800> 500 100<500 600> 600 100<0 100 300 400 700 800> 700 200<100 200 500 600> 800 100<700 800> 900 100<200 300 400 500>
LayerCount: 2
Back
Fore
SplineSet
600 750 m 1x8081
 600 800 l 1
 650 800 l 1
 700 800 l 1
 700 750 l 1
 700 700 l 1
 650 700 l 1
 600 700 l 1
 600 750 l 1x8081
0 300 m 1x882220
 0 800 l 1
 50 800 l 1
 100 800 l 1x88a220
 100 750 l 1
 100 700 l 1x812220
 150 700 l 1
 200 700 l 1x8140
 200 750 l 1
 200 800 l 1
 250 800 l 1
 300 800 l 1x8090
 300 750 l 1
 300 700 l 1
 350 700 l 1
 400 700 l 1x8114
 400 750 l 1
 400 800 l 1
 450 800 l 1
 500 800 l 1
 500 700 l 1x8094
 500 600 l 1
 550 600 l 1
 600 600 l 1x8482
 600 550 l 1
 600 500 l 1
 650 500 l 1
 700 500 l 1x820280
 700 550 l 1
 700 600 l 1x840280
 750 600 l 1
 800 600 l 1
 800 700 l 1
 800 800 l 1
 850 800 l 1
 900 800 l 1x848040
 900 750 l 1
 900 700 l 1x810040
 950 700 l 1
 1000 700 l 1
 1000 650 l 1
 1000 600 l 1x810020
 950 600 l 1
 900 600 l 1
 900 550 l 1
 900 500 l 1x830080
 950 500 l 1
 1000 500 l 1
 1000 450 l 1
 1000 400 l 1
 950 400 l 1
 900 400 l 1
 900 450 l 1x830020
 900 500 l 1x830080
 850 500 l 1
 800 500 l 1x830040
 800 450 l 1
 800 400 l 1
 750 400 l 1
 700 400 l 1
 700 350 l 1
 700 300 l 1
 750 300 l 1
 800 300 l 1x940140
 800 250 l 1
 800 200 l 1xc00140
 850 200 l 1
 900 200 l 1xc00080
 900 250 l 1
 900 300 l 1
 950 300 l 1
 1000 300 l 1
 1000 250 l 1
 1000 200 l 1
 950 200 l 1x880020
 900 200 l 1xc00080
 900 150 l 1
 900 100 l 1xa00080
 950 100 l 1
 1000 100 l 1
 1000 50 l 1
 1000 0 l 1xa00020
 900 0 l 1xc00020
 800 0 l 1xc00040
 800 50 l 1
 800 100 l 1
 750 100 l 1x900040
 700 100 l 1
 700 50 l 1
 700 0 l 1
 650 0 l 1
 600 0 l 1
 600 50 l 1
 600 100 l 1
 650 100 l 1
 700 100 l 1xa00140
 700 150 l 1
 700 200 l 1xa80080
 600 200 l 1xa801
 500 200 l 1xa802
 500 100 l 1x9004
 500 0 l 1
 450 0 l 1
 400 0 l 1xa004
 400 50 l 1
 400 100 l 1x9004
 300 100 l 1
 200 100 l 1x9048
 200 50 l 1
 200 0 l 1xc048
 150 0 l 1
 100 0 l 1xc020
 100 -50 l 1
 100 -100 l 1
 550 -100 l 1
 1000 -100 l 1
 1000 -150 l 1
 1000 -200 l 1
 500 -200 l 1
 0 -200 l 1
 0 300 l 1x882220
300 650 m 1x8108
 300 700 l 1x8110
 250 700 l 1x8090
 200 700 l 1
 200 650 l 1
 200 600 l 1x8140
 150 600 l 1
 100 600 l 1
 100 400 l 1
 100 200 l 1
 150 200 l 1
 200 200 l 1xc330
 200 250 l 1
 200 300 l 1x9030
 250 300 l 1
 300 300 l 1
 300 400 l 1
 300 500 l 1
 350 500 l 1
 400 500 l 1
 400 450 l 1
 400 400 l 1
 450 400 l 1x9208
 500 400 l 1
 500 350 l 1
 500 300 l 1x8c0a
 550 300 l 1
 600 300 l 1
 600 350 l 1
 600 400 l 1x8c01
 550 400 l 1
 500 400 l 1x8c02
 500 500 l 1x8202
 500 600 l 1x8402
 400 600 l 1x8104
 300 600 l 1
 300 650 l 1x8108
EndSplineSet
Validated: 5
EndChar

StartChar: three
Encoding: 51 51 3
Width: 1000
VWidth: 0
HStem: -200 100<100 1000> 0 100<500 700 900 1000> 100 100<200 300> 200 100<600 700 900 1000> 300 100<200 300> 400 100<300 400 500 600 700 800 900 1000> 500 100<800 900> 600 100<100 200 300 400 700 800 900 1000> 700 100<200 300 600 700 800 900>
VStem: 0 200<200 300 600 700> 0 100<-100 100 300 600 700 800> 200 100<300 400 700 800> 300 100<400 500> 400 100<700 800> 600 100<500 600 700 800> 700 100<100 200 600 700> 800 100<500 600 700 800> 900 100<0 100 200 300 400 500 600 700>
LayerCount: 2
Back
Fore
SplineSet
900 50 m 1xc00040
 900 100 l 1
 950 100 l 1
 1000 100 l 1
 1000 50 l 1
 1000 0 l 1
 950 0 l 1
 900 0 l 1
 900 50 l 1xc00040
900 250 m 1
 900 300 l 1
 950 300 l 1
 1000 300 l 1
 1000 250 l 1
 1000 200 l 1
 950 200 l 1
 900 200 l 1x900040
 900 250 l 1
600 750 m 1x8082
 600 800 l 1
 650 800 l 1
 700 800 l 1x8082
 700 750 l 1
 700 700 l 1x8102
 750 700 l 1
 800 700 l 1x8101
 800 750 l 1
 800 800 l 1
 850 800 l 1
 900 800 l 1x808080
 900 750 l 1
 900 700 l 1x810080
 950 700 l 1
 1000 700 l 1
 1000 650 l 1
 1000 600 l 1
 950 600 l 1x810040
 900 600 l 1x820080
 900 550 l 1
 900 500 l 1x840080
 950 500 l 1
 1000 500 l 1
 1000 450 l 1
 1000 400 l 1
 950 400 l 1
 900 400 l 1
 900 450 l 1x840040
 900 500 l 1x840080
 850 500 l 1x820080
 800 500 l 1
 800 450 l 1
 800 400 l 1
 650 400 l 1
 500 400 l 1
 500 450 l 1
 500 500 l 1
 550 500 l 1
 600 500 l 1
 600 550 l 1
 600 600 l 1
 650 600 l 1
 700 600 l 1x850680
 700 650 l 1x8501
 700 700 l 1x8502
 650 700 l 1
 600 700 l 1
 600 750 l 1x8082
900 650 m 1x820040
 900 700 l 1x810080
 850 700 l 1x808080
 800 700 l 1x8101
 800 650 l 1
 800 600 l 1x8201
 750 600 l 1
 700 600 l 1
 700 550 l 1
 700 500 l 1
 750 500 l 1
 800 500 l 1
 800 550 l 1x850280
 800 600 l 1x8201
 850 600 l 1
 900 600 l 1x820080
 900 650 l 1x820040
0 300 m 1xc840
 0 800 l 1
 50 800 l 1
 100 800 l 1xc8a0
 100 750 l 1
 100 700 l 1x8120
 150 700 l 1
 200 700 l 1x8140
 200 750 l 1
 200 800 l 1
 250 800 l 1
 300 800 l 1x8090
 300 750 l 1
 300 700 l 1
 350 700 l 1
 400 700 l 1x8114
 400 750 l 1
 400 800 l 1
 450 800 l 1
 500 800 l 1
 500 700 l 1x8094
 500 600 l 1
 400 600 l 1x8114
 300 600 l 1
 300 650 l 1x8108
 300 700 l 1x8110
 250 700 l 1x8090
 200 700 l 1
 200 650 l 1
 200 600 l 1x8140
 150 600 l 1
 100 600 l 1
 100 450 l 1
 100 300 l 1x8920
 150 300 l 1
 200 300 l 1x8940
 200 350 l 1
 200 400 l 1
 250 400 l 1
 300 400 l 1x8910
 300 450 l 1
 300 500 l 1
 350 500 l 1
 400 500 l 1
 400 450 l 1
 400 400 l 1
 350 400 l 1x8408
 300 400 l 1
 300 350 l 1
 300 300 l 1
 400 300 l 1
 500 300 l 1x8814
 500 200 l 1
 500 100 l 1
 600 100 l 1xd016
 700 100 l 1
 700 150 l 1
 700 200 l 1xd001
 650 200 l 1
 600 200 l 1
 600 250 l 1
 600 300 l 1xd002
 700 300 l 1xd001
 800 300 l 1x880080
 800 150 l 1x8801
 800 0 l 1
 600 0 l 1
 400 0 l 1xc80680
 400 50 l 1
 400 100 l 1
 250 100 l 1
 100 100 l 1xa02680
 100 0 l 1
 100 -100 l 1
 550 -100 l 1
 1000 -100 l 1
 1000 -150 l 1
 1000 -200 l 1
 500 -200 l 1
 0 -200 l 1xc02640
 0 300 l 1xc840
300 250 m 1xa848
 300 300 l 1xa810
 250 300 l 1
 200 300 l 1
 200 250 l 1
 200 200 l 1
 250 200 l 1
 300 200 l 1
 300 250 l 1xa848
EndSplineSet
Validated: 5
EndChar

StartChar: four
Encoding: 52 52 4
Width: 1000
VWidth: 0
HStem: -200 100<100 200 300 800 900 1000> 0 100<100 200 400 500 900 1000> 200 100<900 1000> 300 100<200 300 400 500> 400 100<300 400 900 1000> 500 100<800 900> 600 100<100 200 300 400 900 1000> 700 100<200 300 800 900>
VStem: 0 100<-100 0 100 600 700 800> 200 100<-100 0 300 400 700 800> 300 100<100 300 400 500> 400 100<700 800> 500 100<100 200 400 500> 600 100<700 800> 700 100<400 500> 800 100<-100 0 700 800> 900 100<400 500 600 700>
LayerCount: 2
Back
Fore
SplineSet
300 450 m 1xd0a0
 300 500 l 1
 350 500 l 1
 400 500 l 1xc8a0
 400 450 l 1
 400 400 l 1xd0a0
 350 400 l 1xc8a0
 300 400 l 1
 300 350 l 1
 300 300 l 1xd0c0
 350 300 l 1
 400 300 l 1xd0a0
 400 200 l 1
 400 100 l 1
 350 100 l 1
 300 100 l 1
 300 200 l 1xe0a0
 300 300 l 1
 250 300 l 1
 200 300 l 1
 200 350 l 1
 200 400 l 1
 250 400 l 1
 300 400 l 1xd0c0
 300 450 l 1xd0a0
0 300 m 1xd08880
 0 800 l 1
 50 800 l 1
 100 800 l 1xd18880
 100 750 l 1
 100 700 l 1
 150 700 l 1
 200 700 l 1xc2c880
 200 750 l 1
 200 800 l 1
 250 800 l 1
 300 800 l 1xc1c880
 300 750 l 1
 300 700 l 1
 350 700 l 1
 400 700 l 1xc2d0
 400 750 l 1
 400 800 l 1
 450 800 l 1
 500 800 l 1
 500 700 l 1xc1d0
 500 600 l 1xc288
 550 600 l 1
 600 600 l 1xc284
 600 700 l 1
 600 800 l 1
 650 800 l 1
 700 800 l 1
 700 750 l 1
 700 700 l 1
 750 700 l 1
 800 700 l 1
 800 750 l 1
 800 800 l 1
 850 800 l 1
 900 800 l 1xc185
 900 750 l 1
 900 700 l 1xc285
 950 700 l 1
 1000 700 l 1
 1000 650 l 1
 1000 600 l 1
 950 600 l 1xc28080
 900 600 l 1xc48080
 900 550 l 1
 900 500 l 1
 950 500 l 1
 1000 500 l 1
 1000 450 l 1
 1000 400 l 1
 950 400 l 1
 900 400 l 1
 900 450 l 1
 900 500 l 1xc88080
 850 500 l 1
 800 500 l 1xc48280
 800 450 l 1
 800 400 l 1
 750 400 l 1
 700 400 l 1xc88280
 700 350 l 1
 700 300 l 1
 850 300 l 1xd08280
 1000 300 l 1
 1000 250 l 1
 1000 200 l 1
 950 200 l 1
 900 200 l 1
 900 150 l 1
 900 100 l 1
 950 100 l 1
 1000 100 l 1
 1000 50 l 1
 1000 0 l 1xe08280
 950 0 l 1
 900 0 l 1
 900 -50 l 1
 900 -100 l 1xe081
 950 -100 l 1
 1000 -100 l 1
 1000 -150 l 1
 1000 -200 l 1
 500 -200 l 1
 0 -200 l 1
 0 300 l 1xd08880
300 650 m 1xcaa0
 300 700 l 1xcac0
 250 700 l 1xc1c0
 200 700 l 1
 200 650 l 1
 200 600 l 1
 150 600 l 1
 100 600 l 1
 100 350 l 1
 100 100 l 1
 200 100 l 1xc2c0
 300 100 l 1xc2a0
 300 0 l 1
 300 -100 l 1
 550 -100 l 1
 800 -100 l 1
 800 -50 l 1
 800 0 l 1xc2c1
 750 0 l 1
 700 0 l 1
 700 100 l 1
 700 200 l 1
 650 200 l 1
 600 200 l 1
 600 100 l 1xe28a
 600 0 l 1xe284
 500 0 l 1xe288
 400 0 l 1
 400 50 l 1xe290
 400 100 l 1
 450 100 l 1
 500 100 l 1
 500 200 l 1xe2a8
 500 300 l 1
 450 300 l 1
 400 300 l 1xd0a8
 400 350 l 1xd090
 400 400 l 1
 450 400 l 1
 500 400 l 1
 500 450 l 1
 500 500 l 1
 450 500 l 1xd4a8
 400 500 l 1xc8a8
 400 550 l 1
 400 600 l 1xca90
 350 600 l 1
 300 600 l 1
 300 650 l 1xcaa0
900 650 m 1xc58080
 900 700 l 1xc281
 850 700 l 1
 800 700 l 1
 800 650 l 1
 800 600 l 1xc581
 850 600 l 1
 900 600 l 1
 900 650 l 1xc58080
700 450 m 1xc88a
 700 500 l 1
 650 500 l 1
 600 500 l 1xc48a
 600 450 l 1
 600 400 l 1
 650 400 l 1
 700 400 l 1
 700 450 l 1xc88a
200 -50 m 1xc0c0
 200 0 l 1
 150 0 l 1
 100 0 l 1
 100 -50 l 1
 100 -100 l 1
 150 -100 l 1
 200 -100 l 1
 200 -50 l 1xc0c0
EndSplineSet
Validated: 5
EndChar

StartChar: five
Encoding: 53 53 5
Width: 1000
VWidth: 0
HStem: -200 100<100 200 300 800 900 1000> 0 100<400 500 900 1000> 100 100<500 600> 200 100<100 300 600 700 800 1000> 400 100<700 800 900 1000> 500 300<400 500 800 900> 600 100<100 200 300 400 900 1000> 700 100<200 300>
VStem: 0 100<-100 200 300 600 700 800> 200 100<-100 100 700 800> 300 100<100 200 300 500> 400 100<0 100 500 600 700 800> 500 100<100 200 300 500> 600 100<600 800> 700 100<100 200 400 500> 800 100<-100 0 500 600 700 800> 900 100<0 100 400 500>
LayerCount: 2
Back
Fore
SplineSet
800 650 m 1x8881
 800 800 l 1
 850 800 l 1
 900 800 l 1x8481
 900 750 l 1
 900 700 l 1x8281
 950 700 l 1
 1000 700 l 1
 1000 650 l 1
 1000 600 l 1x828080
 950 600 l 1
 900 600 l 1
 900 550 l 1
 900 500 l 1x8a81
 950 500 l 1
 1000 500 l 1
 1000 450 l 1
 1000 400 l 1
 950 400 l 1
 900 400 l 1
 900 450 l 1x8a8080
 900 500 l 1x8a81
 850 500 l 1x8481
 800 500 l 1
 800 450 l 1
 800 400 l 1
 750 400 l 1
 700 400 l 1
 700 450 l 1
 700 500 l 1
 750 500 l 1
 800 500 l 1x8882
 800 650 l 1x8881
600 700 m 1x8184
 600 800 l 1
 650 800 l 1
 700 800 l 1
 700 700 l 1x8184
 700 600 l 1
 650 600 l 1
 600 600 l 1x8284
 600 700 l 1x8184
0 300 m 1xd08880
 0 800 l 1
 50 800 l 1
 100 800 l 1xd18880
 100 750 l 1
 100 700 l 1
 150 700 l 1
 200 700 l 1x82c880
 200 750 l 1
 200 800 l 1
 250 800 l 1
 300 800 l 1x81c880
 300 750 l 1
 300 700 l 1
 350 700 l 1
 400 700 l 1x82d0
 400 750 l 1
 400 800 l 1
 450 800 l 1
 500 800 l 1x84d0
 500 650 l 1x8488
 500 500 l 1x8490
 550 500 l 1
 600 500 l 1x8488
 600 400 l 1
 600 300 l 1
 800 300 l 1x9889
 1000 300 l 1
 1000 250 l 1
 1000 200 l 1
 900 200 l 1
 800 200 l 1x988280
 800 150 l 1
 800 100 l 1
 750 100 l 1
 700 100 l 1xa08280
 700 150 l 1
 700 200 l 1
 650 200 l 1x908280
 600 200 l 1
 600 150 l 1
 600 100 l 1
 550 100 l 1xa08a80
 500 100 l 1
 500 50 l 1
 500 0 l 1
 450 0 l 1
 400 0 l 1
 400 50 l 1xc090
 400 100 l 1xc0a0
 350 100 l 1
 300 100 l 1xa0c0
 300 0 l 1
 300 -100 l 1
 550 -100 l 1
 800 -100 l 1
 800 -50 l 1
 800 0 l 1
 850 0 l 1
 900 0 l 1xc0c1
 900 50 l 1
 900 100 l 1
 950 100 l 1
 1000 100 l 1
 1000 50 l 1
 1000 0 l 1xc08080
 950 0 l 1
 900 0 l 1
 900 -50 l 1
 900 -100 l 1xc081
 950 -100 l 1
 1000 -100 l 1
 1000 -150 l 1
 1000 -200 l 1
 500 -200 l 1
 0 -200 l 1
 0 300 l 1xd08880
300 650 m 1x82a0
 300 700 l 1x82c0
 250 700 l 1x81c0
 200 700 l 1
 200 650 l 1
 200 600 l 1
 150 600 l 1
 100 600 l 1
 100 450 l 1
 100 300 l 1
 200 300 l 1x92c0
 300 300 l 1
 300 400 l 1x9aa0
 300 500 l 1
 350 500 l 1
 400 500 l 1
 400 300 l 1
 400 100 l 1xd4a0
 450 100 l 1
 500 100 l 1xd490
 500 150 l 1
 500 200 l 1
 550 200 l 1
 600 200 l 1xa088
 600 250 l 1xa084
 600 300 l 1
 550 300 l 1
 500 300 l 1
 500 400 l 1x9888
 500 500 l 1x8490
 450 500 l 1
 400 500 l 1x84a0
 400 550 l 1
 400 600 l 1x8290
 350 600 l 1
 300 600 l 1
 300 650 l 1x82a0
300 150 m 1xa0a0
 300 200 l 1x90a0
 200 200 l 1
 100 200 l 1
 100 50 l 1
 100 -100 l 1
 150 -100 l 1
 200 -100 l 1
 200 0 l 1xd0c0
 200 100 l 1
 250 100 l 1
 300 100 l 1xa0c0
 300 150 l 1xa0a0
EndSplineSet
Validated: 5
EndChar

StartChar: six
Encoding: 54 54 6
Width: 1000
VWidth: 0
HStem: -200 200<200 300 600 700> -200 100<300 600 700 1000> 0 100<800 1000> 100 100<300 400 600 800> 200 100<900 1000> 300 100<100 200> 400 100<900 1000> 500 100<800 900> 600 100<100 200 300 400 900 1000> 700 100<200 300 600 700 800 900>
VStem: 0 200<0 200 300 400 600 700> 0 100<200 300 400 600 700 800> 200 100<700 800> 300 100<400 500> 400 100<0 100 200 300 700 800> 500 100<400 500> 600 100<-100 0 700 800> 700 100<400 500> 800 100<700 800> 900 100<200 300 400 500 600 700>
LayerCount: 2
Back
Fore
SplineSet
600 150 m 1x100080
 600 200 l 1x100080
 700 200 l 1x100040
 800 200 l 1x100020
 800 150 l 1
 800 100 l 1x200020
 900 100 l 1
 1000 100 l 1
 1000 50 l 1
 1000 0 l 1
 900 0 l 1x200010
 800 0 l 1
 800 50 l 1
 800 100 l 1x200020
 700 100 l 1x100040
 600 100 l 1
 600 150 l 1x100080
900 250 m 1x080010
 900 300 l 1
 950 300 l 1
 1000 300 l 1
 1000 250 l 1
 1000 200 l 1
 950 200 l 1
 900 200 l 1
 900 250 l 1x080010
300 400 m 1x0204
 300 500 l 1
 350 500 l 1
 400 500 l 1x0104
 400 450 l 1
 400 400 l 1
 450 400 l 1
 500 400 l 1x0205
 500 450 l 1
 500 500 l 1
 550 500 l 1
 600 500 l 1x0105
 600 400 l 1x0205
 600 300 l 1
 550 300 l 1
 500 300 l 1x040280
 500 150 l 1x0401
 500 0 l 1
 450 0 l 1
 400 0 l 1x2402
 400 50 l 1
 400 100 l 1x1002
 350 100 l 1
 300 100 l 1
 300 150 l 1
 300 200 l 1x1004
 350 200 l 1
 400 200 l 1
 400 250 l 1
 400 300 l 1x1402
 350 300 l 1
 300 300 l 1x1404
 300 400 l 1x0204
800 750 m 1x004020
 800 800 l 1
 850 800 l 1
 900 800 l 1x004020
 900 750 l 1
 900 700 l 1x008020
 950 700 l 1
 1000 700 l 1
 1000 650 l 1
 1000 600 l 1
 950 600 l 1x008010
 900 600 l 1x010010
 900 550 l 1
 900 500 l 1
 950 500 l 1
 1000 500 l 1
 1000 450 l 1
 1000 400 l 1
 950 400 l 1
 900 400 l 1
 900 450 l 1
 900 500 l 1x020010
 850 500 l 1
 800 500 l 1x010050
 800 450 l 1
 800 400 l 1
 750 400 l 1
 700 400 l 1x020050
 700 500 l 1x010050
 700 600 l 1x008050
 800 600 l 1x010020
 900 600 l 1
 900 650 l 1x010010
 900 700 l 1x008020
 850 700 l 1
 800 700 l 1
 800 750 l 1x004020
600 750 m 1x004080
 600 800 l 1
 650 800 l 1
 700 800 l 1
 700 750 l 1
 700 700 l 1
 650 700 l 1
 600 700 l 1
 600 750 l 1x004080
0 300 m 1x4420
 0 800 l 1
 50 800 l 1
 100 800 l 1x4450
 100 750 l 1
 100 700 l 1x0090
 150 700 l 1
 200 700 l 1x00a0
 200 750 l 1
 200 800 l 1
 250 800 l 1
 300 800 l 1x0048
 300 750 l 1
 300 700 l 1
 350 700 l 1
 400 700 l 1x008a
 400 750 l 1
 400 800 l 1
 450 800 l 1
 500 800 l 1
 500 700 l 1x004a
 500 600 l 1x0081
 400 600 l 1x0082
 300 600 l 1
 300 650 l 1x0084
 300 700 l 1x0088
 250 700 l 1x0048
 200 700 l 1
 200 650 l 1
 200 600 l 1x00a0
 150 600 l 1
 100 600 l 1x0090
 100 500 l 1
 100 400 l 1x0510
 150 400 l 1
 200 400 l 1
 200 350 l 1
 200 300 l 1x0520
 150 300 l 1
 100 300 l 1x0510
 100 250 l 1
 100 200 l 1x0810
 150 200 l 1
 200 200 l 1x0820
 200 100 l 1
 200 0 l 1
 250 0 l 1
 300 0 l 1x9024
 300 -50 l 1
 300 -100 l 1
 450 -100 l 1
 600 -100 l 1x402480
 600 -50 l 1
 600 0 l 1
 650 0 l 1
 700 0 l 1x802480
 700 -50 l 1
 700 -100 l 1x402480
 850 -100 l 1
 1000 -100 l 1
 1000 -150 l 1
 1000 -200 l 1
 500 -200 l 1
 0 -200 l 1x401110
 0 300 l 1x4420
EndSplineSet
Validated: 5
EndChar

StartChar: seven
Encoding: 55 55 7
Width: 1000
VWidth: 0
HStem: -200 200<100 300 600 700> -200 100<300 600 700 1000> 0 100<500 600 900 1000> 100 100<300 400 600 700 800 900> 200 100<900 1000> 300 100<600 700> 400 100<300 400 700 800 900 1000> 500 100<600 700> 600 100<100 200 300 400 700 800 900 1000> 700 100<200 300 600 700>
VStem: 0 200<100 200 600 700> 0 100<0 100 400 600 700 800> 200 100<700 800> 300 100<400 500> 400 100<700 800> 500 100<400 500> 600 100<-100 0 700 800> 700 100<0 100 400 500> 800 100<500 600 700 800> 900 100<0 100 200 300 400 500>
LayerCount: 2
Back
Fore
SplineSet
300 450 m 1x0204
 300 500 l 1
 350 500 l 1
 400 500 l 1
 400 450 l 1
 400 400 l 1
 350 400 l 1
 300 400 l 1
 300 450 l 1x0204
0 300 m 1x441110
 0 800 l 1
 50 800 l 1
 100 800 l 1x445110
 100 750 l 1
 100 700 l 1x009110
 150 700 l 1
 200 700 l 1x00a0
 200 750 l 1
 200 800 l 1
 250 800 l 1
 300 800 l 1x0048
 300 750 l 1
 300 700 l 1
 350 700 l 1
 400 700 l 1x008a
 400 750 l 1
 400 800 l 1
 450 800 l 1
 500 800 l 1
 500 700 l 1x004a
 500 600 l 1x0081
 600 600 l 1x010080
 700 600 l 1
 700 650 l 1x010040
 700 700 l 1x008080
 650 700 l 1
 600 700 l 1
 600 750 l 1
 600 800 l 1
 650 800 l 1
 700 800 l 1x004080
 700 750 l 1
 700 700 l 1
 750 700 l 1
 800 700 l 1x0080a0
 800 750 l 1
 800 800 l 1
 850 800 l 1
 900 800 l 1x0040a0
 900 750 l 1
 900 700 l 1x0080a0
 950 700 l 1
 1000 700 l 1
 1000 650 l 1
 1000 600 l 1x008010
 950 600 l 1
 900 600 l 1
 900 550 l 1
 900 500 l 1x028020
 950 500 l 1
 1000 500 l 1
 1000 450 l 1
 1000 400 l 1
 950 400 l 1
 900 400 l 1
 900 450 l 1x028010
 900 500 l 1x028020
 850 500 l 1x010020
 800 500 l 1
 800 450 l 1
 800 400 l 1
 750 400 l 1x020040
 700 400 l 1
 700 350 l 1
 700 300 l 1x040040
 650 300 l 1
 600 300 l 1
 600 250 l 1
 600 200 l 1x140080
 750 200 l 1x080080
 900 200 l 1x100090
 900 250 l 1
 900 300 l 1
 950 300 l 1
 1000 300 l 1
 1000 250 l 1
 1000 200 l 1
 950 200 l 1x080090
 900 200 l 1x100090
 900 150 l 1
 900 100 l 1
 950 100 l 1
 1000 100 l 1
 1000 50 l 1
 1000 0 l 1
 950 0 l 1
 900 0 l 1
 900 50 l 1
 900 100 l 1x200090
 850 100 l 1
 800 100 l 1x100050
 800 50 l 1
 800 0 l 1
 750 0 l 1x200050
 700 0 l 1x800080
 700 -50 l 1
 700 -100 l 1x400080
 850 -100 l 1
 1000 -100 l 1
 1000 -150 l 1
 1000 -200 l 1
 500 -200 l 1
 0 -200 l 1
 0 300 l 1x441110
300 650 m 1x1484
 300 700 l 1x1488
 250 700 l 1x0048
 200 700 l 1
 200 650 l 1
 200 600 l 1x00a0
 150 600 l 1
 100 600 l 1x0090
 100 500 l 1x0110
 100 400 l 1
 200 400 l 1x0218
 300 400 l 1x0204
 300 300 l 1
 300 200 l 1x1404
 250 200 l 1
 200 200 l 1x0824
 200 150 l 1
 200 100 l 1x1024
 150 100 l 1
 100 100 l 1
 100 50 l 1
 100 0 l 1
 200 0 l 1x9018
 300 0 l 1x9004
 300 -50 l 1
 300 -100 l 1
 450 -100 l 1
 600 -100 l 1x400480
 600 -50 l 1
 600 0 l 1
 650 0 l 1
 700 0 l 1x800480
 700 50 l 1
 700 100 l 1
 650 100 l 1x900040
 600 100 l 1x200080
 600 150 l 1
 600 200 l 1x100080
 550 200 l 1
 500 200 l 1
 500 150 l 1
 500 100 l 1x2801
 550 100 l 1
 600 100 l 1x280080
 600 50 l 1
 600 0 l 1x800080
 500 0 l 1x2001
 400 0 l 1x2002
 400 50 l 1
 400 100 l 1x1002
 350 100 l 1
 300 100 l 1
 300 150 l 1
 300 200 l 1x1004
 350 200 l 1
 400 200 l 1
 400 250 l 1
 400 300 l 1x1402
 450 300 l 1
 500 300 l 1
 500 450 l 1
 500 600 l 1x1481
 400 600 l 1x1482
 300 600 l 1
 300 650 l 1x1484
800 550 m 1x020020
 800 600 l 1
 750 600 l 1x028020
 700 600 l 1x010040
 700 550 l 1
 700 500 l 1x020040
 650 500 l 1
 600 500 l 1
 600 450 l 1
 600 400 l 1
 650 400 l 1
 700 400 l 1x050140
 700 450 l 1
 700 500 l 1
 750 500 l 1
 800 500 l 1x020140
 800 550 l 1x020020
EndSplineSet
Validated: 5
EndChar

StartChar: eight
Encoding: 56 56 8
Width: 1000
VWidth: 0
HStem: -200 100<200 600 700 800 900 1000> 0 100<400 500 900 1000> 100 100<300 400> 200 100<800 1000> 300 100<100 200 400 500> 400 100<300 400 500 600 900 1000> 500 300<400 500 800 900> 600 100<100 200 300 400 900 1000> 700 100<200 300>
VStem: 0 200<-100 0 600 700> 0 100<100 300 400 600 700 800> 200 100<200 300 700 800> 300 100<400 500> 400 100<300 400 500 600 700 800> 500 300<100 200 400 500> 600 100<-100 0 700 800> 800 100<-100 0 700 800> 900 100<400 500>
LayerCount: 2
Back
Fore
SplineSet
0 300 m 1xc82240
 0 800 l 1
 50 800 l 1
 100 800 l 1xc8a240
 100 750 l 1
 100 700 l 1x812240
 150 700 l 1
 200 700 l 1x8140
 200 750 l 1
 200 800 l 1
 250 800 l 1
 300 800 l 1x8090
 300 750 l 1
 300 700 l 1
 350 700 l 1
 400 700 l 1x8114
 400 750 l 1
 400 800 l 1
 450 800 l 1
 500 800 l 1x8214
 500 650 l 1x8202
 500 500 l 1
 550 500 l 1
 600 500 l 1
 600 650 l 1
 600 800 l 1
 650 800 l 1
 700 800 l 1
 700 750 l 1
 700 700 l 1
 750 700 l 1
 800 700 l 1x848580
 800 750 l 1
 800 800 l 1
 850 800 l 1
 900 800 l 1x820580
 900 750 l 1
 900 700 l 1x810580
 950 700 l 1
 1000 700 l 1
 1000 650 l 1
 1000 600 l 1
 950 600 l 1
 900 600 l 1
 900 550 l 1
 900 500 l 1
 950 500 l 1
 1000 500 l 1
 1000 450 l 1
 1000 400 l 1
 950 400 l 1
 900 400 l 1
 900 450 l 1
 900 500 l 1x850040
 850 500 l 1
 800 500 l 1x820240
 800 450 l 1
 800 400 l 1
 650 400 l 1x840240
 500 400 l 1
 500 350 l 1
 500 300 l 1
 450 300 l 1
 400 300 l 1
 400 350 l 1x8804
 400 400 l 1x8808
 350 400 l 1
 300 400 l 1x8408
 300 300 l 1
 300 200 l 1
 350 200 l 1
 400 200 l 1xa814
 400 150 l 1
 400 100 l 1xc014
 450 100 l 1
 500 100 l 1
 500 150 l 1
 500 200 l 1
 650 200 l 1
 800 200 l 1xd002
 800 250 l 1
 800 300 l 1xd00080
 900 300 l 1
 1000 300 l 1
 1000 250 l 1
 1000 200 l 1
 900 200 l 1
 800 200 l 1xd00240
 800 150 l 1
 800 100 l 1xa00240
 900 100 l 1
 1000 100 l 1
 1000 50 l 1
 1000 0 l 1xc00240
 950 0 l 1
 900 0 l 1
 900 -50 l 1
 900 -100 l 1xc00080
 950 -100 l 1
 1000 -100 l 1
 1000 -150 l 1
 1000 -200 l 1
 500 -200 l 1
 0 -200 l 1
 0 300 l 1xc82240
300 650 m 1x8508
 300 700 l 1x8510
 250 700 l 1x8090
 200 700 l 1
 200 650 l 1
 200 600 l 1x8140
 150 600 l 1
 100 600 l 1x8120
 100 500 l 1
 100 400 l 1
 200 400 l 1x8a30
 300 400 l 1
 300 450 l 1
 300 500 l 1
 350 500 l 1
 400 500 l 1x8408
 400 450 l 1
 400 400 l 1x8808
 450 400 l 1
 500 400 l 1x8804
 500 450 l 1x8802
 500 500 l 1x8404
 450 500 l 1x8204
 400 500 l 1x8408
 400 550 l 1
 400 600 l 1x8504
 350 600 l 1
 300 600 l 1
 300 650 l 1x8508
200 200 m 1x9030
 200 300 l 1
 150 300 l 1
 100 300 l 1x8830
 100 200 l 1x9030
 100 100 l 1
 150 100 l 1
 200 100 l 1xa030
 200 200 l 1x9030
400 50 m 1xc004
 400 100 l 1xc004
 350 100 l 1
 300 100 l 1xa008
 300 50 l 1
 300 0 l 1xc008
 250 0 l 1
 200 0 l 1
 200 -50 l 1
 200 -100 l 1
 400 -100 l 1
 600 -100 l 1
 600 -50 l 1
 600 0 l 1xc045
 500 0 l 1xc002
 400 0 l 1
 400 50 l 1xc004
800 -50 m 1xc00180
 800 0 l 1
 750 0 l 1
 700 0 l 1
 700 -50 l 1
 700 -100 l 1
 750 -100 l 1
 800 -100 l 1
 800 -50 l 1xc00180
EndSplineSet
Validated: 5
EndChar

StartChar: nine
Encoding: 57 57 9
Width: 1000
VWidth: 0
HStem: -200 200<100 200 800 900> -200 100<200 600 700 800 900 1000> 0 100<400 500 900 1000> 100 100<300 400 700 800> 200 100<900 1000> 300 200<300 400 600 700> 400 100<700 800 900 1000> 500 100<800 900> 600 100<100 200 300 400 900 1000> 700 100<200 300 800 900>
VStem: 0 200<-100 0 200 400 600 700> 0 100<0 200 400 600 700 800> 200 100<0 100 700 800> 300 100<300 500> 400 100<0 100 700 800> 500 100<200 300> 600 100<-100 100 300 400 600 800> 800 100<-100 0 500 600 700 800> 900 100<0 100 400 500 600 700>
LayerCount: 2
Back
Fore
SplineSet
200 100 m 1x9008
 200 200 l 1x0820
 300 200 l 1x1024
 400 200 l 1x1002
 400 150 l 1
 400 100 l 1
 450 100 l 1
 500 100 l 1
 500 50 l 1
 500 0 l 1
 450 0 l 1
 400 0 l 1
 400 50 l 1
 400 100 l 1x2002
 350 100 l 1
 300 100 l 1x100a
 300 50 l 1
 300 0 l 1
 250 0 l 1x200a
 200 0 l 1x8020
 200 100 l 1x9008
300 400 m 1x0204
 300 500 l 1
 350 500 l 1
 400 500 l 1x0404
 400 400 l 1x0204
 400 300 l 1
 350 300 l 1
 300 300 l 1x0404
 300 400 l 1x0204
0 300 m 1x4420
 0 800 l 1
 50 800 l 1
 100 800 l 1x4450
 100 750 l 1
 100 700 l 1x0090
 150 700 l 1
 200 700 l 1x00a0
 200 750 l 1
 200 800 l 1
 250 800 l 1
 300 800 l 1x0048
 300 750 l 1
 300 700 l 1
 350 700 l 1
 400 700 l 1x008a
 400 750 l 1
 400 800 l 1
 450 800 l 1
 500 800 l 1
 500 700 l 1x004a
 500 600 l 1x0081
 550 600 l 1
 600 600 l 1x008080
 600 700 l 1
 600 800 l 1
 650 800 l 1
 700 800 l 1
 700 700 l 1x004080
 700 600 l 1
 650 600 l 1
 600 600 l 1
 600 550 l 1
 600 500 l 1
 700 500 l 1x048080
 800 500 l 1x0200c0
 800 550 l 1
 800 600 l 1
 850 600 l 1
 900 600 l 1x0100c0
 900 650 l 1x010020
 900 700 l 1x008040
 850 700 l 1
 800 700 l 1
 800 750 l 1
 800 800 l 1
 850 800 l 1
 900 800 l 1x004040
 900 750 l 1
 900 700 l 1x008040
 950 700 l 1
 1000 700 l 1
 1000 650 l 1
 1000 600 l 1
 950 600 l 1x008020
 900 600 l 1x010040
 900 550 l 1
 900 500 l 1x020040
 950 500 l 1
 1000 500 l 1
 1000 450 l 1
 1000 400 l 1
 950 400 l 1
 900 400 l 1
 900 450 l 1x020020
 900 500 l 1x020040
 850 500 l 1x010040
 800 500 l 1
 800 450 l 1
 800 400 l 1
 750 400 l 1
 700 400 l 1x0200c0
 700 350 l 1
 700 300 l 1x0400c0
 650 300 l 1
 600 300 l 1x0401
 600 250 l 1
 600 200 l 1x0801
 700 200 l 1
 800 200 l 1
 800 250 l 1
 800 300 l 1x1400c0
 900 300 l 1
 1000 300 l 1
 1000 250 l 1
 1000 200 l 1
 950 200 l 1
 900 200 l 1
 900 150 l 1
 900 100 l 1
 950 100 l 1
 1000 100 l 1
 1000 50 l 1
 1000 0 l 1
 950 0 l 1x280020
 900 0 l 1x800040
 900 -50 l 1
 900 -100 l 1x400040
 950 -100 l 1
 1000 -100 l 1
 1000 -150 l 1
 1000 -200 l 1
 500 -200 l 1
 0 -200 l 1x401120
 0 300 l 1x4420
300 650 m 1x0484
 300 700 l 1x0488
 250 700 l 1x0048
 200 700 l 1
 200 650 l 1
 200 600 l 1x00a0
 150 600 l 1
 100 600 l 1x0090
 100 500 l 1x0110
 100 400 l 1x0210
 150 400 l 1
 200 400 l 1x0220
 200 300 l 1x0420
 200 200 l 1x0820
 150 200 l 1
 100 200 l 1x0810
 100 100 l 1
 100 0 l 1x9010
 150 0 l 1
 200 0 l 1x9020
 200 -50 l 1
 200 -100 l 1
 400 -100 l 1
 600 -100 l 1
 600 0 l 1x602280
 600 100 l 1
 550 100 l 1x102280
 500 100 l 1x202280
 500 200 l 1x2801
 500 300 l 1
 550 300 l 1
 600 300 l 1x0401
 600 350 l 1
 600 400 l 1x020080
 550 400 l 1
 500 400 l 1x0201
 500 450 l 1
 500 500 l 1
 450 500 l 1x0101
 400 500 l 1x0405
 400 550 l 1
 400 600 l 1x0482
 350 600 l 1
 300 600 l 1
 300 650 l 1x0484
900 50 m 1x800020
 900 100 l 1x200020
 800 100 l 1
 700 100 l 1x1000c0
 700 0 l 1
 700 -100 l 1
 750 -100 l 1
 800 -100 l 1x6000c0
 800 -50 l 1
 800 0 l 1
 850 0 l 1
 900 0 l 1x8000c0
 900 50 l 1x800020
EndSplineSet
Validated: 5
EndChar

StartChar: colon
Encoding: 58 58 10
Width: 1000
VWidth: 0
HStem: -200 100<100 200 300 600 900 1000> 0 100<400 500 900 1000> 200 100<400 500 600 700 900 1000> 300 100<200 300> 400 100<900 1000> 600 100<100 200 300 400 900 1000> 700 100<200 300 600 700>
VStem: 0 200<100 300 600 700> 0 100<-100 100 300 600 700 800> 200 100<-100 100 700 800> 300 200<200 300 400 500 600 700> 400 100<500 600 700 800> 500 100<100 200> 600 100<200 300 700 800> 800 100<300 400 700 800>
LayerCount: 2
Back
Fore
SplineSet
600 750 m 1xc206
 600 800 l 1
 650 800 l 1
 700 800 l 1
 700 750 l 1
 700 700 l 1
 750 700 l 1
 800 700 l 1
 800 750 l 1
 800 800 l 1
 850 800 l 1
 900 800 l 1xc206
 900 750 l 1
 900 700 l 1
 950 700 l 1
 1000 700 l 1
 1000 650 l 1
 1000 600 l 1
 950 600 l 1
 900 600 l 1
 900 550 l 1
 900 500 l 1
 950 500 l 1
 1000 500 l 1
 1000 450 l 1
 1000 400 l 1
 950 400 l 1
 900 400 l 1
 900 350 l 1
 900 300 l 1
 950 300 l 1
 1000 300 l 1
 1000 250 l 1
 1000 200 l 1
 900 200 l 1
 800 200 l 1xec06
 800 300 l 1xd006
 800 400 l 1
 700 400 l 1
 600 400 l 1
 600 500 l 1
 600 600 l 1
 650 600 l 1
 700 600 l 1xcc06
 700 650 l 1
 700 700 l 1
 650 700 l 1
 600 700 l 1
 600 750 l 1xc206
0 300 m 1xd102
 0 800 l 1
 50 800 l 1
 100 800 l 1xd282
 100 750 l 1
 100 700 l 1xc482
 150 700 l 1
 200 700 l 1xc502
 200 750 l 1
 200 800 l 1
 250 800 l 1
 300 800 l 1xc242
 300 750 l 1
 300 700 l 1
 350 700 l 1
 400 700 l 1xc452
 400 750 l 1
 400 800 l 1
 450 800 l 1
 500 800 l 1xc252
 500 600 l 1
 500 400 l 1xcc22
 450 400 l 1
 400 400 l 1
 400 350 l 1
 400 300 l 1xec12
 450 300 l 1
 500 300 l 1
 500 250 l 1
 500 200 l 1xec22
 550 200 l 1
 600 200 l 1xec0a
 600 250 l 1
 600 300 l 1
 650 300 l 1
 700 300 l 1
 700 250 l 1
 700 200 l 1xec06
 650 200 l 1
 600 200 l 1
 600 150 l 1
 600 100 l 1
 800 100 l 1
 1000 100 l 1
 1000 50 l 1
 1000 0 l 1
 950 0 l 1
 900 0 l 1
 900 -50 l 1
 900 -100 l 1
 950 -100 l 1
 1000 -100 l 1
 1000 -150 l 1
 1000 -200 l 1
 500 -200 l 1
 0 -200 l 1xec8a
 0 300 l 1xd102
300 650 m 1xcc22
 300 700 l 1xcc42
 250 700 l 1xc242
 200 700 l 1
 200 650 l 1
 200 600 l 1xc502
 150 600 l 1
 100 600 l 1
 100 450 l 1
 100 300 l 1xd482
 150 300 l 1
 200 300 l 1xd502
 200 200 l 1
 200 100 l 1xe102
 150 100 l 1
 100 100 l 1
 100 0 l 1
 100 -100 l 1
 150 -100 l 1
 200 -100 l 1
 200 0 l 1xe0c2
 200 100 l 1xe102
 250 100 l 1
 300 100 l 1
 300 0 l 1
 300 -100 l 1
 450 -100 l 1
 600 -100 l 1
 600 -50 l 1
 600 0 l 1xe046
 500 0 l 1xe00a
 400 0 l 1
 400 50 l 1
 400 100 l 1xe012
 450 100 l 1
 500 100 l 1
 500 150 l 1xe00a
 500 200 l 1xe022
 400 200 l 1xe012
 300 200 l 1xe022
 300 250 l 1
 300 300 l 1
 250 300 l 1
 200 300 l 1xd122
 200 350 l 1
 200 400 l 1xd042
 250 400 l 1
 300 400 l 1xd022
 300 450 l 1
 300 500 l 1xc822
 350 500 l 1
 400 500 l 1
 400 550 l 1
 400 600 l 1xcc12
 350 600 l 1
 300 600 l 1
 300 650 l 1xcc22
EndSplineSet
Validated: 5
EndChar

StartChar: semicolon
Encoding: 59 59 11
Width: 1000
VWidth: 0
HStem: -200 100<200 600 700 1000> 0 100<200 300 400 500 900 1000> 100 100<300 400> 200 100<200 300 900 1000> 300 100<400 500> 400 100<300 400 700 800 900 1000> 600 100<100 200 300 400 900 1000> 700 100<200 300 600 700 800 900>
VStem: 0 200<-100 0 600 700> 0 100<0 600 700 800> 200 100<0 100 200 300 700 800> 300 100<100 200 400 500> 400 100<0 100 700 800> 500 100<200 300> 600 100<-100 0 700 800> 700 100<100 300> 800 100<300 400 500 600 700 800> 900 100<0 100 200 300 600 700>
LayerCount: 2
Back
Fore
SplineSet
200 250 m 1x9020
 200 300 l 1
 250 300 l 1
 300 300 l 1x9020
 300 250 l 1
 300 200 l 1xa020
 350 200 l 1
 400 200 l 1xa010
 400 150 l 1
 400 100 l 1xc010
 450 100 l 1
 500 100 l 1
 500 50 l 1
 500 0 l 1
 450 0 l 1
 400 0 l 1
 400 50 l 1xc008
 400 100 l 1xc010
 350 100 l 1xa010
 300 100 l 1
 300 50 l 1
 300 0 l 1xc020
 250 0 l 1
 200 0 l 1xc080
 200 50 l 1
 200 100 l 1
 250 100 l 1
 300 100 l 1xc020
 300 150 l 1xc010
 300 200 l 1xa020
 250 200 l 1
 200 200 l 1
 200 250 l 1x9020
300 450 m 1x8410
 300 500 l 1
 350 500 l 1
 400 500 l 1x8410
 400 450 l 1
 400 400 l 1x8810
 350 400 l 1
 300 400 l 1
 300 450 l 1x8410
900 50 m 1xc00040
 900 100 l 1
 950 100 l 1
 1000 100 l 1
 1000 50 l 1
 1000 0 l 1
 950 0 l 1
 900 0 l 1
 900 50 l 1xc00040
600 750 m 1x8102
 600 800 l 1
 650 800 l 1
 700 800 l 1
 700 750 l 1
 700 700 l 1
 650 700 l 1
 600 700 l 1
 600 750 l 1x8102
0 300 m 1xc84440
 0 800 l 1
 50 800 l 1
 100 800 l 1xc94440
 100 750 l 1
 100 700 l 1x824440
 150 700 l 1
 200 700 l 1x8280
 200 750 l 1
 200 800 l 1
 250 800 l 1
 300 800 l 1x8120
 300 750 l 1
 300 700 l 1
 350 700 l 1
 400 700 l 1x8228
 400 750 l 1
 400 800 l 1
 450 800 l 1
 500 800 l 1
 500 700 l 1x8128
 500 600 l 1x8204
 600 600 l 1x8202
 700 600 l 1
 700 550 l 1
 700 500 l 1x8601
 750 500 l 1
 800 500 l 1
 800 550 l 1
 800 600 l 1
 850 600 l 1
 900 600 l 1x860080
 900 650 l 1x860040
 900 700 l 1x860080
 850 700 l 1
 800 700 l 1
 800 750 l 1
 800 800 l 1
 850 800 l 1
 900 800 l 1x810080
 900 750 l 1
 900 700 l 1x820080
 950 700 l 1
 1000 700 l 1
 1000 650 l 1
 1000 600 l 1x820040
 950 600 l 1
 900 600 l 1
 900 550 l 1
 900 500 l 1x860080
 950 500 l 1
 1000 500 l 1
 1000 450 l 1
 1000 400 l 1x860040
 950 400 l 1
 900 400 l 1
 900 350 l 1
 900 300 l 1x960080
 950 300 l 1
 1000 300 l 1
 1000 250 l 1
 1000 200 l 1
 950 200 l 1
 900 200 l 1
 900 250 l 1x960040
 900 300 l 1x960080
 850 300 l 1
 800 300 l 1
 800 150 l 1x8801
 800 0 l 1
 750 0 l 1
 700 0 l 1
 700 -50 l 1
 700 -100 l 1xc80280
 850 -100 l 1
 1000 -100 l 1
 1000 -150 l 1
 1000 -200 l 1
 500 -200 l 1
 0 -200 l 1
 0 300 l 1xc84440
300 650 m 1x8610
 300 700 l 1x8620
 250 700 l 1x8120
 200 700 l 1
 200 650 l 1
 200 600 l 1x8280
 150 600 l 1
 100 600 l 1
 100 300 l 1
 100 0 l 1xca40
 150 0 l 1
 200 0 l 1
 200 -50 l 1
 200 -100 l 1
 400 -100 l 1
 600 -100 l 1
 600 0 l 1xca8a
 600 100 l 1xa08a
 650 100 l 1
 700 100 l 1xa001
 700 200 l 1x9001
 700 300 l 1
 750 300 l 1
 800 300 l 1x8801
 800 350 l 1
 800 400 l 1x840080
 700 400 l 1x8401
 600 400 l 1x8402
 600 300 l 1x8804
 600 200 l 1
 550 200 l 1
 500 200 l 1x9004
 500 250 l 1
 500 300 l 1x8804
 450 300 l 1
 400 300 l 1
 400 350 l 1x8808
 400 400 l 1
 450 400 l 1
 500 400 l 1x8814
 500 500 l 1
 500 600 l 1x8614
 400 600 l 1x8608
 300 600 l 1
 300 650 l 1x8610
EndSplineSet
Validated: 5
EndChar

StartChar: less
Encoding: 60 60 12
Width: 1000
VWidth: 0
HStem: -200 200<100 200 700 900> -200 100<200 600 900 1000> 0 100<400 500 900 1000> 100 100<700 800> 200 100<300 400 600 700 800 1000> 400 100<300 400 600 700 800 1000> 600 100<100 200 300 400 900 1000> 700 100<200 300 800 900>
VStem: 0 200<-100 0 100 200 600 700> 0 100<0 100 400 600 700 800> 200 100<700 800> 400 100<700 800> 500 100<100 200> 600 100<600 800> 700 100<100 200 500 600> 800 100<700 800> 900 100<0 100 600 700>
LayerCount: 2
Back
Fore
SplineSet
800 750 m 1x0501
 800 800 l 1
 850 800 l 1
 900 800 l 1x0501
 900 750 l 1
 900 700 l 1x0601
 950 700 l 1
 1000 700 l 1
 1000 650 l 1
 1000 600 l 1
 950 600 l 1
 900 600 l 1
 900 650 l 1x060080
 900 700 l 1x0601
 850 700 l 1
 800 700 l 1
 800 750 l 1x0501
0 300 m 1x4c4880
 0 800 l 1
 50 800 l 1
 100 800 l 1x4d4880
 100 750 l 1
 100 700 l 1x064880
 150 700 l 1
 200 700 l 1x0680
 200 750 l 1
 200 800 l 1
 250 800 l 1
 300 800 l 1x0520
 300 750 l 1
 300 700 l 1
 350 700 l 1
 400 700 l 1x0630
 400 750 l 1
 400 800 l 1
 450 800 l 1
 500 800 l 1
 500 700 l 1x0530
 500 600 l 1x0608
 400 600 l 1
 300 600 l 1
 300 650 l 1
 300 700 l 1x0630
 250 700 l 1x0530
 200 700 l 1
 200 650 l 1
 200 600 l 1x0680
 150 600 l 1
 100 600 l 1
 100 500 l 1
 100 400 l 1
 200 400 l 1
 300 400 l 1
 300 450 l 1
 300 500 l 1
 500 500 l 1
 700 500 l 1
 700 550 l 1x066a
 700 600 l 1
 650 600 l 1
 600 600 l 1x0604
 600 700 l 1
 600 800 l 1
 650 800 l 1
 700 800 l 1
 700 700 l 1x0504
 700 600 l 1x0604
 750 600 l 1
 800 600 l 1
 800 550 l 1
 800 500 l 1
 900 500 l 1
 1000 500 l 1
 1000 450 l 1
 1000 400 l 1x060280
 800 400 l 1
 600 400 l 1
 600 350 l 1
 600 300 l 1x0e05
 650 300 l 1
 700 300 l 1x0e02
 700 250 l 1
 700 200 l 1
 750 200 l 1
 800 200 l 1x1402
 800 250 l 1
 800 300 l 1x0c01
 900 300 l 1
 1000 300 l 1
 1000 250 l 1
 1000 200 l 1
 900 200 l 1x0c0080
 800 200 l 1
 800 150 l 1
 800 100 l 1
 750 100 l 1
 700 100 l 1
 700 50 l 1
 700 0 l 1x940280
 800 0 l 1x9401
 900 0 l 1x940080
 900 50 l 1
 900 100 l 1
 950 100 l 1
 1000 100 l 1
 1000 50 l 1
 1000 0 l 1
 950 0 l 1x240080
 900 0 l 1x840080
 900 -50 l 1
 900 -100 l 1
 950 -100 l 1
 1000 -100 l 1
 1000 -150 l 1
 1000 -200 l 1
 500 -200 l 1
 0 -200 l 1
 0 300 l 1x4c4880
400 350 m 1x6c10
 400 400 l 1
 350 400 l 1
 300 400 l 1
 300 350 l 1
 300 300 l 1
 350 300 l 1
 400 300 l 1
 400 250 l 1
 400 200 l 1
 300 200 l 1x6c30
 200 200 l 1x6c80
 200 150 l 1
 200 100 l 1x1480
 150 100 l 1
 100 100 l 1
 100 50 l 1
 100 0 l 1x9440
 150 0 l 1
 200 0 l 1x9480
 200 -50 l 1
 200 -100 l 1
 400 -100 l 1
 600 -100 l 1
 600 -50 l 1
 600 0 l 1x6494
 500 0 l 1x6408
 400 0 l 1
 400 50 l 1
 400 100 l 1x6410
 450 100 l 1
 500 100 l 1
 500 200 l 1
 500 300 l 1x6c08
 450 300 l 1
 400 300 l 1
 400 350 l 1x6c10
700 150 m 1x140a
 700 200 l 1x140a
 650 200 l 1
 600 200 l 1x0c0a
 600 150 l 1
 600 100 l 1
 650 100 l 1
 700 100 l 1
 700 150 l 1x140a
EndSplineSet
Validated: 5
EndChar

StartChar: equal
Encoding: 61 61 13
Width: 1000
VWidth: 0
HStem: -200 200<700 900> -200 100<100 200 300 600 900 1000> 0 100<400 500 900 1000> 200 100<200 400 900 1000> 400 100<300 400 700 800 900 1000> 500 100<500 600> 600 100<100 200 300 400 900 1000> 700 100<200 300 600 700 800 900>
VStem: 0 200<100 200 600 700> 0 100<-100 0 200 600 700 800> 200 100<-100 0 700 800> 300 200<400 500 600 700> 400 100<0 100 300 400 700 800> 500 100<100 200> 600 100<0 100 300 400 700 800> 800 100<100 200 300 400 500 600 700 800> 900 100<0 100 600 700>
LayerCount: 2
Back
Fore
SplineSet
400 50 m 1x3008
 400 100 l 1
 450 100 l 1
 500 100 l 1
 500 50 l 1
 500 0 l 1
 450 0 l 1
 400 0 l 1
 400 50 l 1x3008
600 750 m 1x1102
 600 800 l 1
 650 800 l 1
 700 800 l 1
 700 750 l 1
 700 700 l 1
 650 700 l 1
 600 700 l 1
 600 750 l 1x1102
0 300 m 1x504480
 0 800 l 1
 50 800 l 1
 100 800 l 1x514480
 100 750 l 1
 100 700 l 1x124480
 150 700 l 1
 200 700 l 1x1280
 200 750 l 1
 200 800 l 1
 250 800 l 1
 300 800 l 1x1120
 300 750 l 1
 300 700 l 1
 350 700 l 1
 400 700 l 1x1228
 400 750 l 1
 400 800 l 1
 450 800 l 1
 500 800 l 1x1128
 500 700 l 1
 500 600 l 1
 550 600 l 1
 600 600 l 1
 600 550 l 1
 600 500 l 1x1512
 700 500 l 1
 800 500 l 1
 800 550 l 1
 800 600 l 1
 850 600 l 1
 900 600 l 1x1a13
 900 650 l 1x1a0080
 900 700 l 1x1a01
 850 700 l 1
 800 700 l 1
 800 750 l 1
 800 800 l 1
 850 800 l 1
 900 800 l 1x1101
 900 750 l 1
 900 700 l 1x1201
 950 700 l 1
 1000 700 l 1
 1000 650 l 1
 1000 600 l 1x120080
 950 600 l 1
 900 600 l 1
 900 550 l 1
 900 500 l 1x1a01
 950 500 l 1
 1000 500 l 1
 1000 450 l 1
 1000 400 l 1x1a0080
 950 400 l 1
 900 400 l 1
 900 350 l 1
 900 300 l 1x1a01
 950 300 l 1
 1000 300 l 1
 1000 250 l 1
 1000 200 l 1x1a0080
 950 200 l 1
 900 200 l 1
 900 150 l 1
 900 100 l 1x3a01
 950 100 l 1
 1000 100 l 1
 1000 50 l 1
 1000 0 l 1
 950 0 l 1x3a0080
 900 0 l 1x900080
 900 -50 l 1
 900 -100 l 1
 950 -100 l 1
 1000 -100 l 1
 1000 -150 l 1
 1000 -200 l 1
 500 -200 l 1
 0 -200 l 1
 0 300 l 1x504480
300 650 m 1x3a10
 300 700 l 1x3a20
 250 700 l 1x1120
 200 700 l 1
 200 650 l 1
 200 600 l 1x1280
 150 600 l 1
 100 600 l 1
 100 400 l 1
 100 200 l 1x1a40
 150 200 l 1
 200 200 l 1
 200 150 l 1
 200 100 l 1
 250 100 l 1
 300 100 l 1x3a90
 300 0 l 1
 300 -100 l 1
 450 -100 l 1
 600 -100 l 1
 600 0 l 1x7a22
 600 100 l 1x7a04
 650 100 l 1
 700 100 l 1x7a02
 700 50 l 1
 700 0 l 1
 800 0 l 1x9003
 900 0 l 1
 900 50 l 1x900080
 900 100 l 1
 850 100 l 1
 800 100 l 1
 800 250 l 1
 800 400 l 1
 750 400 l 1
 700 400 l 1
 700 300 l 1
 700 200 l 1x3803
 650 200 l 1
 600 200 l 1
 600 150 l 1
 600 100 l 1x3804
 550 100 l 1
 500 100 l 1x3808
 500 150 l 1
 500 200 l 1
 350 200 l 1
 200 200 l 1x3884
 200 250 l 1
 200 300 l 1x3820
 300 300 l 1x3810
 400 300 l 1
 400 350 l 1
 400 400 l 1x3808
 350 400 l 1
 300 400 l 1
 300 450 l 1
 300 500 l 1x3810
 350 500 l 1
 400 500 l 1
 400 550 l 1
 400 600 l 1x3a08
 350 600 l 1
 300 600 l 1
 300 650 l 1x3a10
600 400 m 1x180a
 600 500 l 1
 550 500 l 1
 500 500 l 1x1412
 500 400 l 1x1812
 500 300 l 1
 550 300 l 1
 600 300 l 1
 600 400 l 1x180a
200 -50 m 1x7060
 200 0 l 1
 150 0 l 1
 100 0 l 1
 100 -50 l 1
 100 -100 l 1
 150 -100 l 1
 200 -100 l 1
 200 -50 l 1x7060
EndSplineSet
Validated: 5
EndChar

StartChar: greater
Encoding: 62 62 14
Width: 1000
VWidth: 0
HStem: -200 100<100 200 300 600 700 1000> 0 100<400 500 800 1000> 100 100<300 400> 200 100<400 500 700 800 900 1000> 300 100<100 200> 400 100<600 1000> 500 100<500 600> 600 100<100 200 300 400 700 800 900 1000> 700 100<200 300>
VStem: 0 200<300 400 600 700> 0 100<-100 300 400 600 700 800> 200 100<-100 0 700 800> 300 100<100 200 300 500> 400 100<0 100 200 300 700 800> 600 100<-100 100 700 800> 700 100<200 300> 800 100<700 800> 900 100<200 300>
LayerCount: 2
Back
Fore
SplineSet
800 50 m 1xc00080
 800 100 l 1xc00080
 900 100 l 1
 1000 100 l 1
 1000 50 l 1
 1000 0 l 1
 900 0 l 1xc00040
 800 0 l 1
 800 50 l 1xc00080
900 250 m 1x900040
 900 300 l 1
 950 300 l 1
 1000 300 l 1
 1000 250 l 1
 1000 200 l 1
 950 200 l 1
 900 200 l 1
 900 250 l 1x900040
700 250 m 1x9001
 700 300 l 1
 750 300 l 1
 800 300 l 1
 800 250 l 1
 800 200 l 1
 750 200 l 1
 700 200 l 1
 700 250 l 1x9001
0 300 m 1xc840
 0 800 l 1
 50 800 l 1
 100 800 l 1xc8a0
 100 750 l 1
 100 700 l 1x8120
 150 700 l 1
 200 700 l 1x8140
 200 750 l 1
 200 800 l 1
 250 800 l 1
 300 800 l 1x8090
 300 750 l 1
 300 700 l 1
 350 700 l 1
 400 700 l 1x8114
 400 750 l 1
 400 800 l 1
 450 800 l 1
 500 800 l 1
 500 700 l 1
 500 600 l 1
 550 600 l 1
 600 600 l 1
 600 700 l 1
 600 800 l 1
 650 800 l 1
 700 800 l 1x8296
 700 750 l 1
 700 700 l 1
 750 700 l 1
 800 700 l 1x811680
 800 750 l 1
 800 800 l 1
 850 800 l 1
 900 800 l 1x809680
 900 750 l 1
 900 700 l 1x811680
 950 700 l 1
 1000 700 l 1
 1000 650 l 1
 1000 600 l 1x810040
 800 600 l 1x810080
 600 600 l 1x820280
 600 550 l 1
 600 500 l 1
 800 500 l 1x840280
 1000 500 l 1
 1000 450 l 1
 1000 400 l 1x840040
 800 400 l 1
 600 400 l 1
 600 450 l 1
 600 500 l 1x840280
 500 500 l 1x820680
 400 500 l 1x8208
 400 400 l 1
 400 300 l 1x9408
 450 300 l 1
 500 300 l 1
 500 250 l 1
 500 200 l 1
 450 200 l 1x9404
 400 200 l 1xa008
 400 150 l 1
 400 100 l 1xc008
 450 100 l 1
 500 100 l 1
 500 50 l 1
 500 0 l 1
 450 0 l 1
 400 0 l 1
 400 50 l 1xc004
 400 100 l 1xc008
 350 100 l 1
 300 100 l 1
 300 150 l 1
 300 200 l 1
 350 200 l 1
 400 200 l 1xa008
 400 250 l 1xa004
 400 300 l 1x9008
 350 300 l 1
 300 300 l 1x8808
 300 400 l 1x8408
 300 500 l 1
 350 500 l 1
 400 500 l 1x8208
 400 550 l 1
 400 600 l 1x8104
 350 600 l 1
 300 600 l 1
 300 650 l 1x8108
 300 700 l 1x8110
 250 700 l 1x8090
 200 700 l 1
 200 650 l 1
 200 600 l 1x8140
 150 600 l 1
 100 600 l 1x8120
 100 500 l 1
 100 400 l 1x8a20
 150 400 l 1
 200 400 l 1
 200 350 l 1
 200 300 l 1x8a40
 150 300 l 1
 100 300 l 1
 100 100 l 1xaa20
 100 -100 l 1
 150 -100 l 1
 200 -100 l 1
 200 -50 l 1
 200 0 l 1
 250 0 l 1
 300 0 l 1
 300 -50 l 1
 300 -100 l 1
 450 -100 l 1
 600 -100 l 1
 600 0 l 1xc032
 600 100 l 1
 650 100 l 1
 700 100 l 1xa032
 700 0 l 1
 700 -100 l 1
 850 -100 l 1
 1000 -100 l 1
 1000 -150 l 1
 1000 -200 l 1
 500 -200 l 1
 0 -200 l 1xc03640
 0 300 l 1xc840
EndSplineSet
Validated: 5
EndChar

StartChar: question
Encoding: 63 63 15
Width: 1000
VWidth: 0
HStem: -200 100<100 800 900 1000> 0 100<900 1000> 100 100<100 200 700 800> 200 100<900 1000> 300 100<100 200> 400 100<700 800 900 1000> 600 100<100 200 300 400 700 800 900 1000> 700 100<200 300 800 900>
VStem: 0 200<100 200 600 700> 0 100<-100 100 200 300 400 600 700 800> 200 100<700 800> 300 100<400 500> 400 100<500 600 700 800> 600 100<200 300 700 800> 800 100<-100 0 300 400 500 600 700 800> 900 100<0 100 600 700>
LayerCount: 2
Back
Fore
SplineSet
0 300 m 1xc84d
 0 800 l 1
 50 800 l 1
 100 800 l 1xc94d
 100 750 l 1
 100 700 l 1x824d
 150 700 l 1
 200 700 l 1x8284
 200 750 l 1
 200 800 l 1
 250 800 l 1
 300 800 l 1x8124
 300 750 l 1
 300 700 l 1
 350 700 l 1
 400 700 l 1x822c
 400 750 l 1
 400 800 l 1
 450 800 l 1
 500 800 l 1x812c
 500 650 l 1
 500 500 l 1
 650 500 l 1
 800 500 l 1
 800 550 l 1
 800 600 l 1
 700 600 l 1
 600 600 l 1x862e
 600 700 l 1
 600 800 l 1
 650 800 l 1
 700 800 l 1x812e
 700 750 l 1
 700 700 l 1
 750 700 l 1
 800 700 l 1x822e
 800 750 l 1
 800 800 l 1
 850 800 l 1
 900 800 l 1x812e
 900 750 l 1
 900 700 l 1x822e
 950 700 l 1
 1000 700 l 1
 1000 650 l 1
 1000 600 l 1x8205
 950 600 l 1
 900 600 l 1
 900 550 l 1
 900 500 l 1x8606
 950 500 l 1
 1000 500 l 1
 1000 450 l 1
 1000 400 l 1x8605
 950 400 l 1
 900 400 l 1
 900 350 l 1
 900 300 l 1x9606
 950 300 l 1
 1000 300 l 1
 1000 250 l 1
 1000 200 l 1
 950 200 l 1
 900 200 l 1
 900 150 l 1
 900 100 l 1
 950 100 l 1
 1000 100 l 1
 1000 50 l 1
 1000 0 l 1xd605
 950 0 l 1
 900 0 l 1
 900 -50 l 1
 900 -100 l 1xd606
 950 -100 l 1
 1000 -100 l 1
 1000 -150 l 1
 1000 -200 l 1
 500 -200 l 1
 0 -200 l 1
 0 300 l 1xc84d
300 650 m 1x8614
 300 700 l 1x8624
 250 700 l 1x8124
 200 700 l 1
 200 650 l 1
 200 600 l 1x8284
 150 600 l 1
 100 600 l 1
 100 500 l 1x8644
 100 400 l 1
 200 400 l 1x8864
 300 400 l 1
 300 450 l 1
 300 500 l 1
 350 500 l 1
 400 500 l 1
 400 450 l 1
 400 400 l 1x8414
 450 400 l 1
 500 400 l 1
 500 450 l 1
 500 500 l 1x840c
 450 500 l 1
 400 500 l 1x8414
 400 550 l 1
 400 600 l 1x860c
 350 600 l 1
 300 600 l 1
 300 650 l 1x8614
900 650 m 1x8205
 900 700 l 1x8206
 850 700 l 1x8106
 800 700 l 1
 800 650 l 1
 800 600 l 1
 850 600 l 1
 900 600 l 1x8206
 900 650 l 1x8205
800 300 m 1xa806
 800 400 l 1
 750 400 l 1
 700 400 l 1x8406
 700 300 l 1
 700 200 l 1
 750 200 l 1
 800 200 l 1
 800 300 l 1xa806
200 250 m 1xa024
 200 300 l 1
 150 300 l 1
 100 300 l 1
 100 250 l 1
 100 200 l 1xa864
 150 200 l 1
 200 200 l 1
 200 150 l 1
 200 100 l 1xa884
 150 100 l 1
 100 100 l 1xa844
 100 0 l 1
 100 -100 l 1
 450 -100 l 1
 800 -100 l 1
 800 -50 l 1
 800 0 l 1
 850 0 l 1
 900 0 l 1xc046
 900 50 l 1
 900 100 l 1xc005
 800 100 l 1
 700 100 l 1xa006
 700 50 l 1
 700 0 l 1
 550 0 l 1
 400 0 l 1xc00e
 400 50 l 1
 400 100 l 1xa00e
 350 100 l 1
 300 100 l 1xa014
 300 150 l 1
 300 200 l 1
 250 200 l 1x9014
 200 200 l 1xa094
 200 250 l 1xa024
600 250 m 1
 600 300 l 1
 550 300 l 1
 500 300 l 1x880c
 500 250 l 1
 500 200 l 1
 550 200 l 1
 600 200 l 1x900c
 600 250 l 1
EndSplineSet
Validated: 5
EndChar

StartChar: at
Encoding: 64 64 16
Width: 1000
VWidth: 0
HStem: -200 100<100 600 900 1000> 0 100<900 1000> 100 100<500 600> 200 100<700 800 900 1000> 300 100<100 200> 400 100<900 1000> 500 100<600 700 800 900> 600 100<100 200 300 400 900 1000> 700 100<200 300 600 700 800 900>
VStem: 0 200<300 400 600 700> 0 100<-100 300 400 600 700 800> 200 100<700 800> 300 100<200 300> 400 100<0 100 500 600 700 800> 600 100<300 400 700 800> 700 100<400 500> 800 100<100 200 700 800> 900 100<400 500 600 700>
LayerCount: 2
Back
Fore
SplineSet
600 750 m 1x8082
 600 800 l 1
 650 800 l 1
 700 800 l 1
 700 750 l 1
 700 700 l 1
 650 700 l 1
 600 700 l 1
 600 750 l 1x8082
0 300 m 1xc840
 0 800 l 1
 50 800 l 1
 100 800 l 1xc8a0
 100 750 l 1
 100 700 l 1x8120
 150 700 l 1
 200 700 l 1x8140
 200 750 l 1
 200 800 l 1
 250 800 l 1
 300 800 l 1x8090
 300 750 l 1
 300 700 l 1
 350 700 l 1
 400 700 l 1x8114
 400 750 l 1
 400 800 l 1
 450 800 l 1
 500 800 l 1
 500 550 l 1
 500 300 l 1x8894
 450 300 l 1
 400 300 l 1x8888
 400 250 l 1
 400 200 l 1x9008
 500 200 l 1
 600 200 l 1
 600 300 l 1xa806
 600 400 l 1
 650 400 l 1
 700 400 l 1x8406
 700 450 l 1
 700 500 l 1x8201
 650 500 l 1
 600 500 l 1
 600 550 l 1
 600 600 l 1x8202
 750 600 l 1x8102
 900 600 l 1
 900 650 l 1x820240
 900 700 l 1x810080
 850 700 l 1
 800 700 l 1
 800 750 l 1
 800 800 l 1
 850 800 l 1
 900 800 l 1x808080
 900 750 l 1
 900 700 l 1x810080
 950 700 l 1
 1000 700 l 1
 1000 650 l 1
 1000 600 l 1
 950 600 l 1x810040
 900 600 l 1x820040
 900 550 l 1
 900 500 l 1
 950 500 l 1
 1000 500 l 1
 1000 450 l 1
 1000 400 l 1
 950 400 l 1
 900 400 l 1
 900 450 l 1
 900 500 l 1x840040
 850 500 l 1
 800 500 l 1x820140
 800 450 l 1
 800 400 l 1x840140
 750 400 l 1
 700 400 l 1
 700 350 l 1
 700 300 l 1x9402
 850 300 l 1x8802
 1000 300 l 1
 1000 250 l 1
 1000 200 l 1x900240
 950 200 l 1
 900 200 l 1
 900 150 l 1
 900 100 l 1xd00080
 950 100 l 1
 1000 100 l 1
 1000 50 l 1
 1000 0 l 1
 950 0 l 1
 900 0 l 1
 900 -50 l 1
 900 -100 l 1
 950 -100 l 1
 1000 -100 l 1
 1000 -150 l 1
 1000 -200 l 1
 500 -200 l 1
 0 -200 l 1xd02440
 0 300 l 1xc840
300 650 m 1x8108
 300 700 l 1x8110
 250 700 l 1x8090
 200 700 l 1
 200 650 l 1
 200 600 l 1x8140
 150 600 l 1
 100 600 l 1x8120
 100 500 l 1
 100 400 l 1x8a20
 150 400 l 1
 200 400 l 1
 200 350 l 1
 200 300 l 1x8a40
 150 300 l 1
 100 300 l 1
 100 100 l 1xaa20
 100 -100 l 1
 350 -100 l 1
 600 -100 l 1
 600 -50 l 1
 600 0 l 1xc022
 650 0 l 1
 700 0 l 1xc001
 700 50 l 1
 700 100 l 1xa001
 750 100 l 1
 800 100 l 1xa00080
 800 150 l 1
 800 200 l 1x900080
 750 200 l 1
 700 200 l 1x9001
 700 150 l 1
 700 100 l 1xa001
 600 100 l 1
 500 100 l 1xa006
 500 50 l 1
 500 0 l 1
 450 0 l 1
 400 0 l 1xc006
 400 100 l 1xa006
 400 200 l 1
 350 200 l 1
 300 200 l 1
 300 350 l 1
 300 500 l 1x9208
 350 500 l 1
 400 500 l 1x9204
 400 550 l 1
 400 600 l 1x8104
 350 600 l 1
 300 600 l 1
 300 650 l 1x8108
EndSplineSet
Validated: 5
EndChar

StartChar: A
Encoding: 65 65 17
Width: 1000
VWidth: 0
HStem: -200 100<100 800 900 1000> 0 100<200 300 400 500 900 1000> 100 100<700 900> 200 100<100 200 300 500 900 1000> 300 100<800 900> 400 100<300 500 900 1000> 500 100<600 700 800 900> 600 100<100 200 300 400 900 1000> 700 100<200 300 600 700 800 900>
VStem: 0 100<-100 200 300 600 700 800> 200 100<0 100 300 400 700 800> 300 200<400 500 600 700> 400 100<700 800> 600 100<700 800> 700 100<400 500 600 700> 800 100<-100 0 700 800> 900 100<0 100 200 300 400 500 600 700>
LayerCount: 2
Back
Fore
SplineSet
200 50 m 1xc060
 200 100 l 1
 250 100 l 1
 300 100 l 1
 300 50 l 1
 300 0 l 1
 250 0 l 1
 200 0 l 1
 200 50 l 1xc060
0 300 m 1xc84880
 0 800 l 1
 50 800 l 1
 100 800 l 1xc8c880
 100 750 l 1
 100 700 l 1
 150 700 l 1
 200 700 l 1x816880
 200 750 l 1
 200 800 l 1
 250 800 l 1
 300 800 l 1x80e880
 300 750 l 1
 300 700 l 1
 350 700 l 1
 400 700 l 1x816880
 400 750 l 1
 400 800 l 1
 450 800 l 1
 500 800 l 1x80e880
 500 700 l 1x80d0
 500 600 l 1x8150
 400 600 l 1x8148
 300 600 l 1
 300 650 l 1x8150
 300 700 l 1x8160
 250 700 l 1x80e0
 200 700 l 1
 200 650 l 1
 200 600 l 1
 150 600 l 1
 100 600 l 1
 100 450 l 1
 100 300 l 1
 150 300 l 1
 200 300 l 1
 200 350 l 1
 200 400 l 1
 250 400 l 1
 300 400 l 1x9560
 300 450 l 1
 300 500 l 1x9550
 400 500 l 1x9548
 500 500 l 1
 500 450 l 1
 500 400 l 1x9550
 400 400 l 1
 300 400 l 1
 300 350 l 1
 300 300 l 1
 400 300 l 1
 500 300 l 1
 500 250 l 1
 500 200 l 1x9568
 700 200 l 1
 900 200 l 1xa06a80
 900 250 l 1
 900 300 l 1x906a80
 800 300 l 1x8841
 700 300 l 1x8842
 700 400 l 1x8442
 700 500 l 1x8242
 650 500 l 1
 600 500 l 1
 600 550 l 1
 600 600 l 1x8244
 650 600 l 1
 700 600 l 1
 700 650 l 1x8242
 700 700 l 1
 650 700 l 1
 600 700 l 1
 600 750 l 1
 600 800 l 1
 650 800 l 1
 700 800 l 1
 700 750 l 1
 700 700 l 1x82c4
 750 700 l 1
 800 700 l 1x82c2
 800 750 l 1
 800 800 l 1
 850 800 l 1
 900 800 l 1x82c1
 900 750 l 1
 900 700 l 1x8141
 950 700 l 1
 1000 700 l 1
 1000 650 l 1
 1000 600 l 1
 950 600 l 1x814080
 900 600 l 1x824080
 900 550 l 1
 900 500 l 1
 950 500 l 1
 1000 500 l 1
 1000 450 l 1
 1000 400 l 1
 950 400 l 1x844080
 900 400 l 1x884080
 900 350 l 1
 900 300 l 1
 950 300 l 1
 1000 300 l 1
 1000 250 l 1
 1000 200 l 1
 950 200 l 1x904080
 900 200 l 1xa04080
 900 150 l 1
 900 100 l 1
 950 100 l 1
 1000 100 l 1
 1000 50 l 1
 1000 0 l 1xc04080
 950 0 l 1
 900 0 l 1
 900 -50 l 1
 900 -100 l 1xc041
 950 -100 l 1
 1000 -100 l 1
 1000 -150 l 1
 1000 -200 l 1
 500 -200 l 1
 0 -200 l 1
 0 300 l 1xc84880
900 650 m 1
 900 700 l 1x8141
 850 700 l 1
 800 700 l 1
 800 650 l 1
 800 600 l 1
 850 600 l 1
 900 600 l 1x82c280
 900 650 l 1
900 450 m 1x8a4280
 900 500 l 1x844280
 850 500 l 1
 800 500 l 1
 800 450 l 1
 800 400 l 1
 850 400 l 1
 900 400 l 1
 900 450 l 1x8a4280
500 150 m 1xc04a
 500 200 l 1xd04a
 300 200 l 1
 100 200 l 1
 100 50 l 1
 100 -100 l 1
 450 -100 l 1
 800 -100 l 1
 800 -50 l 1
 800 0 l 1
 850 0 l 1
 900 0 l 1xd051
 900 50 l 1
 900 100 l 1xd04080
 800 100 l 1xa041
 700 100 l 1xa042
 700 50 l 1
 700 0 l 1
 550 0 l 1
 400 0 l 1
 400 50 l 1
 400 100 l 1
 450 100 l 1
 500 100 l 1
 500 150 l 1xc04a
EndSplineSet
Validated: 5
EndChar

StartChar: B
Encoding: 66 66 18
Width: 1000
VWidth: 0
HStem: -200 100<100 200 300 1000> 0 100<500 600 800 1000> 100 100<600 800> 200 200<500 600 800 900> 200 100<300 400 900 1000> 400 100<300 400 900 1000> 500 100<500 600 800 900> 600 100<100 200 300 400 700 800 900 1000> 700 100<200 300 800 900>
VStem: 0 200<0 100 600 700> 0 100<-100 0 200 600 700 800> 200 100<-100 0 300 400 700 800> 300 200<400 500 600 700> 400 100<100 200 700 800> 500 100<200 300> 600 200<100 200 400 500 600 700> 600 100<700 800> 800 100<500 600 700 800> 900 100<400 500 600 700>
LayerCount: 2
Back
Fore
SplineSet
0 300 m 1xc83220
 0 800 l 1
 50 800 l 1
 100 800 l 1xc8b220
 100 750 l 1
 100 700 l 1x813220
 150 700 l 1
 200 700 l 1x8140
 200 750 l 1
 200 800 l 1
 250 800 l 1
 300 800 l 1x8090
 300 750 l 1
 300 700 l 1
 350 700 l 1
 400 700 l 1x8114
 400 750 l 1
 400 800 l 1
 450 800 l 1
 500 800 l 1x8094
 500 700 l 1
 500 600 l 1
 550 600 l 1
 600 600 l 1
 600 700 l 1x8289
 600 800 l 1
 650 800 l 1
 700 800 l 1x828080
 700 750 l 1
 700 700 l 1x810080
 750 700 l 1
 800 700 l 1x8101
 800 750 l 1
 800 800 l 1
 850 800 l 1
 900 800 l 1x808040
 900 750 l 1
 900 700 l 1x810040
 950 700 l 1
 1000 700 l 1
 1000 650 l 1
 1000 600 l 1
 950 600 l 1x810020
 900 600 l 1x820040
 900 550 l 1
 900 500 l 1x840040
 950 500 l 1
 1000 500 l 1
 1000 450 l 1
 1000 400 l 1
 950 400 l 1x840020
 900 400 l 1x900020
 900 350 l 1
 900 300 l 1
 950 300 l 1
 1000 300 l 1
 1000 250 l 1
 1000 200 l 1x880020
 900 200 l 1x900020
 800 200 l 1xa00120
 800 150 l 1
 800 100 l 1
 900 100 l 1
 1000 100 l 1
 1000 50 l 1
 1000 0 l 1
 900 0 l 1xc00120
 800 0 l 1
 800 50 l 1xc00040
 800 100 l 1xc001
 700 100 l 1xa00080
 600 100 l 1xc001
 600 50 l 1
 600 0 l 1xc00080
 500 0 l 1xc002
 400 0 l 1xc004
 400 100 l 1xa004
 400 200 l 1x8804
 350 200 l 1
 300 200 l 1x8808
 300 150 l 1
 300 100 l 1
 250 100 l 1
 200 100 l 1xa048
 200 50 l 1
 200 0 l 1xc048
 250 0 l 1
 300 0 l 1
 300 -50 l 1
 300 -100 l 1
 650 -100 l 1
 1000 -100 l 1
 1000 -150 l 1
 1000 -200 l 1
 500 -200 l 1
 0 -200 l 1
 0 300 l 1xc83220
300 650 m 1x8d08
 300 700 l 1x8d10
 250 700 l 1x8090
 200 700 l 1
 200 650 l 1
 200 600 l 1x8140
 150 600 l 1
 100 600 l 1
 100 400 l 1
 100 200 l 1
 150 200 l 1
 200 200 l 1
 200 300 l 1
 200 400 l 1
 250 400 l 1
 300 400 l 1
 300 350 l 1
 300 300 l 1
 350 300 l 1
 400 300 l 1
 400 250 l 1
 400 200 l 1
 450 200 l 1x8d34
 500 200 l 1
 500 150 l 1
 500 100 l 1
 550 100 l 1
 600 100 l 1
 600 150 l 1xd035
 600 200 l 1xa002
 700 200 l 1xa00080
 800 200 l 1xa001
 800 250 l 1
 800 300 l 1
 700 300 l 1x8800c0
 600 300 l 1x8802
 600 250 l 1
 600 200 l 1xa002
 550 200 l 1
 500 200 l 1x9004
 500 250 l 1
 500 300 l 1x8802
 450 300 l 1
 400 300 l 1
 400 350 l 1
 400 400 l 1
 350 400 l 1
 300 400 l 1x8c14
 300 450 l 1
 300 500 l 1x8c08
 350 500 l 1
 400 500 l 1
 400 550 l 1
 400 600 l 1x8d04
 350 600 l 1
 300 600 l 1
 300 650 l 1x8d08
900 650 m 1x820020
 900 700 l 1x810040
 850 700 l 1x808040
 800 700 l 1x8101
 800 650 l 1
 800 600 l 1x8201
 750 600 l 1
 700 600 l 1x810080
 700 550 l 1
 700 500 l 1x820080
 750 500 l 1
 800 500 l 1
 800 450 l 1
 800 400 l 1
 850 400 l 1
 900 400 l 1
 900 450 l 1x920120
 900 500 l 1x840040
 850 500 l 1
 800 500 l 1x8201
 800 550 l 1x820040
 800 600 l 1x8201
 850 600 l 1
 900 600 l 1x820040
 900 650 l 1x820020
600 450 m 1x9209
 600 500 l 1
 550 500 l 1
 500 500 l 1
 500 450 l 1
 500 400 l 1
 550 400 l 1
 600 400 l 1
 600 450 l 1x9209
200 -50 m 1xc030
 200 0 l 1xc040
 150 0 l 1
 100 0 l 1
 100 -50 l 1
 100 -100 l 1
 150 -100 l 1
 200 -100 l 1
 200 -50 l 1xc030
EndSplineSet
Validated: 5
EndChar

StartChar: C
Encoding: 67 67 19
Width: 1000
VWidth: 0
HStem: -200 100<100 200 300 1000> 0 100<900 1000> 100 100<200 300 600 700> 200 100<900 1000> 300 100<500 600> 400 100<600 700 900 1000> 600 100<100 200 300 400 900 1000> 700 100<200 300>
VStem: 0 200<200 300 600 700> 0 100<-100 100 300 600 700 800> 200 100<-100 0 700 800> 300 100<200 400> 400 100<0 200 500 600 700 800> 500 100<300 400> 600 100<600 800> 700 100<0 100> 800 100<700 800> 900 100<0 100 400 500>
LayerCount: 2
Back
Fore
SplineSet
0 300 m 1xc880
 0 800 l 1
 50 800 l 1
 100 800 l 1xc940
 100 750 l 1
 100 700 l 1x8240
 150 700 l 1
 200 700 l 1x8280
 200 750 l 1
 200 800 l 1
 250 800 l 1
 300 800 l 1x8120
 300 750 l 1
 300 700 l 1
 350 700 l 1
 400 700 l 1x8228
 400 750 l 1
 400 800 l 1
 450 800 l 1
 500 800 l 1x8128
 500 600 l 1x8228
 500 400 l 1
 550 400 l 1
 600 400 l 1x8a04
 600 450 l 1
 600 500 l 1x8402
 650 500 l 1
 700 500 l 1
 700 550 l 1x8401
 700 600 l 1
 650 600 l 1
 600 600 l 1x8602
 600 700 l 1
 600 800 l 1
 650 800 l 1
 700 800 l 1
 700 700 l 1x8102
 700 600 l 1
 750 600 l 1
 800 600 l 1x820280
 800 700 l 1
 800 800 l 1
 850 800 l 1
 900 800 l 1x810280
 900 750 l 1
 900 700 l 1x820280
 950 700 l 1
 1000 700 l 1
 1000 650 l 1
 1000 600 l 1
 950 600 l 1
 900 600 l 1
 900 550 l 1
 900 500 l 1
 950 500 l 1
 1000 500 l 1
 1000 450 l 1
 1000 400 l 1
 950 400 l 1
 900 400 l 1
 900 350 l 1
 900 300 l 1
 950 300 l 1
 1000 300 l 1
 1000 250 l 1
 1000 200 l 1
 950 200 l 1
 900 200 l 1
 900 150 l 1
 900 100 l 1
 950 100 l 1
 1000 100 l 1
 1000 50 l 1
 1000 0 l 1
 950 0 l 1
 900 0 l 1
 900 50 l 1
 900 100 l 1xd60040
 850 100 l 1
 800 100 l 1xa00140
 800 50 l 1
 800 0 l 1
 750 0 l 1
 700 0 l 1xc00140
 700 50 l 1
 700 100 l 1xa00140
 650 100 l 1
 600 100 l 1
 600 150 l 1
 600 200 l 1xa002
 700 200 l 1xa001
 800 200 l 1x900080
 800 250 l 1
 800 300 l 1x880080
 750 300 l 1
 700 300 l 1x8801
 700 350 l 1
 700 400 l 1
 650 400 l 1x8401
 600 400 l 1
 600 350 l 1
 600 300 l 1
 550 300 l 1
 500 300 l 1
 500 350 l 1
 500 400 l 1x8805
 450 400 l 1
 400 400 l 1x8415
 400 300 l 1x8815
 400 200 l 1x9015
 450 200 l 1
 500 200 l 1x9008
 500 100 l 1xa008
 500 0 l 1
 450 0 l 1
 400 0 l 1xc008
 400 100 l 1xa008
 400 200 l 1
 350 200 l 1x9010
 300 200 l 1
 300 150 l 1
 300 100 l 1xa010
 200 100 l 1
 100 100 l 1xa060
 100 0 l 1
 100 -100 l 1
 150 -100 l 1
 200 -100 l 1
 200 -50 l 1
 200 0 l 1
 250 0 l 1
 300 0 l 1
 300 -50 l 1
 300 -100 l 1
 650 -100 l 1
 1000 -100 l 1
 1000 -150 l 1
 1000 -200 l 1
 500 -200 l 1
 0 -200 l 1xc06440
 0 300 l 1xc880
300 650 m 1xa610
 300 700 l 1xa620
 250 700 l 1x8120
 200 700 l 1
 200 650 l 1
 200 600 l 1x8280
 150 600 l 1
 100 600 l 1
 100 450 l 1
 100 300 l 1x8a40
 150 300 l 1
 200 300 l 1x8a80
 200 250 l 1
 200 200 l 1
 250 200 l 1
 300 200 l 1
 300 350 l 1
 300 500 l 1xa490
 350 500 l 1
 400 500 l 1
 400 550 l 1
 400 600 l 1xa608
 350 600 l 1
 300 600 l 1
 300 650 l 1xa610
900 450 m 1x840040
 900 500 l 1x840040
 850 500 l 1
 800 500 l 1
 800 450 l 1
 800 400 l 1x840080
 850 400 l 1
 900 400 l 1
 900 450 l 1x840040
EndSplineSet
Validated: 5
EndChar

StartChar: D
Encoding: 68 68 20
Width: 1000
VWidth: 0
HStem: -200 100<200 700 900 1000> 0 100<900 1000> 100 100<300 400> 200 100<900 1000> 300 100<800 900> 400 100<300 400 600 700 900 1000> 500 100<800 900> 600 100<100 200 300 400 700 800 900 1000> 700 100<200 300 800 900>
VStem: 0 200<-100 0 600 700> 0 100<0 600 700 800> 200 100<200 400 700 800> 300 100<400 500> 400 100<300 400 700 800> 500 100<500 600> 600 100<700 800> 700 200<-100 0 300 400> 800 100<100 200 500 600 700 800> 900 100<200 300 400 500 600 700>
LayerCount: 2
Back
Fore
SplineSet
300 450 m 1x8408
 300 500 l 1
 350 500 l 1
 400 500 l 1
 400 450 l 1
 400 400 l 1x8408
 350 400 l 1
 300 400 l 1x8410
 300 450 l 1x8408
0 300 m 1xc82220
 0 800 l 1
 50 800 l 1
 100 800 l 1xc8a220
 100 750 l 1
 100 700 l 1x812220
 150 700 l 1
 200 700 l 1x8140
 200 750 l 1
 200 800 l 1
 250 800 l 1
 300 800 l 1x8090
 300 750 l 1
 300 700 l 1
 350 700 l 1
 400 700 l 1x8114
 400 750 l 1
 400 800 l 1
 450 800 l 1
 500 800 l 1
 500 700 l 1x8094
 500 600 l 1
 550 600 l 1
 600 600 l 1x8102
 600 700 l 1
 600 800 l 1
 650 800 l 1
 700 800 l 1x8081
 700 750 l 1
 700 700 l 1
 750 700 l 1
 800 700 l 1x810140
 800 750 l 1
 800 800 l 1
 850 800 l 1
 900 800 l 1x808140
 900 750 l 1
 900 700 l 1x810140
 950 700 l 1
 1000 700 l 1
 1000 650 l 1
 1000 600 l 1
 950 600 l 1x810020
 900 600 l 1x820040
 900 550 l 1
 900 500 l 1x840040
 950 500 l 1
 1000 500 l 1
 1000 450 l 1
 1000 400 l 1
 950 400 l 1x840020
 900 400 l 1x880080
 900 350 l 1
 900 300 l 1x900080
 950 300 l 1
 1000 300 l 1
 1000 250 l 1
 1000 200 l 1x900020
 950 200 l 1
 900 200 l 1
 900 150 l 1
 900 100 l 1xd00040
 950 100 l 1
 1000 100 l 1
 1000 50 l 1
 1000 0 l 1xd00020
 950 0 l 1
 900 0 l 1
 900 -50 l 1
 900 -100 l 1xd00080
 950 -100 l 1
 1000 -100 l 1
 1000 -150 l 1
 1000 -200 l 1
 500 -200 l 1
 0 -200 l 1
 0 300 l 1xc82220
300 650 m 1x8108
 300 700 l 1x8110
 250 700 l 1x8090
 200 700 l 1
 200 650 l 1
 200 600 l 1x8140
 150 600 l 1
 100 600 l 1
 100 300 l 1
 100 0 l 1xc920
 150 0 l 1
 200 0 l 1
 200 -50 l 1
 200 -100 l 1
 450 -100 l 1
 700 -100 l 1
 700 0 l 1xc94080
 700 100 l 1xa04080
 750 100 l 1
 800 100 l 1xa00040
 800 150 l 1
 800 200 l 1
 850 200 l 1
 900 200 l 1x900040
 900 250 l 1x900020
 900 300 l 1x900080
 850 300 l 1
 800 300 l 1x880040
 800 250 l 1
 800 200 l 1x900040
 750 200 l 1
 700 200 l 1x900080
 700 150 l 1
 700 100 l 1xa00080
 650 100 l 1
 600 100 l 1xa001
 600 50 l 1
 600 0 l 1xc001
 500 0 l 1xc002
 400 0 l 1xc004
 400 50 l 1
 400 100 l 1xa004
 300 100 l 1xa008
 200 100 l 1
 200 250 l 1
 200 400 l 1
 250 400 l 1
 300 400 l 1xa410
 300 300 l 1
 300 200 l 1
 350 200 l 1
 400 200 l 1
 400 300 l 1xa814
 400 400 l 1x8408
 450 400 l 1
 500 400 l 1x8404
 500 350 l 1
 500 300 l 1
 600 300 l 1x8805
 700 300 l 1x880080
 700 350 l 1
 700 400 l 1x840080
 600 400 l 1
 500 400 l 1x8405
 500 500 l 1x8202
 500 600 l 1x8102
 400 600 l 1x8104
 300 600 l 1
 300 650 l 1x8108
900 650 m 1x820020
 900 700 l 1x810040
 850 700 l 1x808040
 800 700 l 1x810040
 800 650 l 1
 800 600 l 1x820040
 700 600 l 1
 600 600 l 1
 600 550 l 1
 600 500 l 1
 700 500 l 1x850280
 800 500 l 1
 800 450 l 1
 800 400 l 1x8a0040
 850 400 l 1
 900 400 l 1x8a0080
 900 450 l 1x8a0020
 900 500 l 1x840040
 850 500 l 1
 800 500 l 1
 800 550 l 1
 800 600 l 1
 850 600 l 1
 900 600 l 1x820040
 900 650 l 1x820020
EndSplineSet
Validated: 5
EndChar

StartChar: E
Encoding: 69 69 21
Width: 1000
VWidth: 0
HStem: -200 200<700 900> -200 100<200 700 900 1000> 0 100<900 1000> 100 100<200 400 500 600> 200 100<100 200 900 1000> 300 100<800 900> 400 100<500 600 900 1000> 600 100<100 200 300 400 900 1000> 700 100<200 300>
VStem: 0 200<-100 100 200 300 600 700> 0 100<100 200 300 600 700 800> 200 100<700 800> 300 100<300 500> 400 100<0 100 200 300 700 800> 600 100<600 800> 800 100<700 800> 900 100<0 100 200 300 400 500>
LayerCount: 2
Back
Fore
SplineSet
0 300 m 1x4442
 0 800 l 1
 50 800 l 1
 100 800 l 1x44a2
 100 750 l 1
 100 700 l 1x0122
 150 700 l 1
 200 700 l 1x0142
 200 750 l 1
 200 800 l 1
 250 800 l 1
 300 800 l 1x0092
 300 750 l 1
 300 700 l 1
 350 700 l 1
 400 700 l 1x0116
 400 750 l 1
 400 800 l 1
 450 800 l 1
 500 800 l 1
 500 700 l 1x0096
 500 600 l 1
 400 600 l 1x0116
 300 600 l 1
 300 650 l 1x010a
 300 700 l 1x0112
 250 700 l 1x0092
 200 700 l 1
 200 650 l 1
 200 600 l 1x0142
 150 600 l 1
 100 600 l 1
 100 450 l 1
 100 300 l 1x0922
 150 300 l 1
 200 300 l 1x0942
 200 250 l 1
 200 200 l 1
 300 200 l 1x104a
 400 200 l 1
 400 250 l 1x1006
 400 300 l 1
 350 300 l 1
 300 300 l 1x140a
 300 400 l 1
 300 500 l 1
 350 500 l 1
 400 500 l 1
 400 400 l 1x020a
 400 300 l 1x040a
 450 300 l 1
 500 300 l 1
 500 250 l 1
 500 200 l 1
 550 200 l 1
 600 200 l 1
 600 300 l 1x1406
 600 400 l 1
 550 400 l 1
 500 400 l 1
 500 450 l 1
 500 500 l 1
 550 500 l 1
 600 500 l 1
 600 650 l 1
 600 800 l 1
 650 800 l 1
 700 800 l 1
 700 700 l 1x0286
 700 600 l 1
 750 600 l 1
 800 600 l 1x0107
 800 700 l 1
 800 800 l 1
 850 800 l 1
 900 800 l 1x0087
 900 750 l 1
 900 700 l 1x0107
 950 700 l 1
 1000 700 l 1
 1000 650 l 1
 1000 600 l 1
 950 600 l 1
 900 600 l 1
 900 550 l 1
 900 500 l 1
 950 500 l 1
 1000 500 l 1
 1000 450 l 1
 1000 400 l 1
 950 400 l 1x030280
 900 400 l 1x040280
 900 350 l 1
 900 300 l 1
 950 300 l 1
 1000 300 l 1
 1000 250 l 1
 1000 200 l 1
 950 200 l 1
 900 200 l 1
 900 250 l 1
 900 300 l 1x080280
 850 300 l 1
 800 300 l 1x0403
 800 250 l 1
 800 200 l 1
 750 200 l 1
 700 200 l 1x0803
 700 150 l 1
 700 100 l 1
 600 100 l 1
 500 100 l 1x1007
 500 50 l 1
 500 0 l 1
 450 0 l 1
 400 0 l 1x2007
 400 50 l 1
 400 100 l 1x1007
 300 100 l 1
 200 100 l 1x104a
 200 0 l 1
 200 -100 l 1
 450 -100 l 1
 700 -100 l 1x604a
 700 -50 l 1
 700 0 l 1
 800 0 l 1x804b
 900 0 l 1x800280
 900 50 l 1
 900 100 l 1
 950 100 l 1
 1000 100 l 1
 1000 50 l 1
 1000 0 l 1
 950 0 l 1x200280
 900 0 l 1x800280
 900 -50 l 1
 900 -100 l 1
 950 -100 l 1
 1000 -100 l 1
 1000 -150 l 1
 1000 -200 l 1
 500 -200 l 1
 0 -200 l 1x402680
 0 300 l 1x4442
900 450 m 1x040280
 900 500 l 1x020280
 850 500 l 1
 800 500 l 1x0203
 800 450 l 1
 800 400 l 1x0403
 850 400 l 1
 900 400 l 1
 900 450 l 1x040280
200 150 m 1x1012
 200 200 l 1x1042
 150 200 l 1
 100 200 l 1x0822
 100 150 l 1
 100 100 l 1x1022
 150 100 l 1
 200 100 l 1x1042
 200 150 l 1x1012
EndSplineSet
Validated: 5
EndChar

StartChar: F
Encoding: 70 70 22
Width: 1000
VWidth: 0
HStem: -200 200<100 200 700 800> -200 100<300 700 800 1000> 0 100<400 500 900 1000> 100 100<100 200 300 400> 200 100<900 1000> 300 100<400 500> 400 100<900 1000> 500 100<600 700> 600 100<100 200 300 400 900 1000> 700 100<200 300 600 700>
VStem: 0 200<100 200 600 700> 0 100<0 100 200 600 700 800> 200 100<0 100 700 800> 300 100<100 200 400 500> 400 100<0 100 700 800> 500 100<400 500> 600 100<0 200 700 800> 700 100<-100 0 400 500> 800 100<100 200 500 600 700 800> 900 100<400 500>
LayerCount: 2
Back
Fore
SplineSet
300 150 m 1x1004
 300 200 l 1
 350 200 l 1
 400 200 l 1x1004
 400 150 l 1
 400 100 l 1x2004
 450 100 l 1
 500 100 l 1
 500 50 l 1
 500 0 l 1
 450 0 l 1
 400 0 l 1
 400 50 l 1x2002
 400 100 l 1x2004
 350 100 l 1
 300 100 l 1x1008
 300 150 l 1x1004
600 750 m 1x004080
 600 800 l 1
 650 800 l 1
 700 800 l 1
 700 750 l 1
 700 700 l 1
 650 700 l 1
 600 700 l 1
 600 750 l 1x004080
0 300 m 1x441150
 0 800 l 1
 50 800 l 1
 100 800 l 1x445150
 100 750 l 1
 100 700 l 1x009150
 150 700 l 1
 200 700 l 1x00a0
 200 750 l 1
 200 800 l 1
 250 800 l 1
 300 800 l 1x0048
 300 750 l 1
 300 700 l 1
 350 700 l 1
 400 700 l 1x008a
 400 750 l 1
 400 800 l 1
 450 800 l 1
 500 800 l 1
 500 700 l 1x004a
 500 600 l 1x0081
 600 600 l 1x010080
 700 600 l 1
 700 550 l 1
 700 500 l 1
 750 500 l 1
 800 500 l 1x010040
 800 650 l 1
 800 800 l 1
 850 800 l 1
 900 800 l 1x014020
 900 750 l 1
 900 700 l 1x008020
 950 700 l 1
 1000 700 l 1
 1000 650 l 1
 1000 600 l 1x008010
 950 600 l 1
 900 600 l 1
 900 550 l 1
 900 500 l 1x028020
 950 500 l 1
 1000 500 l 1
 1000 450 l 1
 1000 400 l 1
 950 400 l 1
 900 400 l 1
 900 350 l 1
 900 300 l 1
 950 300 l 1
 1000 300 l 1
 1000 250 l 1
 1000 200 l 1x0a8010
 950 200 l 1
 900 200 l 1
 900 150 l 1
 900 100 l 1x2a8020
 950 100 l 1
 1000 100 l 1
 1000 50 l 1
 1000 0 l 1
 900 0 l 1x2a8010
 800 0 l 1x800050
 800 -50 l 1
 800 -100 l 1
 900 -100 l 1
 1000 -100 l 1
 1000 -150 l 1
 1000 -200 l 1
 500 -200 l 1
 0 -200 l 1
 0 300 l 1x441150
300 650 m 1x0084
 300 700 l 1x0088
 250 700 l 1x0048
 200 700 l 1
 200 650 l 1
 200 600 l 1x00a0
 150 600 l 1
 100 600 l 1
 100 400 l 1
 100 200 l 1x1290
 150 200 l 1
 200 200 l 1
 200 150 l 1
 200 100 l 1x12a0
 150 100 l 1
 100 100 l 1
 100 50 l 1
 100 0 l 1
 150 0 l 1
 200 0 l 1
 200 50 l 1x9298
 200 100 l 1x92a0
 250 100 l 1
 300 100 l 1x9288
 300 0 l 1x2008
 300 -100 l 1
 500 -100 l 1
 700 -100 l 1
 700 -50 l 1x600540
 700 0 l 1x800080
 750 0 l 1
 800 0 l 1x800040
 800 100 l 1x900020
 800 200 l 1
 750 200 l 1
 700 200 l 1x0800a0
 700 100 l 1
 700 0 l 1x9000a0
 650 0 l 1
 600 0 l 1x2000a0
 600 100 l 1x1000a0
 600 200 l 1x0800a0
 550 200 l 1
 500 200 l 1x0801
 500 250 l 1
 500 300 l 1x0401
 400 300 l 1x0402
 300 300 l 1x0404
 300 400 l 1x0204
 300 500 l 1
 350 500 l 1
 400 500 l 1
 400 450 l 1
 400 400 l 1
 450 400 l 1
 500 400 l 1
 500 450 l 1
 500 500 l 1
 450 500 l 1
 400 500 l 1x0505
 400 550 l 1
 400 600 l 1x0082
 350 600 l 1
 300 600 l 1
 300 650 l 1x0084
700 400 m 1x020040
 700 500 l 1
 650 500 l 1
 600 500 l 1x010140
 600 400 l 1x020140
 600 300 l 1x040080
 650 300 l 1
 700 300 l 1x040040
 700 400 l 1x020040
900 450 m 1x020050
 900 500 l 1x020020
 850 500 l 1
 800 500 l 1x010040
 800 450 l 1
 800 400 l 1
 850 400 l 1
 900 400 l 1
 900 450 l 1x020050
EndSplineSet
Validated: 5
EndChar

StartChar: G
Encoding: 71 71 23
Width: 1000
VWidth: 0
HStem: -200 100<300 700 800 1000> 0 100<400 600 900 1000> 100 100<300 400> 200 200<200 300 800 900> 200 100<900 1000> 400 100<300 400 900 1000> 500 100<800 900> 600 100<100 200 300 400 900 1000> 700 100<200 300 600 700 800 900>
VStem: 0 200<100 200 600 700> 0 100<300 600 700 800> 200 100<300 400 700 800> 300 100<100 200 400 500> 400 100<500 600 700 800> 500 100<400 500> 600 100<100 200 700 800> 700 100<-100 0 400 500 600 700> 800 100<700 800> 900 100<0 100 400 500 600 700>
LayerCount: 2
Back
Fore
SplineSet
300 150 m 1xa008
 300 200 l 1
 350 200 l 1
 400 200 l 1xa008
 400 150 l 1
 400 100 l 1xc008
 350 100 l 1
 300 100 l 1
 300 150 l 1xa008
300 450 m 1
 300 500 l 1
 350 500 l 1
 400 500 l 1
 400 450 l 1
 400 400 l 1
 350 400 l 1x8408
 300 400 l 1x9010
 300 450 l 1
900 50 m 1xc00020
 900 100 l 1
 950 100 l 1
 1000 100 l 1
 1000 50 l 1
 1000 0 l 1
 950 0 l 1
 900 0 l 1
 900 50 l 1xc00020
0 300 m 1xc822a0
 0 800 l 1
 50 800 l 1
 100 800 l 1xc8a2a0
 100 750 l 1
 100 700 l 1x8122a0
 150 700 l 1
 200 700 l 1x8140
 200 750 l 1
 200 800 l 1
 250 800 l 1
 300 800 l 1x8090
 300 750 l 1
 300 700 l 1
 350 700 l 1
 400 700 l 1x8114
 400 750 l 1
 400 800 l 1
 450 800 l 1
 500 800 l 1x8094
 500 650 l 1x8082
 500 500 l 1x8284
 550 500 l 1
 600 500 l 1x8282
 600 450 l 1
 600 400 l 1
 650 400 l 1
 700 400 l 1
 700 550 l 1x840280
 700 700 l 1
 650 700 l 1
 600 700 l 1
 600 750 l 1
 600 800 l 1
 650 800 l 1
 700 800 l 1
 700 750 l 1
 700 700 l 1x8481
 750 700 l 1
 800 700 l 1x848080
 800 750 l 1
 800 800 l 1
 850 800 l 1
 900 800 l 1x848040
 900 750 l 1
 900 700 l 1x810040
 950 700 l 1
 1000 700 l 1
 1000 650 l 1
 1000 600 l 1
 950 600 l 1x810020
 900 600 l 1x820020
 900 550 l 1
 900 500 l 1
 950 500 l 1
 1000 500 l 1
 1000 450 l 1
 1000 400 l 1
 950 400 l 1x840020
 900 400 l 1x900020
 900 350 l 1
 900 300 l 1
 950 300 l 1
 1000 300 l 1
 1000 250 l 1
 1000 200 l 1x880020
 850 200 l 1x900020
 700 200 l 1x880120
 700 150 l 1
 700 100 l 1
 750 100 l 1
 800 100 l 1xa00140
 800 0 l 1
 800 -100 l 1
 900 -100 l 1
 1000 -100 l 1
 1000 -150 l 1
 1000 -200 l 1
 500 -200 l 1
 0 -200 l 1
 0 300 l 1xc822a0
300 650 m 1x8508
 300 700 l 1x8510
 250 700 l 1x8090
 200 700 l 1
 200 650 l 1
 200 600 l 1x8140
 150 600 l 1
 100 600 l 1
 100 450 l 1
 100 300 l 1
 150 300 l 1
 200 300 l 1x8930
 200 350 l 1
 200 400 l 1
 250 400 l 1
 300 400 l 1x9030
 300 300 l 1x8830
 300 200 l 1xa008
 250 200 l 1
 200 200 l 1x9048
 200 150 l 1
 200 100 l 1
 250 100 l 1
 300 100 l 1xa048
 300 0 l 1
 300 -100 l 1
 500 -100 l 1xc04a
 700 -100 l 1
 700 -50 l 1
 700 0 l 1
 550 0 l 1
 400 0 l 1
 400 50 l 1xc00480
 400 100 l 1
 500 100 l 1xc00a
 600 100 l 1
 600 200 l 1
 600 300 l 1xc801
 550 300 l 1
 500 300 l 1
 500 400 l 1xcc02
 500 500 l 1
 450 500 l 1x8204
 400 500 l 1x8408
 400 550 l 1
 400 600 l 1x8504
 350 600 l 1
 300 600 l 1
 300 650 l 1x8508
900 650 m 1x8280a0
 900 700 l 1x810040
 850 700 l 1
 800 700 l 1
 800 650 l 1
 800 600 l 1
 850 600 l 1
 900 600 l 1
 900 650 l 1x8280a0
900 450 m 1x9200a0
 900 500 l 1x8400a0
 850 500 l 1
 800 500 l 1
 800 450 l 1
 800 400 l 1
 850 400 l 1
 900 400 l 1
 900 450 l 1x9200a0
EndSplineSet
Validated: 5
EndChar

StartChar: H
Encoding: 72 72 24
Width: 1000
VWidth: 0
HStem: -200 100<100 200 300 600 900 1000> 0 100<900 1000> 200 100<900 1000> 300 100<100 300 600 700 800 900> 400 100<300 400 900 1000> 600 100<100 200 300 400 700 800 900 1000> 700 100<200 300>
VStem: 0 100<-100 300 400 600 700 800> 200 100<-100 0 700 800> 300 100<400 500> 400 100<700 800> 500 100<400 500> 600 100<700 800> 700 100<400 500> 800 100<500 600 700 800> 900 100<200 300 400 500>
LayerCount: 2
Back
Fore
SplineSet
0 300 m 1xd111
 0 800 l 1
 50 800 l 1
 100 800 l 1xd311
 100 750 l 1
 100 700 l 1
 150 700 l 1
 200 700 l 1xc591
 200 750 l 1
 200 800 l 1
 250 800 l 1
 300 800 l 1xc391
 300 750 l 1
 300 700 l 1
 350 700 l 1
 400 700 l 1xc5a0
 400 750 l 1
 400 800 l 1
 450 800 l 1
 500 800 l 1
 500 700 l 1xc3a0
 500 600 l 1xc510
 400 600 l 1xc520
 300 600 l 1
 300 650 l 1xc540
 300 700 l 1xc580
 250 700 l 1xc380
 200 700 l 1
 200 650 l 1
 200 600 l 1
 150 600 l 1
 100 600 l 1
 100 500 l 1xcd80
 100 400 l 1
 200 400 l 1xd180
 300 400 l 1xd140
 300 450 l 1
 300 500 l 1
 350 500 l 1
 400 500 l 1
 400 450 l 1
 400 400 l 1
 450 400 l 1
 500 400 l 1
 500 450 l 1
 500 500 l 1
 550 500 l 1
 600 500 l 1xc950
 600 450 l 1
 600 400 l 1
 650 400 l 1
 700 400 l 1xd154
 700 450 l 1
 700 500 l 1
 750 500 l 1
 800 500 l 1xc954
 800 550 l 1
 800 600 l 1xcd02
 700 600 l 1xcd04
 600 600 l 1xcd08
 600 700 l 1
 600 800 l 1
 650 800 l 1
 700 800 l 1xc308
 700 750 l 1
 700 700 l 1
 750 700 l 1
 800 700 l 1xc50a
 800 750 l 1
 800 800 l 1
 850 800 l 1
 900 800 l 1xc30a
 900 750 l 1
 900 700 l 1xc50a
 950 700 l 1
 1000 700 l 1
 1000 650 l 1
 1000 600 l 1xc501
 950 600 l 1
 900 600 l 1
 900 550 l 1
 900 500 l 1xcd02
 950 500 l 1
 1000 500 l 1
 1000 450 l 1
 1000 400 l 1
 950 400 l 1xcd01
 900 400 l 1xd101
 900 350 l 1
 900 300 l 1
 950 300 l 1
 1000 300 l 1
 1000 250 l 1
 1000 200 l 1
 950 200 l 1
 900 200 l 1
 900 250 l 1
 900 300 l 1xe101
 700 300 l 1
 500 300 l 1xd115
 500 250 l 1
 500 200 l 1xe115
 550 200 l 1
 600 200 l 1
 600 150 l 1
 600 100 l 1
 800 100 l 1xe10a
 1000 100 l 1
 1000 50 l 1
 1000 0 l 1
 950 0 l 1
 900 0 l 1
 900 -50 l 1
 900 -100 l 1
 950 -100 l 1
 1000 -100 l 1
 1000 -150 l 1
 1000 -200 l 1
 500 -200 l 1
 0 -200 l 1
 0 300 l 1xd111
900 450 m 1
 900 500 l 1xc902
 850 500 l 1
 800 500 l 1xc904
 800 450 l 1
 800 400 l 1xd104
 850 400 l 1
 900 400 l 1
 900 450 l 1
400 350 m 1xd120
 400 400 l 1
 350 400 l 1xc940
 300 400 l 1
 300 350 l 1
 300 300 l 1xd140
 200 300 l 1
 100 300 l 1
 100 100 l 1
 100 -100 l 1
 150 -100 l 1
 200 -100 l 1
 200 -50 l 1
 200 0 l 1
 250 0 l 1
 300 0 l 1
 300 -50 l 1
 300 -100 l 1
 450 -100 l 1
 600 -100 l 1
 600 -50 l 1
 600 0 l 1xd188
 500 0 l 1xd110
 400 0 l 1
 400 50 l 1
 400 100 l 1xd120
 350 100 l 1
 300 100 l 1
 300 200 l 1xe140
 300 300 l 1xd140
 350 300 l 1
 400 300 l 1
 400 350 l 1xd120
EndSplineSet
Validated: 5
EndChar

StartChar: I
Encoding: 73 73 25
Width: 1000
VWidth: 0
HStem: -200 200<200 300 700 900> -200 100<100 200 300 600 900 1000> 0 100<100 200 900 1000> 100 100<800 900> 200 100<200 300 900 1000> 300 100<800 900> 400 100<900 1000> 500 100<800 900> 600 100<100 200 300 400 900 1000> 700 100<200 300 800 900>
VStem: 0 200<0 100 300 400 600 700> 0 100<-100 0 100 200 400 600 700 800> 200 100<-100 0 700 800> 300 100<300 500> 400 100<0 100 700 800> 500 100<300 500> 600 100<0 100 600 800> 700 100<400 500> 800 100<100 200 700 800> 900 100<0 100 200 300 400 500 600 700>
LayerCount: 2
Back
Fore
SplineSet
0 300 m 1x4420
 0 800 l 1
 50 800 l 1
 100 800 l 1x4450
 100 750 l 1
 100 700 l 1x0090
 150 700 l 1
 200 700 l 1x00a0
 200 750 l 1
 200 800 l 1
 250 800 l 1
 300 800 l 1x0048
 300 750 l 1
 300 700 l 1
 350 700 l 1
 400 700 l 1x008a
 400 750 l 1
 400 800 l 1
 450 800 l 1
 500 800 l 1
 500 700 l 1x004a
 500 600 l 1x0081
 550 600 l 1
 600 600 l 1x008080
 600 700 l 1
 600 800 l 1
 650 800 l 1
 700 800 l 1
 700 700 l 1x004080
 700 600 l 1x008080
 800 600 l 1x0100a0
 900 600 l 1
 900 650 l 1x010010
 900 700 l 1x008020
 850 700 l 1
 800 700 l 1
 800 750 l 1
 800 800 l 1
 850 800 l 1
 900 800 l 1x004020
 900 750 l 1
 900 700 l 1x008020
 950 700 l 1
 1000 700 l 1
 1000 650 l 1
 1000 600 l 1
 950 600 l 1x008010
 900 600 l 1x010010
 900 550 l 1
 900 500 l 1
 950 500 l 1
 1000 500 l 1
 1000 450 l 1
 1000 400 l 1
 950 400 l 1x020010
 900 400 l 1x040010
 900 350 l 1
 900 300 l 1
 950 300 l 1
 1000 300 l 1
 1000 250 l 1
 1000 200 l 1
 950 200 l 1x080010
 900 200 l 1x100020
 900 150 l 1
 900 100 l 1x200020
 950 100 l 1
 1000 100 l 1
 1000 50 l 1
 1000 0 l 1
 950 0 l 1x200010
 900 0 l 1x800010
 900 -50 l 1
 900 -100 l 1
 950 -100 l 1
 1000 -100 l 1
 1000 -150 l 1
 1000 -200 l 1
 500 -200 l 1
 0 -200 l 1x401110
 0 300 l 1x4420
300 650 m 1x0484
 300 700 l 1x0488
 250 700 l 1x0048
 200 700 l 1
 200 650 l 1
 200 600 l 1x00a0
 150 600 l 1
 100 600 l 1x0090
 100 500 l 1x0110
 100 400 l 1x0210
 150 400 l 1
 200 400 l 1
 200 350 l 1
 200 300 l 1
 250 300 l 1
 300 300 l 1
 300 400 l 1x0a24
 300 500 l 1
 350 500 l 1
 400 500 l 1x0124
 400 400 l 1x0224
 400 300 l 1
 450 300 l 1
 500 300 l 1
 500 450 l 1
 500 600 l 1x04a5
 400 600 l 1x0482
 300 600 l 1
 300 650 l 1x0484
700 400 m 1x020040
 700 500 l 1
 650 500 l 1
 600 500 l 1
 600 300 l 1x050140
 600 100 l 1
 550 100 l 1
 500 100 l 1x150280
 500 50 l 1
 500 0 l 1
 450 0 l 1
 400 0 l 1x200280
 400 50 l 1
 400 100 l 1x100280
 350 100 l 1
 300 100 l 1x1004
 300 150 l 1
 300 200 l 1x0804
 200 200 l 1
 100 200 l 1
 100 150 l 1
 100 100 l 1x2818
 150 100 l 1
 200 100 l 1x2820
 200 50 l 1
 200 0 l 1x8020
 150 0 l 1
 100 0 l 1
 100 -50 l 1
 100 -100 l 1
 150 -100 l 1
 200 -100 l 1
 200 -50 l 1x6018
 200 0 l 1x8020
 250 0 l 1
 300 0 l 1x8008
 300 -50 l 1
 300 -100 l 1
 450 -100 l 1
 600 -100 l 1
 600 0 l 1x600880
 600 100 l 1
 650 100 l 1
 700 100 l 1
 700 50 l 1
 700 0 l 1
 800 0 l 1x9008a0
 900 0 l 1
 900 50 l 1x900010
 900 100 l 1x200020
 850 100 l 1
 800 100 l 1
 800 150 l 1
 800 200 l 1
 850 200 l 1
 900 200 l 1x100020
 900 250 l 1
 900 300 l 1x080010
 800 300 l 1x040020
 700 300 l 1x040040
 700 400 l 1x020040
900 450 m 1x050050
 900 500 l 1x020050
 850 500 l 1
 800 500 l 1
 800 450 l 1
 800 400 l 1
 850 400 l 1
 900 400 l 1
 900 450 l 1x050050
EndSplineSet
Validated: 5
EndChar

StartChar: J
Encoding: 74 74 26
Width: 1000
VWidth: 0
HStem: -200 200<600 800> -200 100<100 600 800 1000> 0 100<400 500 800 1000> 100 100<100 200> 200 100<900 1000> 300 100<100 200 400 500> 400 100<500 600 900 1000> 500 100<800 900> 600 100<100 200 300 400 900 1000> 700 100<200 300 600 700 800 900>
VStem: 0 200<300 400 600 700> 0 100<-100 100 200 300 400 600 700 800> 200 100<0 100 700 800> 300 100<400 500> 400 100<0 100 500 600 700 800> 600 100<500 600 700 800> 800 100<500 600 700 800> 900 100<400 500 600 700>
LayerCount: 2
Back
Fore
SplineSet
600 750 m 1x0041
 600 800 l 1
 650 800 l 1
 700 800 l 1
 700 750 l 1
 700 700 l 1
 650 700 l 1
 600 700 l 1
 600 750 l 1x0041
0 300 m 1x4421
 0 800 l 1
 50 800 l 1
 100 800 l 1x4451
 100 750 l 1
 100 700 l 1x0091
 150 700 l 1
 200 700 l 1x00a1
 200 750 l 1
 200 800 l 1
 250 800 l 1
 300 800 l 1x0049
 300 750 l 1
 300 700 l 1
 350 700 l 1
 400 700 l 1x008b
 400 750 l 1
 400 800 l 1
 450 800 l 1
 500 800 l 1x004b
 500 650 l 1
 500 500 l 1
 550 500 l 1
 600 500 l 1
 600 550 l 1
 600 600 l 1
 650 600 l 1
 700 600 l 1x028b
 700 550 l 1
 700 500 l 1
 750 500 l 1
 800 500 l 1
 800 550 l 1
 800 600 l 1
 850 600 l 1
 900 600 l 1x010b80
 900 650 l 1x010140
 900 700 l 1x008180
 850 700 l 1
 800 700 l 1
 800 750 l 1
 800 800 l 1
 850 800 l 1
 900 800 l 1x004180
 900 750 l 1
 900 700 l 1x008180
 950 700 l 1
 1000 700 l 1
 1000 650 l 1
 1000 600 l 1
 950 600 l 1x008140
 900 600 l 1x010180
 900 550 l 1
 900 500 l 1x020180
 950 500 l 1
 1000 500 l 1
 1000 450 l 1
 1000 400 l 1
 950 400 l 1
 900 400 l 1
 900 350 l 1
 900 300 l 1
 950 300 l 1
 1000 300 l 1
 1000 250 l 1
 1000 200 l 1
 900 200 l 1x0a0140
 800 200 l 1x0a0180
 800 250 l 1
 800 300 l 1
 700 300 l 1
 600 300 l 1x040180
 600 350 l 1
 600 400 l 1
 550 400 l 1x020180
 500 400 l 1
 500 350 l 1
 500 300 l 1
 450 300 l 1
 400 300 l 1x040380
 400 200 l 1
 400 100 l 1
 450 100 l 1
 500 100 l 1
 500 50 l 1
 500 0 l 1
 450 0 l 1
 400 0 l 1
 400 50 l 1
 400 100 l 1x280380
 350 100 l 1
 300 100 l 1x100b80
 300 50 l 1
 300 0 l 1
 250 0 l 1
 200 0 l 1x200b80
 200 50 l 1
 200 100 l 1
 150 100 l 1
 100 100 l 1x101b80
 100 0 l 1
 100 -100 l 1
 350 -100 l 1
 600 -100 l 1x601b80
 600 -50 l 1
 600 0 l 1
 700 0 l 1
 800 0 l 1x801b80
 800 50 l 1
 800 100 l 1x201b80
 900 100 l 1
 1000 100 l 1
 1000 50 l 1
 1000 0 l 1
 900 0 l 1x200140
 800 0 l 1x800180
 800 -50 l 1
 800 -100 l 1x400180
 900 -100 l 1
 1000 -100 l 1
 1000 -150 l 1
 1000 -200 l 1
 500 -200 l 1
 0 -200 l 1x401340
 0 300 l 1x4421
300 650 m 1x0085
 300 700 l 1x0089
 250 700 l 1x0049
 200 700 l 1
 200 650 l 1
 200 600 l 1x00a1
 150 600 l 1
 100 600 l 1x0091
 100 500 l 1
 100 400 l 1x0511
 150 400 l 1
 200 400 l 1
 200 350 l 1
 200 300 l 1x0521
 150 300 l 1
 100 300 l 1
 100 250 l 1
 100 200 l 1
 150 200 l 1
 200 200 l 1
 200 250 l 1x1519
 200 300 l 1
 250 300 l 1
 300 300 l 1x1525
 300 400 l 1x0225
 300 500 l 1
 350 500 l 1
 400 500 l 1
 400 450 l 1
 400 400 l 1x0525
 450 400 l 1
 500 400 l 1x0503
 500 450 l 1
 500 500 l 1x0203
 450 500 l 1
 400 500 l 1x0105
 400 550 l 1
 400 600 l 1x0083
 350 600 l 1
 300 600 l 1
 300 650 l 1x0085
900 450 m 1x020140
 900 500 l 1x020180
 850 500 l 1
 800 500 l 1x010180
 800 450 l 1
 800 400 l 1x020180
 850 400 l 1
 900 400 l 1
 900 450 l 1x020140
EndSplineSet
Validated: 5
EndChar

StartChar: K
Encoding: 75 75 27
Width: 1000
VWidth: 0
HStem: -200 100<100 600 800 1000> 0 100<400 600 900 1000> 200 100<500 600 900 1000> 300 100<200 300> 400 100<300 400 600 700 900 1000> 500 300<400 500 800 900> 600 100<100 200 300 400 900 1000> 700 100<200 300 600 700>
VStem: 0 200<200 300 600 700> 0 100<-100 0 400 600 700 800> 200 100<700 800> 300 100<200 300 400 500> 400 100<700 800> 500 100<200 300> 600 100<700 800> 700 100<0 100> 800 100<100 200 700 800> 900 100<0 100 400 500>
LayerCount: 2
Back
Fore
SplineSet
400 50 m 1xc008
 400 100 l 1xc008
 500 100 l 1xc004
 600 100 l 1
 600 50 l 1
 600 0 l 1xc002
 500 0 l 1xc004
 400 0 l 1
 400 50 l 1xc008
500 250 m 1xe004
 500 300 l 1
 550 300 l 1
 600 300 l 1
 600 250 l 1
 600 200 l 1
 550 200 l 1
 500 200 l 1
 500 250 l 1xe004
300 450 m 1xd010
 300 500 l 1
 350 500 l 1
 400 500 l 1
 400 450 l 1
 400 400 l 1
 350 400 l 1xc810
 300 400 l 1
 300 450 l 1xd010
0 300 m 1xd080
 0 800 l 1
 50 800 l 1
 100 800 l 1xd140
 100 750 l 1
 100 700 l 1xc240
 150 700 l 1
 200 700 l 1xc280
 200 750 l 1
 200 800 l 1
 250 800 l 1
 300 800 l 1xc120
 300 750 l 1
 300 700 l 1
 350 700 l 1
 400 700 l 1xc228
 400 750 l 1
 400 800 l 1
 450 800 l 1
 500 800 l 1xc428
 500 700 l 1xc128
 500 600 l 1xc204
 550 600 l 1
 600 600 l 1
 600 550 l 1
 600 500 l 1xca02
 650 500 l 1
 700 500 l 1
 700 600 l 1xca01
 700 700 l 1
 650 700 l 1
 600 700 l 1
 600 750 l 1
 600 800 l 1
 650 800 l 1
 700 800 l 1
 700 750 l 1
 700 700 l 1
 750 700 l 1
 800 700 l 1xc10280
 800 750 l 1
 800 800 l 1
 850 800 l 1
 900 800 l 1xc40280
 900 750 l 1
 900 700 l 1xc20280
 950 700 l 1
 1000 700 l 1
 1000 650 l 1
 1000 600 l 1
 950 600 l 1
 900 600 l 1
 900 550 l 1
 900 500 l 1
 950 500 l 1
 1000 500 l 1
 1000 450 l 1
 1000 400 l 1
 950 400 l 1
 900 400 l 1
 900 350 l 1
 900 300 l 1
 950 300 l 1
 1000 300 l 1
 1000 250 l 1
 1000 200 l 1xea0040
 950 200 l 1
 900 200 l 1
 900 150 l 1
 900 100 l 1xea0080
 950 100 l 1
 1000 100 l 1
 1000 50 l 1
 1000 0 l 1
 950 0 l 1
 900 0 l 1
 900 50 l 1xea0040
 900 100 l 1xea0080
 850 100 l 1
 800 100 l 1
 800 0 l 1xea01
 800 -100 l 1xea0080
 900 -100 l 1
 1000 -100 l 1
 1000 -150 l 1
 1000 -200 l 1
 500 -200 l 1
 0 -200 l 1xea4440
 0 300 l 1xd080
300 650 m 1xca10
 300 700 l 1xca20
 250 700 l 1xc120
 200 700 l 1
 200 650 l 1
 200 600 l 1xc280
 150 600 l 1
 100 600 l 1xc240
 100 500 l 1xc440
 100 400 l 1xc840
 200 400 l 1xd060
 300 400 l 1
 300 350 l 1
 300 300 l 1
 250 300 l 1
 200 300 l 1xd090
 200 250 l 1
 200 200 l 1
 250 200 l 1
 300 200 l 1xe090
 300 250 l 1
 300 300 l 1
 350 300 l 1
 400 300 l 1xd090
 400 200 l 1xe090
 400 100 l 1xe008
 350 100 l 1
 300 100 l 1
 300 50 l 1
 300 0 l 1xe010
 200 0 l 1
 100 0 l 1
 100 -50 l 1
 100 -100 l 1
 350 -100 l 1
 600 -100 l 1
 600 -50 l 1
 600 0 l 1xe062
 650 0 l 1
 700 0 l 1
 700 50 l 1
 700 100 l 1
 750 100 l 1
 800 100 l 1xe001
 800 200 l 1xe00080
 800 300 l 1xd00080
 750 300 l 1
 700 300 l 1xd001
 700 350 l 1
 700 400 l 1xc801
 600 400 l 1xc802
 500 400 l 1xc804
 500 450 l 1
 500 500 l 1
 450 500 l 1xc404
 400 500 l 1xc814
 400 550 l 1
 400 600 l 1xca08
 350 600 l 1
 300 600 l 1
 300 650 l 1xca10
900 450 m 1xc80040
 900 500 l 1xc80040
 850 500 l 1
 800 500 l 1xc40080
 800 450 l 1
 800 400 l 1xc80080
 850 400 l 1
 900 400 l 1
 900 450 l 1xc80040
EndSplineSet
Validated: 5
EndChar

StartChar: L
Encoding: 76 76 28
Width: 1000
VWidth: 0
HStem: -200 100<300 600 700 800 900 1000> 0 100<400 500 900 1000> 100 100<500 600> 200 100<600 700 900 1000> 300 100<100 200 500 600 800 900> 400 100<600 700 900 1000> 500 100<800 900> 600 100<100 200 300 400 900 1000> 700 100<200 300 600 700 800 900>
VStem: 0 200<300 400 600 700> 0 100<100 300 400 600 700 800> 200 100<100 300 700 800> 300 200<400 500 600 700> 400 100<0 100 200 300 700 800> 500 100<100 200> 600 200<200 300 400 500> 600 100<-100 0 700 800> 700 200<100 200 300 400> 800 100<-100 0 500 600 700 800> 900 100<200 300 400 500 600 700>
LayerCount: 2
Back
Fore
SplineSet
500 150 m 1xc002
 500 200 l 1xa004
 550 200 l 1
 600 200 l 1
 600 150 l 1
 600 100 l 1
 550 100 l 1xa002
 500 100 l 1
 500 50 l 1
 500 0 l 1
 450 0 l 1
 400 0 l 1
 400 50 l 1
 400 100 l 1
 450 100 l 1
 500 100 l 1xc004
 500 150 l 1xc002
600 750 m 1x808080
 600 800 l 1
 650 800 l 1
 700 800 l 1
 700 750 l 1
 700 700 l 1
 650 700 l 1
 600 700 l 1
 600 750 l 1x808080
0 300 m 1xc840
 0 800 l 1
 50 800 l 1
 100 800 l 1xc8a0
 100 750 l 1
 100 700 l 1x8120
 150 700 l 1
 200 700 l 1x8140
 200 750 l 1
 200 800 l 1
 250 800 l 1
 300 800 l 1x8090
 300 750 l 1
 300 700 l 1
 350 700 l 1
 400 700 l 1x8114
 400 750 l 1
 400 800 l 1
 450 800 l 1
 500 800 l 1x8094
 500 700 l 1x8088
 500 600 l 1x8108
 400 600 l 1x8104
 300 600 l 1
 300 650 l 1x8108
 300 700 l 1x8110
 250 700 l 1x8090
 200 700 l 1
 200 650 l 1
 200 600 l 1x8140
 150 600 l 1
 100 600 l 1x8120
 100 500 l 1
 100 400 l 1x8a20
 150 400 l 1
 200 400 l 1
 200 350 l 1
 200 300 l 1x8a40
 250 300 l 1
 300 300 l 1x8a10
 300 400 l 1x8408
 300 500 l 1x8208
 400 500 l 1x8204
 500 500 l 1
 500 450 l 1
 500 400 l 1
 550 400 l 1
 600 400 l 1x8a09
 600 450 l 1
 600 500 l 1x8409
 700 500 l 1x840040
 800 500 l 1x8201
 800 550 l 1
 800 600 l 1
 850 600 l 1
 900 600 l 1x820020
 900 650 l 1x820010
 900 700 l 1x810020
 850 700 l 1
 800 700 l 1
 800 750 l 1
 800 800 l 1
 850 800 l 1
 900 800 l 1x808020
 900 750 l 1
 900 700 l 1x810020
 950 700 l 1
 1000 700 l 1
 1000 650 l 1
 1000 600 l 1
 950 600 l 1x810010
 900 600 l 1x820020
 900 550 l 1
 900 500 l 1x840020
 950 500 l 1
 1000 500 l 1
 1000 450 l 1
 1000 400 l 1
 950 400 l 1x840010
 900 400 l 1x880040
 900 350 l 1
 900 300 l 1x900040
 950 300 l 1
 1000 300 l 1
 1000 250 l 1
 1000 200 l 1x900010
 950 200 l 1
 900 200 l 1
 900 150 l 1
 900 100 l 1xd00040
 950 100 l 1
 1000 100 l 1
 1000 50 l 1
 1000 0 l 1xd00010
 950 0 l 1
 900 0 l 1
 900 -50 l 1
 900 -100 l 1xd00020
 950 -100 l 1
 1000 -100 l 1
 1000 -150 l 1
 1000 -200 l 1
 500 -200 l 1
 0 -200 l 1xd02210
 0 300 l 1xc840
900 450 m 1x8a0010
 900 500 l 1x840020
 850 500 l 1
 800 500 l 1
 800 450 l 1
 800 400 l 1x8a01
 850 400 l 1
 900 400 l 1x8a0040
 900 450 l 1x8a0010
700 350 m 1x900040
 700 400 l 1
 650 400 l 1x940040
 600 400 l 1x8801
 600 350 l 1x880080
 600 300 l 1x9001
 550 300 l 1
 500 300 l 1
 500 250 l 1
 500 200 l 1xa805
 450 200 l 1
 400 200 l 1x9005
 400 250 l 1
 400 300 l 1
 350 300 l 1
 300 300 l 1
 300 100 l 1xa815
 300 -100 l 1
 450 -100 l 1
 600 -100 l 1
 600 -50 l 1
 600 0 l 1
 650 0 l 1
 700 0 l 1
 700 -50 l 1
 700 -100 l 1
 750 -100 l 1
 800 -100 l 1
 800 -50 l 1
 800 0 l 1
 750 0 l 1
 700 0 l 1xc008a0
 700 100 l 1xa00040
 700 200 l 1
 650 200 l 1x900040
 600 200 l 1xa00240
 600 250 l 1
 600 300 l 1x9001
 650 300 l 1
 700 300 l 1
 700 350 l 1x900040
200 200 m 1x9030
 200 300 l 1x8840
 150 300 l 1
 100 300 l 1x8820
 100 200 l 1x9020
 100 100 l 1
 150 100 l 1
 200 100 l 1xa030
 200 200 l 1x9030
900 250 m 1x900010
 900 300 l 1x900040
 850 300 l 1
 800 300 l 1x8801
 800 250 l 1
 800 200 l 1x9001
 850 200 l 1
 900 200 l 1x900040
 900 250 l 1x900010
EndSplineSet
Validated: 5
EndChar

StartChar: M
Encoding: 77 77 29
Width: 1000
VWidth: 0
HStem: -200 200<100 200 600 700 800 900> -200 100<300 600 700 800 900 1000> 0 100<400 500 900 1000> 200 100<400 500 900 1000> 300 100<200 300 800 900> 400 100<300 500 900 1000> 500 100<500 600> 600 100<100 200 300 400 900 1000> 700 100<200 300 600 700>
VStem: 0 200<200 300 600 700> 0 100<0 200 400 600 700 800> 200 100<0 200 700 800> 300 200<400 500 600 700> 400 100<700 800> 500 100<100 200> 600 100<-100 0 700 800> 700 100<100 200> 800 100<-100 0 700 800> 900 100<0 100 200 300 400 500>
LayerCount: 2
Back
Fore
SplineSet
300 450 m 1x0808
 300 500 l 1x0408
 400 500 l 1x0404
 500 500 l 1
 500 450 l 1
 500 400 l 1x0408
 400 400 l 1x0404
 300 400 l 1
 300 450 l 1x0808
0 300 m 1x4840
 0 800 l 1
 50 800 l 1
 100 800 l 1x48a0
 100 750 l 1
 100 700 l 1x0120
 150 700 l 1
 200 700 l 1x0140
 200 750 l 1
 200 800 l 1
 250 800 l 1
 300 800 l 1x0090
 300 750 l 1
 300 700 l 1
 350 700 l 1
 400 700 l 1x0114
 400 750 l 1
 400 800 l 1
 450 800 l 1
 500 800 l 1x0094
 500 700 l 1
 500 600 l 1
 600 600 l 1x0289
 700 600 l 1
 700 650 l 1x010080
 700 700 l 1
 650 700 l 1
 600 700 l 1
 600 750 l 1
 600 800 l 1
 650 800 l 1
 700 800 l 1
 700 750 l 1
 700 700 l 1
 750 700 l 1
 800 700 l 1
 800 750 l 1
 800 800 l 1
 850 800 l 1
 900 800 l 1x008140
 900 750 l 1
 900 700 l 1x010140
 950 700 l 1
 1000 700 l 1
 1000 650 l 1
 1000 600 l 1
 950 600 l 1
 900 600 l 1
 900 550 l 1
 900 500 l 1
 950 500 l 1
 1000 500 l 1
 1000 450 l 1
 1000 400 l 1
 950 400 l 1x050020
 900 400 l 1x080020
 900 350 l 1
 900 300 l 1
 950 300 l 1
 1000 300 l 1
 1000 250 l 1
 1000 200 l 1
 950 200 l 1
 900 200 l 1
 900 250 l 1
 900 300 l 1x100020
 850 300 l 1
 800 300 l 1x080040
 800 200 l 1
 800 100 l 1
 750 100 l 1
 700 100 l 1
 700 150 l 1
 700 200 l 1
 650 200 l 1
 600 200 l 1
 600 100 l 1x300280
 600 0 l 1
 650 0 l 1
 700 0 l 1x8001
 700 -50 l 1
 700 -100 l 1
 750 -100 l 1
 800 -100 l 1x400140
 800 -50 l 1
 800 0 l 1
 850 0 l 1
 900 0 l 1x800140
 900 50 l 1
 900 100 l 1
 950 100 l 1
 1000 100 l 1
 1000 50 l 1
 1000 0 l 1
 950 0 l 1x200020
 900 0 l 1x800040
 900 -50 l 1
 900 -100 l 1x400040
 950 -100 l 1
 1000 -100 l 1
 1000 -150 l 1
 1000 -200 l 1
 500 -200 l 1
 0 -200 l 1x402220
 0 300 l 1x4840
300 650 m 1x0108
 300 700 l 1x0110
 250 700 l 1x0090
 200 700 l 1
 200 650 l 1
 200 600 l 1x0140
 150 600 l 1
 100 600 l 1x0120
 100 500 l 1x0220
 100 400 l 1x0420
 200 400 l 1x0830
 300 400 l 1
 300 350 l 1
 300 300 l 1
 250 300 l 1
 200 300 l 1x0848
 200 250 l 1
 200 200 l 1x1048
 150 200 l 1
 100 200 l 1
 100 100 l 1x3020
 100 0 l 1
 150 0 l 1
 200 0 l 1x8030
 200 100 l 1x2030
 200 200 l 1x3040
 250 200 l 1
 300 200 l 1
 300 50 l 1x3010
 300 -100 l 1
 450 -100 l 1
 600 -100 l 1x7009
 600 -50 l 1
 600 0 l 1x8009
 500 0 l 1x2002
 400 0 l 1
 400 50 l 1
 400 100 l 1x2004
 450 100 l 1
 500 100 l 1
 500 150 l 1
 500 200 l 1x3002
 450 200 l 1
 400 200 l 1
 400 250 l 1
 400 300 l 1x3004
 450 300 l 1
 500 300 l 1
 500 350 l 1x3002
 500 400 l 1
 550 400 l 1
 600 400 l 1x3409
 600 450 l 1
 600 500 l 1
 550 500 l 1x0209
 500 500 l 1x0409
 500 550 l 1x0402
 500 600 l 1x0208
 400 600 l 1x0104
 300 600 l 1
 300 650 l 1x0108
900 450 m 1x0a0020
 900 500 l 1x040020
 850 500 l 1
 800 500 l 1
 800 450 l 1
 800 400 l 1x0a0040
 850 400 l 1
 900 400 l 1
 900 450 l 1x0a0020
EndSplineSet
Validated: 5
EndChar

StartChar: N
Encoding: 78 78 30
Width: 1000
VWidth: 0
HStem: -200 100<200 600 700 1000> 0 100<500 600 900 1000> 200 100<600 700 900 1000> 300 100<100 300> 400 100<300 400 900 1000> 500 300<600 700 800 900> 600 100<100 200 300 400 700 800 900 1000> 700 100<200 300>
VStem: 0 200<-100 200 600 700> 0 100<200 300 400 600 700 800> 200 100<700 800> 300 200<400 500 600 700> 400 100<100 200 300 400 500 600 700 800> 600 100<-100 0 500 600 700 800> 700 100<400 500> 800 100<500 600 700 800> 900 100<400 500>
LayerCount: 2
Back
Fore
SplineSet
0 300 m 1xd04c80
 0 800 l 1
 50 800 l 1
 100 800 l 1xd14c80
 100 750 l 1
 100 700 l 1xc24c80
 150 700 l 1
 200 700 l 1xc280
 200 750 l 1
 200 800 l 1
 250 800 l 1
 300 800 l 1xc120
 300 750 l 1
 300 700 l 1
 350 700 l 1
 400 700 l 1xc228
 400 750 l 1
 400 800 l 1
 450 800 l 1
 500 800 l 1
 500 550 l 1
 500 300 l 1
 450 300 l 1
 400 300 l 1xd128
 400 350 l 1
 400 400 l 1
 350 400 l 1xc828
 300 400 l 1
 300 350 l 1
 300 300 l 1xd010
 200 300 l 1
 100 300 l 1xd060
 100 250 l 1
 100 200 l 1xe060
 150 200 l 1
 200 200 l 1
 200 50 l 1
 200 -100 l 1
 400 -100 l 1
 600 -100 l 1
 600 -50 l 1
 600 0 l 1
 500 0 l 1
 400 0 l 1
 400 100 l 1
 400 200 l 1
 450 200 l 1
 500 200 l 1
 500 150 l 1
 500 100 l 1
 600 100 l 1xe08c
 700 100 l 1
 700 150 l 1
 700 200 l 1xe002
 650 200 l 1
 600 200 l 1
 600 250 l 1
 600 300 l 1xe004
 650 300 l 1
 700 300 l 1
 700 400 l 1xe802
 700 500 l 1
 650 500 l 1
 600 500 l 1
 600 650 l 1
 600 800 l 1
 650 800 l 1
 700 800 l 1xc404
 700 750 l 1
 700 700 l 1
 750 700 l 1
 800 700 l 1xc205
 800 750 l 1
 800 800 l 1
 850 800 l 1
 900 800 l 1xc405
 900 750 l 1
 900 700 l 1xc205
 950 700 l 1
 1000 700 l 1
 1000 650 l 1
 1000 600 l 1xc20080
 950 600 l 1
 900 600 l 1
 900 550 l 1
 900 500 l 1xca01
 950 500 l 1
 1000 500 l 1
 1000 450 l 1
 1000 400 l 1
 950 400 l 1
 900 400 l 1
 900 350 l 1
 900 300 l 1
 950 300 l 1
 1000 300 l 1
 1000 250 l 1
 1000 200 l 1
 950 200 l 1
 900 200 l 1
 900 150 l 1
 900 100 l 1
 950 100 l 1
 1000 100 l 1
 1000 50 l 1
 1000 0 l 1
 900 0 l 1xea0080
 800 0 l 1
 800 50 l 1
 800 100 l 1xea01
 750 100 l 1
 700 100 l 1xea02
 700 0 l 1
 700 -100 l 1
 850 -100 l 1
 1000 -100 l 1
 1000 -150 l 1
 1000 -200 l 1
 500 -200 l 1
 0 -200 l 1
 0 300 l 1xd04c80
300 650 m 1xca10
 300 700 l 1xca20
 250 700 l 1xc120
 200 700 l 1
 200 650 l 1
 200 600 l 1xc280
 150 600 l 1
 100 600 l 1xc240
 100 500 l 1
 100 400 l 1
 200 400 l 1xd460
 300 400 l 1xd410
 300 450 l 1
 300 500 l 1xc810
 350 500 l 1
 400 500 l 1
 400 550 l 1
 400 600 l 1xca08
 350 600 l 1
 300 600 l 1
 300 650 l 1xca10
800 550 m 1xc401
 800 600 l 1
 750 600 l 1
 700 600 l 1xc205
 700 550 l 1
 700 500 l 1xc405
 750 500 l 1
 800 500 l 1xc402
 800 450 l 1
 800 400 l 1
 850 400 l 1
 900 400 l 1
 900 450 l 1xc80280
 900 500 l 1xc801
 850 500 l 1
 800 500 l 1xc402
 800 550 l 1xc401
EndSplineSet
Validated: 5
EndChar

StartChar: O
Encoding: 79 79 31
Width: 1000
VWidth: 0
HStem: -200 100<200 600 700 1000> 0 100<900 1000> 200 200<600 700 800 900> 200 100<200 300 500 600 900 1000> 400 100<900 1000> 500 100<500 600 800 900> 600 100<100 200 300 400 900 1000> 700 100<200 300 800 900>
VStem: 0 200<-100 0 100 200 300 400 600 700> 0 100<0 100 400 600 700 800> 200 100<700 800> 300 100<300 400> 400 100<0 200 700 800> 600 100<-100 0 600 800> 700 100<100 200 400 500> 800 100<700 800> 900 100<0 100 400 500 600 700>
LayerCount: 2
Back
Fore
SplineSet
400 100 m 1xd008
 400 200 l 1
 450 200 l 1
 500 200 l 1
 500 100 l 1
 500 0 l 1
 450 0 l 1
 400 0 l 1
 400 100 l 1xd008
900 50 m 1xc00080
 900 100 l 1
 950 100 l 1
 1000 100 l 1
 1000 50 l 1
 1000 0 l 1
 950 0 l 1
 900 0 l 1
 900 50 l 1xc00080
0 300 m 1xd080
 0 800 l 1
 50 800 l 1
 100 800 l 1xd140
 100 750 l 1
 100 700 l 1xc240
 150 700 l 1
 200 700 l 1xc280
 200 750 l 1
 200 800 l 1
 250 800 l 1
 300 800 l 1xc120
 300 750 l 1
 300 700 l 1
 350 700 l 1
 400 700 l 1xc228
 400 750 l 1
 400 800 l 1
 450 800 l 1
 500 800 l 1
 500 700 l 1
 500 600 l 1
 550 600 l 1
 600 600 l 1
 600 700 l 1
 600 800 l 1
 650 800 l 1
 700 800 l 1
 700 700 l 1xc52c
 700 600 l 1xc22c
 800 600 l 1xc42d
 900 600 l 1
 900 650 l 1xc40080
 900 700 l 1xc201
 850 700 l 1
 800 700 l 1
 800 750 l 1
 800 800 l 1
 850 800 l 1
 900 800 l 1xc101
 900 750 l 1
 900 700 l 1xc201
 950 700 l 1
 1000 700 l 1
 1000 650 l 1
 1000 600 l 1
 950 600 l 1xc20080
 900 600 l 1xc40080
 900 550 l 1
 900 500 l 1
 950 500 l 1
 1000 500 l 1
 1000 450 l 1
 1000 400 l 1
 950 400 l 1xc80080
 900 400 l 1xe00080
 900 350 l 1
 900 300 l 1
 950 300 l 1
 1000 300 l 1
 1000 250 l 1
 1000 200 l 1xd00080
 900 200 l 1
 800 200 l 1
 800 100 l 1xe00280
 800 0 l 1xe001
 750 0 l 1
 700 0 l 1
 700 -50 l 1
 700 -100 l 1
 850 -100 l 1
 1000 -100 l 1
 1000 -150 l 1
 1000 -200 l 1
 500 -200 l 1
 0 -200 l 1xe04c80
 0 300 l 1xd080
300 650 m 1xc210
 300 700 l 1xc220
 250 700 l 1xc120
 200 700 l 1
 200 650 l 1
 200 600 l 1xc280
 150 600 l 1
 100 600 l 1xc240
 100 500 l 1xc440
 100 400 l 1xc840
 150 400 l 1
 200 400 l 1
 200 350 l 1
 200 300 l 1
 250 300 l 1
 300 300 l 1
 300 250 l 1
 300 200 l 1
 250 200 l 1
 200 200 l 1
 200 150 l 1
 200 100 l 1xd890
 150 100 l 1
 100 100 l 1
 100 50 l 1
 100 0 l 1xd840
 150 0 l 1
 200 0 l 1
 200 -50 l 1
 200 -100 l 1
 400 -100 l 1
 600 -100 l 1
 600 0 l 1
 600 100 l 1xd88c
 650 100 l 1
 700 100 l 1
 700 150 l 1
 700 200 l 1xe002
 600 200 l 1xe004
 500 200 l 1
 500 250 l 1
 500 300 l 1
 550 300 l 1
 600 300 l 1xd00c
 600 350 l 1
 600 400 l 1xe00c
 650 400 l 1
 700 400 l 1
 700 500 l 1xe402
 700 600 l 1
 650 600 l 1xc204
 600 600 l 1
 600 550 l 1
 600 500 l 1
 550 500 l 1
 500 500 l 1xc40c
 500 450 l 1
 500 400 l 1xc80c
 450 400 l 1
 400 400 l 1
 400 350 l 1
 400 300 l 1
 350 300 l 1
 300 300 l 1
 300 400 l 1xd810
 300 500 l 1xc410
 350 500 l 1
 400 500 l 1xc408
 400 550 l 1
 400 600 l 1xc208
 350 600 l 1
 300 600 l 1
 300 650 l 1xc210
900 450 m 1xe40280
 900 500 l 1xc80280
 850 500 l 1
 800 500 l 1
 800 450 l 1
 800 400 l 1
 850 400 l 1
 900 400 l 1
 900 450 l 1xe40280
EndSplineSet
Validated: 5
EndChar

StartChar: P
Encoding: 80 80 32
Width: 1000
VWidth: 0
HStem: -200 100<200 1000> 0 100<400 500 900 1000> 200 100<400 500 900 1000> 400 100<700 1000> 600 100<100 200 300 400 700 800 900 1000> 700 100<200 300 800 900>
VStem: 0 200<-100 0 600 700> 0 100<0 600 700 800> 200 100<700 800> 300 100<300 500> 400 100<0 100 500 600 700 800> 600 100<100 200 700 800> 800 100<100 200 700 800> 900 100<200 300 600 700>
LayerCount: 2
Back
Fore
SplineSet
900 250 m 1xf014
 900 300 l 1
 950 300 l 1
 1000 300 l 1
 1000 250 l 1
 1000 200 l 1xf014
 950 200 l 1
 900 200 l 1
 900 150 l 1
 900 100 l 1xf018
 950 100 l 1
 1000 100 l 1
 1000 50 l 1
 1000 0 l 1
 900 0 l 1xf014
 800 0 l 1
 800 100 l 1
 800 200 l 1
 850 200 l 1
 900 200 l 1xf018
 900 250 l 1xf014
600 700 m 1xf418
 600 800 l 1
 650 800 l 1
 700 800 l 1xf418
 700 750 l 1
 700 700 l 1
 750 700 l 1
 800 700 l 1xf818
 800 750 l 1
 800 800 l 1
 850 800 l 1
 900 800 l 1xf418
 900 750 l 1
 900 700 l 1xf818
 950 700 l 1
 1000 700 l 1
 1000 650 l 1
 1000 600 l 1
 950 600 l 1
 900 600 l 1
 900 650 l 1xf814
 900 700 l 1xf818
 850 700 l 1xf418
 800 700 l 1
 800 650 l 1
 800 600 l 1
 700 600 l 1
 600 600 l 1xf818
 600 700 l 1xf418
0 300 m 1xf934
 0 800 l 1
 50 800 l 1
 100 800 l 1xf534
 100 750 l 1
 100 700 l 1xf934
 150 700 l 1
 200 700 l 1xfa10
 200 750 l 1
 200 800 l 1
 250 800 l 1
 300 800 l 1xf490
 300 750 l 1
 300 700 l 1
 350 700 l 1
 400 700 l 1xf8b0
 400 750 l 1
 400 800 l 1
 450 800 l 1
 500 800 l 1
 500 650 l 1
 500 500 l 1xf4b0
 450 500 l 1
 400 500 l 1
 400 400 l 1
 400 300 l 1xf450
 450 300 l 1
 500 300 l 1
 500 350 l 1
 500 400 l 1
 600 400 l 1
 700 400 l 1
 700 450 l 1
 700 500 l 1
 850 500 l 1
 1000 500 l 1
 1000 450 l 1
 1000 400 l 1
 850 400 l 1
 700 400 l 1
 700 250 l 1
 700 100 l 1
 650 100 l 1
 600 100 l 1
 600 150 l 1
 600 200 l 1
 500 200 l 1
 400 200 l 1
 400 150 l 1
 400 100 l 1
 450 100 l 1
 500 100 l 1
 500 50 l 1
 500 0 l 1
 450 0 l 1
 400 0 l 1
 400 50 l 1
 400 100 l 1xf434
 300 100 l 1xf450
 200 100 l 1
 200 200 l 1
 200 300 l 1xf490
 250 300 l 1
 300 300 l 1
 300 400 l 1
 300 500 l 1
 350 500 l 1
 400 500 l 1xf450
 400 550 l 1
 400 600 l 1xf830
 350 600 l 1
 300 600 l 1
 300 650 l 1xf850
 300 700 l 1xf890
 250 700 l 1xf490
 200 700 l 1
 200 650 l 1
 200 600 l 1xfa10
 150 600 l 1
 100 600 l 1
 100 300 l 1
 100 0 l 1xf910
 150 0 l 1
 200 0 l 1
 200 -50 l 1
 200 -100 l 1xfa10
 600 -100 l 1
 1000 -100 l 1
 1000 -150 l 1
 1000 -200 l 1
 500 -200 l 1
 0 -200 l 1
 0 300 l 1xf934
EndSplineSet
Validated: 5
EndChar

StartChar: Q
Encoding: 81 81 33
Width: 1000
VWidth: 0
HStem: -200 100<200 1000> 0 100<400 600 700 800 900 1000> 100 100<200 300> 200 100<100 200 900 1000> 300 100<200 300 500 600> 400 100<300 400 800 1000> 500 100<500 600> 600 100<100 200 300 400 900 1000> 700 100<200 300>
VStem: 0 200<-100 100 200 300 600 700> 0 100<100 200 300 600 700 800> 200 100<300 400 700 800> 300 100<400 500> 400 200<0 100 300 400> 400 100<700 800> 600 100<100 300 600 800> 700 100<0 100> 800 100<700 800> 900 100<0 100 200 300>
LayerCount: 2
Back
Fore
SplineSet
200 350 m 1x9010
 200 400 l 1
 250 400 l 1
 300 400 l 1
 300 350 l 1
 300 300 l 1
 250 300 l 1x8810
 200 300 l 1x9040
 200 350 l 1x9010
900 50 m 1xc00020
 900 100 l 1
 950 100 l 1
 1000 100 l 1
 1000 50 l 1
 1000 0 l 1
 950 0 l 1
 900 0 l 1
 900 50 l 1xc00020
900 250 m 1
 900 300 l 1
 950 300 l 1
 1000 300 l 1
 1000 250 l 1
 1000 200 l 1
 950 200 l 1
 900 200 l 1x900020
 900 250 l 1
0 300 m 1xc840
 0 800 l 1
 50 800 l 1
 100 800 l 1xc8a0
 100 750 l 1
 100 700 l 1x8120
 150 700 l 1
 200 700 l 1x8140
 200 750 l 1
 200 800 l 1
 250 800 l 1
 300 800 l 1x8090
 300 750 l 1
 300 700 l 1
 350 700 l 1
 400 700 l 1x8112
 400 750 l 1
 400 800 l 1
 450 800 l 1
 500 800 l 1
 500 700 l 1
 500 600 l 1
 550 600 l 1
 600 600 l 1
 600 700 l 1
 600 800 l 1
 650 800 l 1
 700 800 l 1
 700 700 l 1x8293
 700 600 l 1
 750 600 l 1
 800 600 l 1x811340
 800 700 l 1
 800 800 l 1
 850 800 l 1
 900 800 l 1x809340
 900 750 l 1
 900 700 l 1x811340
 950 700 l 1
 1000 700 l 1
 1000 650 l 1
 1000 600 l 1
 900 600 l 1x810020
 800 600 l 1
 800 550 l 1
 800 500 l 1x850040
 900 500 l 1
 1000 500 l 1
 1000 450 l 1
 1000 400 l 1
 850 400 l 1
 700 400 l 1x8500a0
 700 450 l 1
 700 500 l 1
 550 500 l 1x8200a0
 400 500 l 1
 400 450 l 1
 400 400 l 1x8408a0
 500 400 l 1x8802
 600 400 l 1
 600 350 l 1
 600 300 l 1x8804
 650 300 l 1
 700 300 l 1x8801
 700 200 l 1
 700 100 l 1xd001
 750 100 l 1
 800 100 l 1
 800 50 l 1
 800 0 l 1
 750 0 l 1
 700 0 l 1
 700 50 l 1xd00080
 700 100 l 1xd001
 650 100 l 1xa001
 600 100 l 1
 600 50 l 1
 600 0 l 1xc004
 500 0 l 1xc002
 400 0 l 1
 400 50 l 1
 400 100 l 1xc004
 300 100 l 1
 200 100 l 1xa048
 200 0 l 1
 200 -100 l 1xc048
 600 -100 l 1
 1000 -100 l 1
 1000 -150 l 1
 1000 -200 l 1
 500 -200 l 1
 0 -200 l 1xc02320
 0 300 l 1xc840
300 650 m 1x8508
 300 700 l 1x8510
 250 700 l 1x8090
 200 700 l 1
 200 650 l 1
 200 600 l 1x8140
 150 600 l 1
 100 600 l 1
 100 450 l 1
 100 300 l 1x9120
 150 300 l 1
 200 300 l 1x9140
 200 250 l 1
 200 200 l 1xa040
 150 200 l 1
 100 200 l 1x9020
 100 150 l 1
 100 100 l 1xa020
 150 100 l 1
 200 100 l 1xa040
 200 150 l 1xa010
 200 200 l 1
 250 200 l 1
 300 200 l 1
 300 250 l 1xa048
 300 300 l 1
 350 300 l 1
 400 300 l 1
 400 350 l 1xa814
 400 400 l 1
 350 400 l 1x8408
 300 400 l 1x8810
 300 450 l 1
 300 500 l 1
 350 500 l 1
 400 500 l 1x8408
 400 550 l 1
 400 600 l 1x8502
 350 600 l 1
 300 600 l 1
 300 650 l 1x8508
600 200 m 1xd001
 600 300 l 1x8804
 550 300 l 1
 500 300 l 1x8802
 500 250 l 1
 500 200 l 1
 450 200 l 1
 400 200 l 1
 400 150 l 1x9002
 400 100 l 1xd004
 500 100 l 1xd002
 600 100 l 1xd004
 600 200 l 1xd001
EndSplineSet
Validated: 5
EndChar

StartChar: R
Encoding: 82 82 34
Width: 1000
VWidth: 0
HStem: -200 100<300 800 900 1000> 0 100<700 800 900 1000> 100 100<100 200> 200 100<900 1000> 300 100<200 300> 400 100<300 400 700 1000> 600 100<100 200 300 400 900 1000> 700 100<200 300 600 700>
VStem: 0 200<100 200 600 700> 0 100<0 100 200 600 700 800> 200 100<0 100 300 400 700 800> 300 100<200 300 400 500> 400 100<700 800> 600 100<300 400 500 600 700 800> 800 200<200 300 600 700> 800 100<-100 0 100 200 700 800>
LayerCount: 2
Back
Fore
SplineSet
800 700 m 1x8106
 800 800 l 1
 850 800 l 1
 900 800 l 1x8105
 900 750 l 1
 900 700 l 1x8205
 950 700 l 1
 1000 700 l 1
 1000 650 l 1
 1000 600 l 1x8206
 900 600 l 1x8205
 800 600 l 1x8206
 800 700 l 1x8106
600 750 m 1
 600 800 l 1
 650 800 l 1
 700 800 l 1
 700 750 l 1
 700 700 l 1
 650 700 l 1
 600 700 l 1
 600 750 l 1
0 300 m 1xc84e
 0 800 l 1
 50 800 l 1
 100 800 l 1xc94e
 100 750 l 1
 100 700 l 1x824e
 150 700 l 1
 200 700 l 1x8284
 200 750 l 1
 200 800 l 1
 250 800 l 1
 300 800 l 1x8124
 300 750 l 1
 300 700 l 1
 350 700 l 1
 400 700 l 1x822c
 400 750 l 1
 400 800 l 1
 450 800 l 1
 500 800 l 1
 500 700 l 1x812c
 500 600 l 1
 400 600 l 1x822c
 300 600 l 1
 300 650 l 1x8214
 300 700 l 1x8224
 250 700 l 1x8124
 200 700 l 1
 200 650 l 1
 200 600 l 1x8284
 150 600 l 1
 100 600 l 1
 100 400 l 1
 100 200 l 1xa644
 150 200 l 1
 200 200 l 1
 200 150 l 1
 200 100 l 1xa684
 250 100 l 1
 300 100 l 1xa624
 300 200 l 1x9014
 300 300 l 1
 250 300 l 1
 200 300 l 1
 200 350 l 1
 200 400 l 1
 250 400 l 1
 300 400 l 1x8824
 300 450 l 1
 300 500 l 1
 350 500 l 1
 400 500 l 1
 400 450 l 1
 400 400 l 1
 350 400 l 1x8414
 300 400 l 1
 300 350 l 1
 300 300 l 1x8824
 350 300 l 1
 400 300 l 1x8814
 400 250 l 1
 400 200 l 1x9014
 450 200 l 1
 500 200 l 1x900c
 500 250 l 1
 500 300 l 1
 550 300 l 1
 600 300 l 1x880c
 600 450 l 1
 600 600 l 1
 650 600 l 1
 700 600 l 1
 700 550 l 1
 700 500 l 1
 850 500 l 1
 1000 500 l 1
 1000 450 l 1
 1000 400 l 1x860e
 850 400 l 1
 700 400 l 1
 700 250 l 1
 700 100 l 1
 750 100 l 1
 800 100 l 1xc605
 800 200 l 1xd606
 800 300 l 1x8806
 900 300 l 1x9005
 1000 300 l 1
 1000 250 l 1
 1000 200 l 1x9006
 950 200 l 1
 900 200 l 1
 900 150 l 1
 900 100 l 1xd005
 950 100 l 1
 1000 100 l 1
 1000 50 l 1
 1000 0 l 1xd006
 950 0 l 1
 900 0 l 1
 900 -50 l 1
 900 -100 l 1xd005
 950 -100 l 1
 1000 -100 l 1
 1000 -150 l 1
 1000 -200 l 1
 500 -200 l 1
 0 -200 l 1
 0 300 l 1xc84e
200 50 m 1xc064
 200 100 l 1xa084
 150 100 l 1
 100 100 l 1xa044
 100 50 l 1
 100 0 l 1
 150 0 l 1
 200 0 l 1
 200 50 l 1xc064
400 50 m 1xc00d
 400 100 l 1
 350 100 l 1
 300 100 l 1xa02d
 300 0 l 1xc02d
 300 -100 l 1xc014
 550 -100 l 1
 800 -100 l 1
 800 -50 l 1
 800 0 l 1
 600 0 l 1
 400 0 l 1
 400 50 l 1xc00d
EndSplineSet
Validated: 5
EndChar

StartChar: S
Encoding: 83 83 35
Width: 1000
VWidth: 0
HStem: -200 100<300 800 900 1000> 0 100<900 1000> 100 100<500 600> 200 100<200 300 800 1000> 300 100<400 500> 400 100<600 700 800 1000> 500 100<500 600> 600 100<100 200 300 400 900 1000> 700 100<200 300 600 700 800 900>
VStem: 0 200<100 200 600 700> 0 100<300 600 700 800> 200 100<700 800> 300 100<400 500> 400 100<0 100 700 800> 500 100<500 600> 600 100<0 100 200 300 700 800> 700 100<500 700> 800 100<-100 0 700 800> 900 100<0 100 600 700>
LayerCount: 2
Back
Fore
SplineSet
800 250 m 1x900040
 800 300 l 1x900040
 900 300 l 1
 1000 300 l 1
 1000 250 l 1
 1000 200 l 1
 900 200 l 1x900020
 800 200 l 1
 800 250 l 1x900040
0 300 m 1xc82220
 0 800 l 1
 50 800 l 1
 100 800 l 1xc8a220
 100 750 l 1
 100 700 l 1x812220
 150 700 l 1
 200 700 l 1x8140
 200 750 l 1
 200 800 l 1
 250 800 l 1
 300 800 l 1x8090
 300 750 l 1
 300 700 l 1
 350 700 l 1
 400 700 l 1x8114
 400 750 l 1
 400 800 l 1
 450 800 l 1
 500 800 l 1
 500 700 l 1x8094
 500 600 l 1
 550 600 l 1
 600 600 l 1x8282
 600 550 l 1
 600 500 l 1
 650 500 l 1
 700 500 l 1
 700 600 l 1x850280
 700 700 l 1
 650 700 l 1
 600 700 l 1
 600 750 l 1
 600 800 l 1
 650 800 l 1
 700 800 l 1
 700 750 l 1
 700 700 l 1x8081
 750 700 l 1
 800 700 l 1x808080
 800 750 l 1
 800 800 l 1
 850 800 l 1
 900 800 l 1x808040
 900 750 l 1
 900 700 l 1x810040
 950 700 l 1
 1000 700 l 1
 1000 650 l 1
 1000 600 l 1
 950 600 l 1
 900 600 l 1
 900 650 l 1x810020
 900 700 l 1x810040
 850 700 l 1
 800 700 l 1x808080
 800 600 l 1
 800 500 l 1
 900 500 l 1
 1000 500 l 1
 1000 450 l 1
 1000 400 l 1x8500a0
 800 400 l 1
 600 400 l 1
 600 450 l 1x850140
 600 500 l 1x8502
 550 500 l 1
 500 500 l 1
 500 550 l 1
 500 600 l 1x8202
 400 600 l 1x8104
 300 600 l 1
 300 650 l 1x8108
 300 700 l 1x8110
 250 700 l 1x8090
 200 700 l 1
 200 650 l 1
 200 600 l 1x8140
 150 600 l 1
 100 600 l 1
 100 450 l 1
 100 300 l 1x8920
 200 300 l 1x9030
 300 300 l 1
 300 400 l 1x9408
 300 500 l 1
 350 500 l 1
 400 500 l 1
 400 450 l 1
 400 400 l 1
 450 400 l 1
 500 400 l 1
 500 350 l 1
 500 300 l 1x8a0a
 450 300 l 1
 400 300 l 1x8a04
 400 250 l 1
 400 200 l 1x9004
 500 200 l 1xa002
 600 200 l 1
 600 250 l 1
 600 300 l 1
 650 300 l 1
 700 300 l 1xa801
 700 150 l 1xa80080
 700 0 l 1
 650 0 l 1
 600 0 l 1xc801
 600 50 l 1
 600 100 l 1
 550 100 l 1
 500 100 l 1xa005
 500 50 l 1
 500 0 l 1
 450 0 l 1
 400 0 l 1xc005
 400 50 l 1
 400 100 l 1xa005
 350 100 l 1
 300 100 l 1xa008
 300 0 l 1
 300 -100 l 1
 550 -100 l 1
 800 -100 l 1
 800 -50 l 1
 800 0 l 1
 850 0 l 1
 900 0 l 1xc00840
 900 50 l 1
 900 100 l 1
 950 100 l 1
 1000 100 l 1
 1000 50 l 1
 1000 0 l 1xc00020
 950 0 l 1
 900 0 l 1
 900 -50 l 1
 900 -100 l 1xc00040
 950 -100 l 1
 1000 -100 l 1
 1000 -150 l 1
 1000 -200 l 1
 500 -200 l 1
 0 -200 l 1
 0 300 l 1xc82220
300 150 m 1xa048
 300 200 l 1
 250 200 l 1
 200 200 l 1x9048
 200 150 l 1
 200 100 l 1
 250 100 l 1
 300 100 l 1
 300 150 l 1xa048
EndSplineSet
Validated: 5
EndChar

StartChar: T
Encoding: 84 84 36
Width: 1000
VWidth: 0
HStem: -200 100<100 700 800 1000> 0 100<100 300 500 600 800 1000> 200 100<900 1000> 300 100<200 300> 400 100<300 400 600 1000> 600 100<100 200 300 400 900 1000> 700 100<200 300 600 700>
VStem: 0 100<-100 0 100 600 700 800> 200 100<300 400 700 800> 400 100<100 200 500 600 700 800> 500 100<300 400> 600 100<700 800> 700 100<-100 0 200 300> 800 100<700 800> 900 100<200 300>
LayerCount: 2
Back
Fore
SplineSet
200 350 m 1xd180
 200 400 l 1
 250 400 l 1
 300 400 l 1
 300 350 l 1
 300 300 l 1
 250 300 l 1
 200 300 l 1
 200 350 l 1xd180
900 250 m 1xe182
 900 300 l 1
 950 300 l 1
 1000 300 l 1
 1000 250 l 1
 1000 200 l 1
 950 200 l 1
 900 200 l 1
 900 250 l 1xe182
800 700 m 1xc384
 800 800 l 1
 850 800 l 1
 900 800 l 1xc384
 900 750 l 1
 900 700 l 1xc584
 950 700 l 1
 1000 700 l 1
 1000 650 l 1
 1000 600 l 1
 900 600 l 1xc582
 800 600 l 1xc584
 800 700 l 1xc384
600 750 m 1xc390
 600 800 l 1
 650 800 l 1
 700 800 l 1
 700 750 l 1
 700 700 l 1
 650 700 l 1
 600 700 l 1
 600 750 l 1xc390
0 300 m 1xd1aa
 0 800 l 1
 50 800 l 1
 100 800 l 1xd3aa
 100 750 l 1
 100 700 l 1
 150 700 l 1
 200 700 l 1xc5aa
 200 750 l 1
 200 800 l 1
 250 800 l 1
 300 800 l 1xc3aa
 300 750 l 1
 300 700 l 1
 350 700 l 1
 400 700 l 1xc5c0
 400 750 l 1
 400 800 l 1
 450 800 l 1
 500 800 l 1xc3c0
 500 650 l 1xc3a0
 500 500 l 1
 750 500 l 1
 1000 500 l 1
 1000 450 l 1
 1000 400 l 1xcbc2
 800 400 l 1
 600 400 l 1xcba4
 600 300 l 1xd1a4
 600 200 l 1xe190
 650 200 l 1
 700 200 l 1xe188
 700 250 l 1
 700 300 l 1
 750 300 l 1
 800 300 l 1xd188
 800 200 l 1xe188
 800 100 l 1xe184
 900 100 l 1
 1000 100 l 1
 1000 50 l 1
 1000 0 l 1
 900 0 l 1
 800 0 l 1
 800 -50 l 1
 800 -100 l 1
 900 -100 l 1
 1000 -100 l 1
 1000 -150 l 1
 1000 -200 l 1
 500 -200 l 1
 0 -200 l 1
 0 300 l 1xd1aa
300 650 m 1
 300 700 l 1xcdc0
 250 700 l 1xc3c0
 200 700 l 1
 200 650 l 1
 200 600 l 1
 150 600 l 1
 100 600 l 1
 100 350 l 1
 100 100 l 1
 200 100 l 1
 300 100 l 1
 300 50 l 1
 300 0 l 1
 200 0 l 1
 100 0 l 1
 100 -50 l 1
 100 -100 l 1
 400 -100 l 1
 700 -100 l 1
 700 -50 l 1
 700 0 l 1
 750 0 l 1
 800 0 l 1xc5c8
 800 50 l 1
 800 100 l 1xc584
 750 100 l 1
 700 100 l 1
 700 50 l 1
 700 0 l 1
 550 0 l 1
 400 0 l 1
 400 150 l 1
 400 300 l 1xd5c8
 450 300 l 1
 500 300 l 1xd5a0
 500 350 l 1
 500 400 l 1xc9a0
 400 400 l 1xc9c0
 300 400 l 1xd1c0
 300 450 l 1
 300 500 l 1
 350 500 l 1
 400 500 l 1
 400 550 l 1
 400 600 l 1
 350 600 l 1
 300 600 l 1xcdc0
 300 650 l 1
600 150 m 1xe1d0
 600 200 l 1
 550 200 l 1
 500 200 l 1
 500 150 l 1
 500 100 l 1
 550 100 l 1
 600 100 l 1
 600 150 l 1xe1d0
EndSplineSet
Validated: 5
EndChar

StartChar: U
Encoding: 85 85 37
Width: 1000
VWidth: 0
HStem: -200 100<100 700 800 1000> 0 100<200 300 900 1000> 100 100<800 900> 200 100<100 300 900 1000> 300 300<500 700> 400 100<800 1000> 600 100<100 200 300 400 900 1000> 700 100<200 300 600 700 800 900>
VStem: 0 100<-100 200 300 600 700 800> 200 100<0 100 700 800> 400 100<0 300 700 800> 600 100<700 800> 700 100<-100 0 200 300 600 700> 800 100<700 800> 900 100<0 100 200 300 600 700>
LayerCount: 2
Back
Fore
SplineSet
200 50 m 1xc0e0
 200 100 l 1
 250 100 l 1
 300 100 l 1
 300 50 l 1
 300 0 l 1
 250 0 l 1
 200 0 l 1
 200 50 l 1xc0e0
0 300 m 1xc8ea
 0 800 l 1
 50 800 l 1
 100 800 l 1xc9ea
 100 750 l 1
 100 700 l 1
 150 700 l 1
 200 700 l 1x82ea
 200 750 l 1
 200 800 l 1
 250 800 l 1
 300 800 l 1x81ea
 300 750 l 1
 300 700 l 1
 350 700 l 1
 400 700 l 1x82ea
 400 750 l 1
 400 800 l 1
 450 800 l 1
 500 800 l 1
 500 700 l 1
 500 600 l 1
 600 600 l 1x89f2
 700 600 l 1
 700 650 l 1x89e8
 700 700 l 1
 650 700 l 1
 600 700 l 1
 600 750 l 1
 600 800 l 1
 650 800 l 1
 700 800 l 1
 700 750 l 1
 700 700 l 1x89f0
 750 700 l 1
 800 700 l 1x89e8
 800 750 l 1
 800 800 l 1
 850 800 l 1
 900 800 l 1x89e4
 900 750 l 1
 900 700 l 1x82e4
 950 700 l 1
 1000 700 l 1
 1000 650 l 1
 1000 600 l 1
 950 600 l 1
 900 600 l 1
 900 650 l 1x82e2
 900 700 l 1x82e4
 850 700 l 1
 800 700 l 1x81e8
 800 600 l 1x82e8
 800 500 l 1x86e4
 900 500 l 1
 1000 500 l 1
 1000 450 l 1
 1000 400 l 1
 850 400 l 1
 700 400 l 1x86ea
 700 350 l 1
 700 300 l 1
 750 300 l 1
 800 300 l 1
 800 250 l 1
 800 200 l 1
 850 200 l 1
 900 200 l 1xa8ea
 900 250 l 1
 900 300 l 1
 950 300 l 1
 1000 300 l 1
 1000 250 l 1
 1000 200 l 1
 950 200 l 1x90ea
 900 200 l 1xa0ea
 900 150 l 1
 900 100 l 1
 950 100 l 1
 1000 100 l 1
 1000 50 l 1
 1000 0 l 1
 950 0 l 1
 900 0 l 1
 900 50 l 1
 900 100 l 1xc0ea
 850 100 l 1
 800 100 l 1xa0e4
 800 0 l 1
 800 -100 l 1
 900 -100 l 1
 1000 -100 l 1
 1000 -150 l 1
 1000 -200 l 1
 500 -200 l 1
 0 -200 l 1
 0 300 l 1xc8ea
300 650 m 1
 300 700 l 1x96f0
 250 700 l 1x81f0
 200 700 l 1
 200 650 l 1
 200 600 l 1
 150 600 l 1
 100 600 l 1
 100 450 l 1
 100 300 l 1
 200 300 l 1
 300 300 l 1
 300 250 l 1
 300 200 l 1
 200 200 l 1
 100 200 l 1
 100 50 l 1
 100 -100 l 1
 400 -100 l 1
 700 -100 l 1
 700 -50 l 1
 700 0 l 1xd2e8
 650 0 l 1
 600 0 l 1xd2f0
 600 100 l 1xa0f0
 600 200 l 1x90f0
 650 200 l 1
 700 200 l 1x90e8
 700 250 l 1
 700 300 l 1x88e8
 600 300 l 1
 500 300 l 1
 500 150 l 1
 500 0 l 1
 450 0 l 1
 400 0 l 1
 400 150 l 1
 400 300 l 1
 350 300 l 1xc8f0
 300 300 l 1
 300 400 l 1
 300 500 l 1
 350 500 l 1
 400 500 l 1
 400 550 l 1
 400 600 l 1
 350 600 l 1
 300 600 l 1x96f0
 300 650 l 1
EndSplineSet
Validated: 5
EndChar

StartChar: V
Encoding: 86 86 38
Width: 1000
VWidth: 0
HStem: -200 100<100 200 300 700 900 1000> 0 100<400 500 900 1000> 100 100<600 700> 200 100<800 1000> 400 100<400 600 700 1000> 600 100<100 200 300 400 700 800 900 1000> 700 100<200 300 800 900>
VStem: 0 200<0 100 600 700> 0 100<-100 0 200 600 700 800> 200 100<-100 0 200 300 700 800> 300 100<300 400> 400 100<0 100 700 800> 500 100<200 300> 600 100<500 600 700 800> 700 300<0 100 200 300 400 500> 800 100<700 800> 900 100<600 700>
LayerCount: 2
Back
Fore
SplineSet
0 300 m 1xd88880
 0 800 l 1
 50 800 l 1
 100 800 l 1xda8880
 100 750 l 1
 100 700 l 1x8c8880
 150 700 l 1
 200 700 l 1x8d
 200 750 l 1
 200 800 l 1
 250 800 l 1
 300 800 l 1x8a40
 300 750 l 1
 300 700 l 1
 350 700 l 1
 400 700 l 1x8c50
 400 750 l 1
 400 800 l 1
 450 800 l 1
 500 800 l 1
 500 700 l 1x8a50
 500 600 l 1x8c08
 400 600 l 1x8c10
 300 600 l 1
 300 650 l 1x8c20
 300 700 l 1x8c40
 250 700 l 1x8a40
 200 700 l 1
 200 650 l 1
 200 600 l 1x8d
 150 600 l 1
 100 600 l 1
 100 400 l 1
 100 200 l 1
 150 200 l 1
 200 200 l 1
 200 250 l 1
 200 300 l 1
 250 300 l 1
 300 300 l 1x9cc0
 300 400 l 1
 300 500 l 1
 450 500 l 1
 600 500 l 1
 600 650 l 1
 600 800 l 1
 650 800 l 1
 700 800 l 1x9a24
 700 750 l 1
 700 700 l 1
 750 700 l 1
 800 700 l 1x8c25
 800 750 l 1
 800 800 l 1
 850 800 l 1
 900 800 l 1x8a25
 900 750 l 1
 900 700 l 1x8c25
 950 700 l 1
 1000 700 l 1
 1000 650 l 1
 1000 600 l 1
 950 600 l 1
 900 600 l 1
 900 650 l 1x8c0080
 900 700 l 1x8c01
 850 700 l 1x8a01
 800 700 l 1
 800 650 l 1
 800 600 l 1
 750 600 l 1
 700 600 l 1
 700 550 l 1
 700 500 l 1x8c05
 850 500 l 1
 1000 500 l 1
 1000 450 l 1
 1000 400 l 1
 850 400 l 1
 700 400 l 1
 700 450 l 1x8c02
 700 500 l 1
 650 500 l 1
 600 500 l 1
 600 450 l 1
 600 400 l 1x8c04
 500 400 l 1
 400 400 l 1
 400 350 l 1
 400 300 l 1x9c28
 350 300 l 1
 300 300 l 1
 300 200 l 1x9c40
 300 100 l 1
 250 100 l 1
 200 100 l 1xa920
 200 50 l 1
 200 0 l 1xc920
 250 0 l 1
 300 0 l 1
 300 -50 l 1
 300 -100 l 1
 500 -100 l 1
 700 -100 l 1
 700 0 l 1xc84a
 700 100 l 1xa84a
 600 100 l 1xa804
 500 100 l 1
 500 50 l 1
 500 0 l 1
 450 0 l 1
 400 0 l 1
 400 50 l 1
 400 100 l 1
 450 100 l 1
 500 100 l 1xc814
 500 200 l 1
 500 300 l 1
 550 300 l 1
 600 300 l 1xd808
 600 250 l 1
 600 200 l 1
 650 200 l 1
 700 200 l 1xa80a
 700 250 l 1
 700 300 l 1
 850 300 l 1
 1000 300 l 1
 1000 250 l 1
 1000 200 l 1x980a
 900 200 l 1x980080
 800 200 l 1x9801
 800 150 l 1
 800 100 l 1xa801
 900 100 l 1xc80080
 1000 100 l 1
 1000 50 l 1
 1000 0 l 1xc802
 950 0 l 1
 900 0 l 1
 900 -50 l 1
 900 -100 l 1
 950 -100 l 1
 1000 -100 l 1
 1000 -150 l 1
 1000 -200 l 1
 500 -200 l 1
 0 -200 l 1
 0 300 l 1xd88880
200 -50 m 1xc8c0
 200 0 l 1xc9
 150 0 l 1
 100 0 l 1
 100 -50 l 1
 100 -100 l 1
 150 -100 l 1
 200 -100 l 1
 200 -50 l 1xc8c0
EndSplineSet
Validated: 5
EndChar

StartChar: W
Encoding: 87 87 39
Width: 1000
VWidth: 0
HStem: -200 200<200 300 700 900> -200 100<100 200 300 700 900 1000> 0 100<400 500 900 1000> 100 100<200 300 600 700> 200 100<900 1000> 300 100<200 300 600 700> 400 200<500 600 700 800> 400 100<300 400 800 1000> 600 100<100 200 300 400 900 1000> 700 100<200 300>
VStem: 0 200<200 300 600 700> 0 100<-100 100 300 600 700 800> 200 100<-100 0 300 400 700 800> 400 100<300 400 700 800> 500 100<500 600> 600 100<300 400 600 800> 700 100<500 600> 800 100<700 800> 900 100<0 100>
LayerCount: 2
Back
Fore
SplineSet
200 350 m 1x0408
 200 400 l 1
 250 400 l 1
 300 400 l 1
 300 350 l 1
 300 300 l 1x0408
 250 300 l 1
 200 300 l 1x0420
 200 350 l 1x0408
0 300 m 1x4420
 0 800 l 1
 50 800 l 1
 100 800 l 1x4450
 100 750 l 1
 100 700 l 1x0090
 150 700 l 1
 200 700 l 1x00a0
 200 750 l 1
 200 800 l 1
 250 800 l 1
 300 800 l 1x0048
 300 750 l 1
 300 700 l 1
 350 700 l 1
 400 700 l 1x008c
 400 750 l 1
 400 800 l 1
 450 800 l 1
 500 800 l 1
 500 700 l 1x004c
 500 600 l 1
 550 600 l 1
 600 600 l 1x0242
 600 700 l 1
 600 800 l 1
 650 800 l 1
 700 800 l 1
 700 700 l 1
 700 600 l 1x0241
 750 600 l 1
 800 600 l 1x024080
 800 700 l 1
 800 800 l 1
 850 800 l 1
 900 800 l 1x024040
 900 750 l 1
 900 700 l 1x008040
 950 700 l 1
 1000 700 l 1
 1000 650 l 1
 1000 600 l 1
 900 600 l 1x008020
 800 600 l 1x0200a0
 800 550 l 1
 800 500 l 1
 900 500 l 1
 1000 500 l 1
 1000 450 l 1
 1000 400 l 1
 850 400 l 1x0100a0
 700 400 l 1
 700 350 l 1
 700 300 l 1
 850 300 l 1x040120
 1000 300 l 1
 1000 250 l 1
 1000 200 l 1
 950 200 l 1
 900 200 l 1
 900 150 l 1
 900 100 l 1
 950 100 l 1
 1000 100 l 1
 1000 50 l 1
 1000 0 l 1
 950 0 l 1x280120
 900 0 l 1x800120
 900 -50 l 1
 900 -100 l 1
 950 -100 l 1
 1000 -100 l 1
 1000 -150 l 1
 1000 -200 l 1
 500 -200 l 1
 0 -200 l 1x401220
 0 300 l 1x4420
300 650 m 1x008c
 300 700 l 1x008c
 250 700 l 1x004c
 200 700 l 1
 200 650 l 1
 200 600 l 1x00a0
 150 600 l 1
 100 600 l 1
 100 450 l 1
 100 300 l 1x0490
 150 300 l 1
 200 300 l 1
 200 250 l 1
 200 200 l 1x14a0
 250 200 l 1
 300 200 l 1
 300 150 l 1
 300 100 l 1
 200 100 l 1
 100 100 l 1x1498
 100 0 l 1
 100 -100 l 1
 150 -100 l 1
 200 -100 l 1x6018
 200 -50 l 1
 200 0 l 1
 250 0 l 1
 300 0 l 1x8018
 300 -50 l 1
 300 -100 l 1
 500 -100 l 1
 700 -100 l 1x401a80
 700 -50 l 1
 700 0 l 1x801a80
 800 0 l 1x800040
 900 0 l 1x800020
 900 50 l 1
 900 100 l 1x200020
 750 100 l 1
 600 100 l 1x100120
 600 50 l 1
 600 0 l 1x200120
 500 0 l 1x2002
 400 0 l 1
 400 50 l 1
 400 100 l 1x2004
 450 100 l 1
 500 100 l 1
 500 150 l 1
 500 200 l 1x2802
 600 200 l 1x1001
 700 200 l 1
 700 250 l 1x100080
 700 300 l 1
 650 300 l 1
 600 300 l 1
 600 350 l 1
 600 400 l 1
 650 400 l 1
 700 400 l 1x1401
 700 500 l 1x010080
 700 600 l 1x0201
 650 600 l 1x0081
 600 600 l 1x0202
 600 500 l 1x0102
 600 400 l 1x0401
 550 400 l 1
 500 400 l 1x0205
 500 350 l 1
 500 300 l 1
 450 300 l 1
 400 300 l 1x0405
 400 350 l 1
 400 400 l 1
 350 400 l 1x0105
 300 400 l 1x040d
 300 450 l 1
 300 500 l 1
 400 500 l 1x010d
 500 500 l 1x0102
 500 550 l 1
 500 600 l 1x0202
 400 600 l 1
 300 600 l 1
 300 650 l 1x008c
EndSplineSet
Validated: 5
EndChar

StartChar: X
Encoding: 88 88 40
Width: 1000
VWidth: 0
HStem: -200 200<600 800> -200 100<300 600 800 1000> 0 100<500 600 900 1000> 100 100<700 800> 200 100<300 400 900 1000> 300 100<100 200> 400 100<300 400 700 1000> 600 100<100 200 300 400 900 1000> 700 100<200 300 600 700 800 900>
VStem: 0 100<100 300 400 600 700 800> 200 100<100 200 700 800> 400 200<0 100 500 600> 400 100<100 200 700 800> 600 100<200 400 700 800> 800 100<700 800> 900 100<200 300 600 700>
LayerCount: 2
Back
Fore
SplineSet
800 750 m 1x00e2
 800 800 l 1
 850 800 l 1
 900 800 l 1x00e2
 900 750 l 1
 900 700 l 1x0162
 950 700 l 1
 1000 700 l 1
 1000 650 l 1
 1000 600 l 1
 950 600 l 1
 900 600 l 1
 900 650 l 1x0161
 900 700 l 1x0162
 850 700 l 1
 800 700 l 1
 800 750 l 1x00e2
600 750 m 1x00e4
 600 800 l 1
 650 800 l 1
 700 800 l 1
 700 750 l 1
 700 700 l 1
 650 700 l 1
 600 700 l 1
 600 750 l 1x00e4
0 300 m 1x4469
 0 800 l 1
 50 800 l 1
 100 800 l 1x44e9
 100 750 l 1
 100 700 l 1
 150 700 l 1
 200 700 l 1x0169
 200 750 l 1
 200 800 l 1
 250 800 l 1
 300 800 l 1x00e9
 300 750 l 1
 300 700 l 1
 350 700 l 1
 400 700 l 1x0169
 400 750 l 1
 400 800 l 1
 450 800 l 1
 500 800 l 1
 500 700 l 1x00e9
 500 600 l 1x0169
 550 600 l 1
 600 600 l 1
 600 500 l 1x0370
 600 400 l 1
 650 400 l 1
 700 400 l 1
 700 450 l 1
 700 500 l 1
 850 500 l 1
 1000 500 l 1
 1000 450 l 1
 1000 400 l 1
 850 400 l 1
 700 400 l 1x0365
 700 300 l 1
 700 200 l 1
 800 200 l 1x1466
 900 200 l 1
 900 250 l 1
 900 300 l 1
 950 300 l 1
 1000 300 l 1
 1000 250 l 1
 1000 200 l 1
 950 200 l 1
 900 200 l 1
 900 150 l 1
 900 100 l 1
 950 100 l 1
 1000 100 l 1
 1000 50 l 1
 1000 0 l 1
 900 0 l 1x2861
 800 0 l 1x8062
 800 -50 l 1
 800 -100 l 1x4062
 900 -100 l 1
 1000 -100 l 1
 1000 -150 l 1
 1000 -200 l 1
 500 -200 l 1
 0 -200 l 1
 0 300 l 1x4469
300 650 m 1
 300 700 l 1x0370
 250 700 l 1x00f0
 200 700 l 1
 200 650 l 1
 200 600 l 1
 150 600 l 1
 100 600 l 1
 100 500 l 1x0370
 100 400 l 1
 200 400 l 1x0470
 300 400 l 1
 300 350 l 1
 300 300 l 1
 400 300 l 1x0a68
 500 300 l 1x0468
 500 200 l 1
 500 100 l 1x2868
 550 100 l 1
 600 100 l 1x2870
 600 50 l 1
 600 0 l 1x8070
 500 0 l 1x2068
 400 0 l 1x2070
 400 100 l 1x1070
 400 200 l 1
 350 200 l 1
 300 200 l 1
 300 50 l 1
 300 -100 l 1
 450 -100 l 1
 600 -100 l 1
 600 -50 l 1x486c
 600 0 l 1x8070
 700 0 l 1
 800 0 l 1
 800 50 l 1
 800 100 l 1
 750 100 l 1
 700 100 l 1
 700 150 l 1
 700 200 l 1x9066
 650 200 l 1
 600 200 l 1x0866
 600 300 l 1x0466
 600 400 l 1x0266
 450 400 l 1
 300 400 l 1
 300 450 l 1
 300 500 l 1
 350 500 l 1
 400 500 l 1
 400 550 l 1
 400 600 l 1
 350 600 l 1
 300 600 l 1x0370
 300 650 l 1
200 200 m 1x0860
 200 300 l 1
 150 300 l 1
 100 300 l 1x0460
 100 200 l 1x0860
 100 100 l 1
 150 100 l 1
 200 100 l 1x1060
 200 200 l 1x0860
EndSplineSet
Validated: 5
EndChar

StartChar: Y
Encoding: 89 89 41
Width: 1000
VWidth: 0
HStem: -200 200<100 200 600 700> -200 100<300 600 800 1000> 0 100<900 1000> 200 100<500 700 900 1000> 400 100<500 600 800 1000> 500 100<600 700> 600 100<100 200 300 400 900 1000> 700 100<200 300 600 700>
VStem: 0 200<200 400 600 700> 0 100<0 200 400 600 700 800> 200 100<0 200 700 800> 300 200<300 400 600 700> 400 100<0 200 500 600 700 800> 600 100<700 800> 700 100<0 200> 800 100<700 800> 900 100<0 100 200 300>
LayerCount: 2
Back
Fore
SplineSet
900 50 m 1x300080
 900 100 l 1
 950 100 l 1
 1000 100 l 1
 1000 50 l 1
 1000 0 l 1
 950 0 l 1
 900 0 l 1
 900 50 l 1x300080
900 250 m 1
 900 300 l 1
 950 300 l 1
 1000 300 l 1
 1000 250 l 1
 1000 200 l 1
 950 200 l 1
 900 200 l 1
 900 250 l 1
0 300 m 1x5880
 0 800 l 1
 50 800 l 1
 100 800 l 1x5940
 100 750 l 1
 100 700 l 1x1240
 150 700 l 1
 200 700 l 1x1280
 200 750 l 1
 200 800 l 1
 250 800 l 1
 300 800 l 1x1120
 300 750 l 1
 300 700 l 1
 350 700 l 1
 400 700 l 1x1228
 400 750 l 1
 400 800 l 1
 450 800 l 1
 500 800 l 1x1128
 500 650 l 1x1110
 500 500 l 1
 550 500 l 1
 600 500 l 1x190c
 600 550 l 1
 600 600 l 1x140c
 650 600 l 1
 700 600 l 1
 700 650 l 1x1402
 700 700 l 1
 650 700 l 1
 600 700 l 1
 600 750 l 1
 600 800 l 1
 650 800 l 1
 700 800 l 1
 700 750 l 1
 700 700 l 1
 750 700 l 1
 800 700 l 1
 800 750 l 1
 800 800 l 1
 850 800 l 1
 900 800 l 1x1505
 900 750 l 1
 900 700 l 1x1205
 950 700 l 1
 1000 700 l 1
 1000 650 l 1
 1000 600 l 1
 900 600 l 1x120080
 800 600 l 1
 800 550 l 1
 800 500 l 1x1a01
 900 500 l 1
 1000 500 l 1
 1000 450 l 1
 1000 400 l 1
 850 400 l 1
 700 400 l 1x1a0280
 700 450 l 1
 700 500 l 1
 650 500 l 1x140280
 600 500 l 1
 600 450 l 1
 600 400 l 1
 550 400 l 1
 500 400 l 1
 500 350 l 1
 500 300 l 1
 600 300 l 1x1814
 700 300 l 1
 700 250 l 1
 700 200 l 1
 750 200 l 1
 800 200 l 1
 800 50 l 1x1802
 800 -100 l 1x5801
 900 -100 l 1
 1000 -100 l 1
 1000 -150 l 1
 1000 -200 l 1
 500 -200 l 1
 0 -200 l 1x584880
 0 300 l 1x5880
300 650 m 1x1210
 300 700 l 1x1220
 250 700 l 1x1120
 200 700 l 1
 200 650 l 1
 200 600 l 1x1280
 150 600 l 1
 100 600 l 1x1240
 100 500 l 1x1440
 100 400 l 1x1840
 150 400 l 1
 200 400 l 1
 200 300 l 1
 200 200 l 1x1880
 150 200 l 1
 100 200 l 1
 100 100 l 1x3840
 100 0 l 1
 150 0 l 1
 200 0 l 1x9060
 200 100 l 1x3060
 200 200 l 1x3080
 250 200 l 1
 300 200 l 1
 300 50 l 1x3020
 300 -100 l 1
 450 -100 l 1
 600 -100 l 1x7014
 600 -50 l 1
 600 0 l 1x9014
 650 0 l 1
 700 0 l 1x9002
 700 100 l 1
 700 200 l 1x3002
 600 200 l 1
 500 200 l 1
 500 100 l 1
 500 0 l 1
 450 0 l 1
 400 0 l 1
 400 100 l 1
 400 200 l 1
 350 200 l 1
 300 200 l 1x302c
 300 350 l 1
 300 500 l 1x3410
 350 500 l 1
 400 500 l 1x3408
 400 550 l 1
 400 600 l 1x1208
 350 600 l 1
 300 600 l 1
 300 650 l 1x1210
EndSplineSet
Validated: 5
EndChar

StartChar: Z
Encoding: 90 90 42
Width: 1000
VWidth: 0
HStem: -200 100<200 600 900 1000> 0 100<400 500 900 1000> 100 100<500 600> 200 100<900 1000> 300 100<100 200> 400 100<400 500 700 1000> 600 100<100 200 300 400 700 800 900 1000> 700 100<200 300>
VStem: 0 200<-100 200 300 400 600 700> 0 100<200 300 400 600 700 800> 200 100<700 800> 300 100<200 400> 400 100<0 100 700 800> 500 100<100 200> 600 100<200 300 700 800> 800 100<700 800>
LayerCount: 2
Back
Fore
SplineSet
500 150 m 1xc005
 500 200 l 1
 550 200 l 1
 600 200 l 1
 600 150 l 1
 600 100 l 1
 550 100 l 1xa005
 500 100 l 1
 500 50 l 1
 500 0 l 1
 450 0 l 1
 400 0 l 1
 400 50 l 1
 400 100 l 1
 450 100 l 1
 500 100 l 1xc009
 500 150 l 1xc005
0 300 m 1xc881
 0 800 l 1
 50 800 l 1
 100 800 l 1xc941
 100 750 l 1
 100 700 l 1x8241
 150 700 l 1
 200 700 l 1x8281
 200 750 l 1
 200 800 l 1
 250 800 l 1
 300 800 l 1x8121
 300 750 l 1
 300 700 l 1
 350 700 l 1
 400 700 l 1x8229
 400 750 l 1
 400 800 l 1
 450 800 l 1
 500 800 l 1
 500 700 l 1x8129
 500 600 l 1x8205
 550 600 l 1
 600 600 l 1x8203
 600 700 l 1
 600 800 l 1
 650 800 l 1
 700 800 l 1x8103
 700 750 l 1
 700 700 l 1
 750 700 l 1
 800 700 l 1x8203
 800 750 l 1
 800 800 l 1
 850 800 l 1
 900 800 l 1x8103
 900 750 l 1
 900 700 l 1
 950 700 l 1
 1000 700 l 1
 1000 650 l 1
 1000 600 l 1
 850 600 l 1
 700 600 l 1
 700 550 l 1
 700 500 l 1
 850 500 l 1
 1000 500 l 1
 1000 450 l 1
 1000 400 l 1
 850 400 l 1
 700 400 l 1x8603
 700 300 l 1x8803
 700 200 l 1
 750 200 l 1
 800 200 l 1x9003
 800 250 l 1
 800 300 l 1x8803
 900 300 l 1
 1000 300 l 1
 1000 250 l 1
 1000 200 l 1
 950 200 l 1
 900 200 l 1
 900 150 l 1
 900 100 l 1
 950 100 l 1
 1000 100 l 1
 1000 50 l 1
 1000 0 l 1
 950 0 l 1
 900 0 l 1
 900 -50 l 1
 900 -100 l 1
 950 -100 l 1
 1000 -100 l 1
 1000 -150 l 1
 1000 -200 l 1
 500 -200 l 1
 0 -200 l 1xd045
 0 300 l 1xc881
300 650 m 1x9611
 300 700 l 1x9621
 250 700 l 1x8121
 200 700 l 1
 200 650 l 1
 200 600 l 1x8281
 150 600 l 1
 100 600 l 1
 100 500 l 1x8641
 100 400 l 1x8841
 150 400 l 1
 200 400 l 1
 200 350 l 1
 200 300 l 1x8881
 150 300 l 1
 100 300 l 1x8841
 100 250 l 1
 100 200 l 1x9041
 150 200 l 1
 200 200 l 1
 200 50 l 1
 200 -100 l 1
 400 -100 l 1
 600 -100 l 1
 600 0 l 1xd08b
 600 100 l 1xa005
 650 100 l 1
 700 100 l 1xa003
 700 150 l 1
 700 200 l 1
 650 200 l 1x9003
 600 200 l 1xa005
 600 250 l 1
 600 300 l 1xa803
 550 300 l 1
 500 300 l 1xa805
 500 350 l 1
 500 400 l 1
 450 400 l 1
 400 400 l 1x8415
 400 300 l 1x8815
 400 200 l 1
 350 200 l 1
 300 200 l 1
 300 350 l 1
 300 500 l 1x9415
 400 500 l 1x9409
 500 500 l 1
 500 550 l 1
 500 600 l 1x9605
 400 600 l 1x9609
 300 600 l 1
 300 650 l 1x9611
EndSplineSet
Validated: 5
EndChar

StartChar: bracketleft
Encoding: 91 91 43
Width: 1000
VWidth: 0
HStem: -200 100<200 600 700 1000> 0 100<200 300 400 600 900 1000> 100 100<300 400> 200 100<100 200 900 1000> 300 100<200 300> 400 100<900 1000> 600 100<100 200 300 400 900 1000> 700 100<200 300 600 700>
VStem: 0 200<-100 0 200 300 600 700> 0 100<100 200 300 600 700 800> 200 100<700 800> 300 100<100 200 400 500> 400 100<700 800> 600 100<-100 0 700 800> 700 100<200 300> 800 100<300 400 700 800> 900 100<200 300>
LayerCount: 2
Back
Fore
SplineSet
0 300 m 1xc880
 0 800 l 1
 50 800 l 1
 100 800 l 1xc940
 100 750 l 1
 100 700 l 1x8240
 150 700 l 1
 200 700 l 1x8280
 200 750 l 1
 200 800 l 1
 250 800 l 1
 300 800 l 1x8120
 300 750 l 1
 300 700 l 1
 350 700 l 1
 400 700 l 1x8228
 400 750 l 1
 400 800 l 1
 450 800 l 1
 500 800 l 1
 500 700 l 1x8128
 500 600 l 1
 400 600 l 1x8228
 300 600 l 1
 300 650 l 1x8210
 300 700 l 1x8220
 250 700 l 1x8120
 200 700 l 1
 200 650 l 1
 200 600 l 1x8280
 150 600 l 1
 100 600 l 1
 100 450 l 1
 100 300 l 1x9240
 150 300 l 1
 200 300 l 1x9280
 200 350 l 1
 200 400 l 1x8820
 250 400 l 1
 300 400 l 1x8810
 300 450 l 1
 300 500 l 1
 350 500 l 1
 400 500 l 1
 400 400 l 1x8410
 400 300 l 1x8808
 300 300 l 1x8810
 200 300 l 1
 200 250 l 1
 200 200 l 1x9090
 150 200 l 1
 100 200 l 1x9040
 100 150 l 1
 100 100 l 1xa040
 200 100 l 1xc060
 300 100 l 1xc010
 300 150 l 1
 300 200 l 1
 350 200 l 1
 400 200 l 1xa010
 400 150 l 1
 400 100 l 1
 550 100 l 1xc010
 700 100 l 1xa012
 700 200 l 1x9012
 700 300 l 1x8812
 600 300 l 1
 500 300 l 1x880c
 500 400 l 1
 500 500 l 1
 600 500 l 1x840c
 700 500 l 1
 700 600 l 1x8602
 700 700 l 1
 650 700 l 1
 600 700 l 1
 600 750 l 1
 600 800 l 1
 650 800 l 1
 700 800 l 1
 700 750 l 1
 700 700 l 1
 750 700 l 1
 800 700 l 1
 800 750 l 1
 800 800 l 1
 850 800 l 1
 900 800 l 1x8105
 900 750 l 1
 900 700 l 1x8205
 950 700 l 1
 1000 700 l 1
 1000 650 l 1
 1000 600 l 1
 950 600 l 1
 900 600 l 1
 900 550 l 1
 900 500 l 1
 950 500 l 1
 1000 500 l 1
 1000 450 l 1
 1000 400 l 1x860080
 950 400 l 1
 900 400 l 1
 900 350 l 1
 900 300 l 1x9601
 950 300 l 1
 1000 300 l 1
 1000 250 l 1
 1000 200 l 1
 950 200 l 1
 900 200 l 1
 900 150 l 1
 900 100 l 1
 950 100 l 1
 1000 100 l 1
 1000 50 l 1
 1000 0 l 1
 900 0 l 1xd60080
 800 0 l 1xd601
 800 50 l 1
 800 100 l 1xa001
 750 100 l 1
 700 100 l 1xa002
 700 0 l 1
 700 -100 l 1
 850 -100 l 1
 1000 -100 l 1
 1000 -150 l 1
 1000 -200 l 1
 500 -200 l 1
 0 -200 l 1xc04c80
 0 300 l 1xc880
800 350 m 1x8801
 800 400 l 1x8401
 750 400 l 1
 700 400 l 1x8402
 700 350 l 1
 700 300 l 1
 750 300 l 1
 800 300 l 1x8802
 800 250 l 1
 800 200 l 1
 850 200 l 1
 900 200 l 1
 900 250 l 1x900280
 900 300 l 1x9001
 850 300 l 1
 800 300 l 1x8802
 800 350 l 1x8801
400 50 m 1xc08c
 400 100 l 1xc010
 350 100 l 1xa010
 300 100 l 1
 300 50 l 1
 300 0 l 1xc010
 250 0 l 1
 200 0 l 1
 200 -50 l 1
 200 -100 l 1
 400 -100 l 1
 600 -100 l 1
 600 -50 l 1
 600 0 l 1
 500 0 l 1
 400 0 l 1
 400 50 l 1xc08c
EndSplineSet
Validated: 5
EndChar

StartChar: backslash
Encoding: 92 92 44
Width: 1000
VWidth: 0
HStem: -200 200<200 300 600 700> -200 100<300 600 700 800 900 1000> 0 100<900 1000> 100 100<300 400 500 600> 200 100<900 1000> 300 100<600 700> 400 100<300 400 500 600 900 1000> 500 300<400 500 600 700> 600 100<100 200 300 400 900 1000> 700 100<200 300 800 900>
VStem: 0 200<0 100 600 700> 0 100<300 600 700 800> 200 100<700 800> 300 100<400 500> 400 100<0 100 200 300 500 600 700 800> 500 100<400 500> 600 100<-100 0 300 400 600 800> 700 200<100 200> 800 100<-100 0 300 400 700 800> 900 100<600 700>
LayerCount: 2
Back
Fore
SplineSet
600 350 m 1x040080
 600 400 l 1x0401
 650 400 l 1
 700 400 l 1
 700 350 l 1
 700 300 l 1
 650 300 l 1
 600 300 l 1
 600 350 l 1x040080
300 450 m 1x0204
 300 500 l 1
 350 500 l 1
 400 500 l 1
 400 450 l 1
 400 400 l 1
 350 400 l 1
 300 400 l 1
 300 450 l 1x0204
0 300 m 1x641110
 0 800 l 1
 50 800 l 1
 100 800 l 1x645110
 100 750 l 1
 100 700 l 1x009110
 150 700 l 1
 200 700 l 1x00a0
 200 750 l 1
 200 800 l 1
 250 800 l 1
 300 800 l 1x0048
 300 750 l 1
 300 700 l 1
 350 700 l 1
 400 700 l 1x008a
 400 750 l 1
 400 800 l 1
 450 800 l 1
 500 800 l 1x010a
 500 650 l 1x0101
 500 500 l 1x0202
 550 500 l 1
 600 500 l 1x0201
 600 650 l 1
 600 800 l 1
 650 800 l 1
 700 800 l 1x010080
 700 700 l 1x004080
 700 600 l 1
 800 600 l 1x0080a0
 900 600 l 1
 900 650 l 1x008010
 900 700 l 1x008020
 850 700 l 1
 800 700 l 1
 800 750 l 1
 800 800 l 1
 850 800 l 1
 900 800 l 1x004020
 900 750 l 1
 900 700 l 1x008020
 950 700 l 1
 1000 700 l 1
 1000 650 l 1
 1000 600 l 1
 950 600 l 1
 900 600 l 1
 900 550 l 1
 900 500 l 1
 950 500 l 1
 1000 500 l 1
 1000 450 l 1
 1000 400 l 1x028010
 950 400 l 1
 900 400 l 1
 900 350 l 1
 900 300 l 1x0a8020
 950 300 l 1
 1000 300 l 1
 1000 250 l 1
 1000 200 l 1x0a8010
 950 200 l 1
 900 200 l 1
 900 150 l 1
 900 100 l 1x2a8040
 950 100 l 1
 1000 100 l 1
 1000 50 l 1
 1000 0 l 1x2a8010
 950 0 l 1
 900 0 l 1
 900 -50 l 1
 900 -100 l 1x6a8020
 950 -100 l 1
 1000 -100 l 1
 1000 -150 l 1
 1000 -200 l 1
 500 -200 l 1
 0 -200 l 1
 0 300 l 1x641110
300 650 m 1x0284
 300 700 l 1x0288
 250 700 l 1x0048
 200 700 l 1
 200 650 l 1
 200 600 l 1x00a0
 150 600 l 1
 100 600 l 1
 100 450 l 1
 100 300 l 1
 200 300 l 1x0498
 300 300 l 1
 300 250 l 1
 300 200 l 1x1484
 350 200 l 1
 400 200 l 1
 400 250 l 1
 400 300 l 1
 450 300 l 1
 500 300 l 1
 500 250 l 1
 500 200 l 1
 550 200 l 1
 600 200 l 1
 600 150 l 1
 600 100 l 1
 550 100 l 1
 500 100 l 1x148280
 500 50 l 1
 500 0 l 1
 450 0 l 1
 400 0 l 1x200280
 400 50 l 1
 400 100 l 1x100280
 300 100 l 1
 200 100 l 1
 200 50 l 1
 200 0 l 1
 250 0 l 1
 300 0 l 1x9024
 300 -50 l 1
 300 -100 l 1
 450 -100 l 1
 600 -100 l 1x402480
 600 -50 l 1
 600 0 l 1
 650 0 l 1
 700 0 l 1x802480
 700 -50 l 1
 700 -100 l 1
 750 -100 l 1
 800 -100 l 1
 800 -50 l 1
 800 0 l 1
 750 0 l 1x6024a0
 700 0 l 1x8024a0
 700 150 l 1x800040
 700 300 l 1
 750 300 l 1
 800 300 l 1x8400a0
 800 350 l 1
 800 400 l 1
 750 400 l 1x0200a0
 700 400 l 1x0400a0
 700 450 l 1
 700 500 l 1
 650 500 l 1x050040
 600 500 l 1x020140
 600 450 l 1
 600 400 l 1x040140
 550 400 l 1
 500 400 l 1
 500 450 l 1x020140
 500 500 l 1x0202
 450 500 l 1x0102
 400 500 l 1x0204
 400 550 l 1
 400 600 l 1x0282
 350 600 l 1
 300 600 l 1
 300 650 l 1x0284
EndSplineSet
Validated: 5
EndChar

StartChar: bracketright
Encoding: 93 93 45
Width: 1000
VWidth: 0
HStem: -200 200<100 300 600 700 800 900> -200 100<300 600 700 800 900 1000> 0 100<900 1000> 100 100<100 400> 200 100<900 1000> 300 100<200 300> 400 100<700 800 900 1000> 600 100<100 200 300 400 700 800 900 1000> 700 100<200 300>
VStem: 0 100<0 100 200 600 700 800> 200 100<700 800> 300 100<400 500> 400 100<700 800> 500 100<400 500> 600 100<-100 0 700 800> 700 100<100 200> 800 100<-100 0 300 400 500 600 700 800> 900 100<0 100>
LayerCount: 2
Back
Fore
SplineSet
0 300 m 1x444440
 0 800 l 1
 50 800 l 1
 100 800 l 1x44c440
 100 750 l 1
 100 700 l 1
 150 700 l 1
 200 700 l 1x016440
 200 750 l 1
 200 800 l 1
 250 800 l 1
 300 800 l 1x00e440
 300 750 l 1
 300 700 l 1
 350 700 l 1
 400 700 l 1x0168
 400 750 l 1
 400 800 l 1
 450 800 l 1
 500 800 l 1
 500 700 l 1x00e8
 500 600 l 1x0144
 550 600 l 1
 600 600 l 1x0142
 600 700 l 1
 600 800 l 1
 650 800 l 1
 700 800 l 1x00c2
 700 750 l 1
 700 700 l 1
 750 700 l 1
 800 700 l 1x014280
 800 750 l 1
 800 800 l 1
 850 800 l 1
 900 800 l 1x00c280
 900 750 l 1
 900 700 l 1x014280
 950 700 l 1
 1000 700 l 1
 1000 650 l 1
 1000 600 l 1x014040
 950 600 l 1
 900 600 l 1
 900 550 l 1
 900 500 l 1x034080
 950 500 l 1
 1000 500 l 1
 1000 450 l 1
 1000 400 l 1x034040
 950 400 l 1
 900 400 l 1
 900 350 l 1
 900 300 l 1x0b4080
 950 300 l 1
 1000 300 l 1
 1000 250 l 1
 1000 200 l 1
 900 200 l 1
 800 200 l 1x0b4140
 800 150 l 1
 800 100 l 1
 750 100 l 1
 700 100 l 1x104140
 700 200 l 1x084140
 700 300 l 1x044140
 750 300 l 1
 800 300 l 1x044080
 800 350 l 1
 800 400 l 1x024080
 750 400 l 1
 700 400 l 1
 700 450 l 1
 700 500 l 1x0241
 750 500 l 1
 800 500 l 1
 800 550 l 1
 800 600 l 1x034080
 700 600 l 1x0341
 600 600 l 1x0342
 600 500 l 1
 600 400 l 1
 550 400 l 1
 500 400 l 1x0344
 500 350 l 1
 500 300 l 1x0444
 550 300 l 1
 600 300 l 1
 600 150 l 1
 600 0 l 1
 650 0 l 1
 700 0 l 1x8442
 700 -50 l 1
 700 -100 l 1
 750 -100 l 1
 800 -100 l 1x404280
 800 -50 l 1
 800 0 l 1
 850 0 l 1
 900 0 l 1x804280
 900 50 l 1
 900 100 l 1
 950 100 l 1
 1000 100 l 1
 1000 50 l 1
 1000 0 l 1
 950 0 l 1x204040
 900 0 l 1x804080
 900 -50 l 1
 900 -100 l 1x404080
 950 -100 l 1
 1000 -100 l 1
 1000 -150 l 1
 1000 -200 l 1
 500 -200 l 1
 0 -200 l 1
 0 300 l 1x444440
300 650 m 1x0350
 300 700 l 1x0360
 250 700 l 1x00e0
 200 700 l 1
 200 650 l 1
 200 600 l 1
 150 600 l 1
 100 600 l 1
 100 400 l 1x0360
 100 200 l 1
 250 200 l 1
 400 200 l 1
 400 250 l 1
 400 300 l 1x1468
 300 300 l 1x1450
 200 300 l 1
 200 350 l 1
 200 400 l 1x1460
 250 400 l 1
 300 400 l 1x1450
 300 450 l 1
 300 500 l 1
 350 500 l 1
 400 500 l 1
 400 450 l 1
 400 400 l 1
 450 400 l 1
 500 400 l 1
 500 450 l 1
 500 500 l 1
 450 500 l 1
 400 500 l 1x0254
 400 550 l 1
 400 600 l 1x0348
 350 600 l 1
 300 600 l 1
 300 650 l 1x0350
400 50 m 1x2048
 400 100 l 1
 250 100 l 1
 100 100 l 1
 100 50 l 1
 100 0 l 1
 200 0 l 1x9068
 300 0 l 1x9050
 300 -50 l 1
 300 -100 l 1
 450 -100 l 1
 600 -100 l 1x4052
 600 -50 l 1
 600 0 l 1x8052
 500 0 l 1x2044
 400 0 l 1
 400 50 l 1x2048
EndSplineSet
Validated: 5
EndChar

StartChar: asciicircum
Encoding: 94 94 46
Width: 1000
VWidth: 0
HStem: -200 200<200 300 800 900> -200 100<100 200 300 600 700 800 900 1000> 0 100<100 200 400 500 900 1000> 100 100<200 400> 200 100<400 500 900 1000> 300 100<200 300> 400 100<600 700 900 1000> 600 100<100 200 300 400 900 1000> 700 100<200 300 600 700 800 900>
VStem: 0 200<0 100 600 700> 0 100<-100 0 100 600 700 800> 200 100<-100 0 700 800> 300 100<400 500> 400 100<700 800> 500 100<300 400> 600 100<-100 0 700 800> 700 100<500 600> 800 100<-100 0 300 400 700 800> 900 100<0 100 400 500 600 700>
LayerCount: 2
Back
Fore
SplineSet
800 750 m 1x008040
 800 800 l 1
 850 800 l 1
 900 800 l 1x008040
 900 750 l 1
 900 700 l 1x010040
 950 700 l 1
 1000 700 l 1
 1000 650 l 1
 1000 600 l 1
 950 600 l 1
 900 600 l 1
 900 650 l 1x010020
 900 700 l 1x010040
 850 700 l 1
 800 700 l 1
 800 750 l 1x008040
600 750 m 1x0081
 600 800 l 1
 650 800 l 1
 700 800 l 1
 700 750 l 1
 700 700 l 1
 650 700 l 1
 600 700 l 1
 600 750 l 1x0081
0 300 m 1x442220
 0 800 l 1
 50 800 l 1
 100 800 l 1x44a220
 100 750 l 1
 100 700 l 1x012220
 150 700 l 1
 200 700 l 1x0140
 200 750 l 1
 200 800 l 1
 250 800 l 1
 300 800 l 1x0090
 300 750 l 1
 300 700 l 1
 350 700 l 1
 400 700 l 1x0114
 400 750 l 1
 400 800 l 1
 450 800 l 1
 500 800 l 1
 500 700 l 1x0094
 500 600 l 1x0102
 400 600 l 1x0104
 300 600 l 1
 300 650 l 1x0108
 300 700 l 1x0110
 250 700 l 1x0090
 200 700 l 1
 200 650 l 1
 200 600 l 1x0140
 150 600 l 1
 100 600 l 1
 100 350 l 1
 100 100 l 1x2120
 150 100 l 1
 200 100 l 1x2140
 200 150 l 1
 200 200 l 1x1010
 300 200 l 1x1008
 400 200 l 1x1004
 400 250 l 1
 400 300 l 1x0804
 300 300 l 1x0408
 200 300 l 1
 200 350 l 1
 200 400 l 1x0410
 250 400 l 1
 300 400 l 1x0408
 300 450 l 1
 300 500 l 1
 350 500 l 1
 400 500 l 1
 400 400 l 1x0208
 400 300 l 1x0a04
 450 300 l 1
 500 300 l 1
 500 350 l 1
 500 400 l 1
 550 400 l 1
 600 400 l 1x0a02
 600 450 l 1
 600 500 l 1x0a01
 650 500 l 1
 700 500 l 1
 700 550 l 1
 700 600 l 1
 750 600 l 1
 800 600 l 1
 800 500 l 1x0b0080
 800 400 l 1
 850 400 l 1
 900 400 l 1x0b0040
 900 450 l 1
 900 500 l 1
 950 500 l 1
 1000 500 l 1
 1000 450 l 1
 1000 400 l 1x0b0020
 950 400 l 1
 900 400 l 1
 900 350 l 1
 900 300 l 1x0b0040
 950 300 l 1
 1000 300 l 1
 1000 250 l 1
 1000 200 l 1
 900 200 l 1x0b0020
 800 200 l 1x0b0040
 800 300 l 1x040040
 800 400 l 1x020040
 700 400 l 1
 600 400 l 1x020280
 600 300 l 1x040280
 600 200 l 1x0801
 650 200 l 1
 700 200 l 1
 700 50 l 1x080080
 700 -100 l 1
 750 -100 l 1
 800 -100 l 1x480140
 800 -50 l 1
 800 0 l 1
 850 0 l 1
 900 0 l 1x800140
 900 50 l 1
 900 100 l 1
 950 100 l 1
 1000 100 l 1
 1000 50 l 1
 1000 0 l 1
 950 0 l 1x200020
 900 0 l 1x800040
 900 -50 l 1
 900 -100 l 1x400040
 950 -100 l 1
 1000 -100 l 1
 1000 -150 l 1
 1000 -200 l 1
 500 -200 l 1
 0 -200 l 1
 0 300 l 1x442220
500 150 m 1
 500 200 l 1
 450 200 l 1x6802
 400 200 l 1x1004
 400 150 l 1
 400 100 l 1x2004
 300 100 l 1x1008
 200 100 l 1x2048
 200 50 l 1
 200 0 l 1x8048
 150 0 l 1
 100 0 l 1
 100 -50 l 1
 100 -100 l 1
 150 -100 l 1
 200 -100 l 1
 200 -50 l 1x6030
 200 0 l 1x8040
 250 0 l 1
 300 0 l 1x8010
 300 -50 l 1
 300 -100 l 1
 450 -100 l 1
 600 -100 l 1
 600 -50 l 1
 600 0 l 1x6011
 500 0 l 1x6002
 400 0 l 1
 400 50 l 1
 400 100 l 1x6004
 450 100 l 1
 500 100 l 1x6002
 500 150 l 1
EndSplineSet
Validated: 5
EndChar

StartChar: a
Encoding: 97 97 47
Width: 1000
VWidth: 0
HStem: -200 100<300 600 900 1000> 0 100<900 1000> 200 100<100 200 900 1000> 300 100<200 300> 400 100<700 800 900 1000> 600 100<100 200 300 400 900 1000> 700 100<200 300 800 900>
VStem: 0 200<200 300 600 700> 0 100<100 200 300 600 700 800> 200 100<700 800> 300 200<200 300 600 700> 400 100<700 800> 600 100<600 800> 700 100<400 500> 800 100<300 400 700 800> 900 100<400 500 600 700>
LayerCount: 2
Back
Fore
SplineSet
800 750 m 1xc202
 800 800 l 1
 850 800 l 1
 900 800 l 1xc202
 900 750 l 1
 900 700 l 1xc402
 950 700 l 1
 1000 700 l 1
 1000 650 l 1
 1000 600 l 1
 950 600 l 1
 900 600 l 1
 900 650 l 1xc401
 900 700 l 1xc402
 850 700 l 1
 800 700 l 1
 800 750 l 1xc202
0 300 m 1xd1
 0 800 l 1
 50 800 l 1
 100 800 l 1xd280
 100 750 l 1
 100 700 l 1xc480
 150 700 l 1
 200 700 l 1xc5
 200 750 l 1
 200 800 l 1
 250 800 l 1
 300 800 l 1xc240
 300 750 l 1
 300 700 l 1
 350 700 l 1
 400 700 l 1xc450
 400 750 l 1
 400 800 l 1
 450 800 l 1
 500 800 l 1xc250
 500 700 l 1xc220
 500 600 l 1
 550 600 l 1
 600 600 l 1xc428
 600 700 l 1
 600 800 l 1
 650 800 l 1
 700 800 l 1
 700 650 l 1xc228
 700 500 l 1
 750 500 l 1
 800 500 l 1
 800 450 l 1
 800 400 l 1xca04
 850 400 l 1
 900 400 l 1xca02
 900 450 l 1
 900 500 l 1
 950 500 l 1
 1000 500 l 1
 1000 450 l 1
 1000 400 l 1xca01
 950 400 l 1
 900 400 l 1
 900 350 l 1
 900 300 l 1xea02
 950 300 l 1
 1000 300 l 1
 1000 250 l 1
 1000 200 l 1
 900 200 l 1xea01
 800 200 l 1
 800 150 l 1
 800 100 l 1xea02
 900 100 l 1
 1000 100 l 1
 1000 50 l 1
 1000 0 l 1
 950 0 l 1
 900 0 l 1
 900 -50 l 1
 900 -100 l 1
 950 -100 l 1
 1000 -100 l 1
 1000 -150 l 1
 1000 -200 l 1
 500 -200 l 1
 0 -200 l 1xea91
 0 300 l 1xd1
300 650 m 1xcc20
 300 700 l 1xcc40
 250 700 l 1xc240
 200 700 l 1
 200 650 l 1
 200 600 l 1xc5
 150 600 l 1
 100 600 l 1
 100 450 l 1
 100 300 l 1xe480
 150 300 l 1
 200 300 l 1
 200 250 l 1
 200 200 l 1xe5
 150 200 l 1
 100 200 l 1
 100 150 l 1
 100 100 l 1
 200 100 l 1xe4c0
 300 100 l 1
 300 0 l 1
 300 -100 l 1
 450 -100 l 1
 600 -100 l 1
 600 -50 l 1
 600 0 l 1xe428
 650 0 l 1
 700 0 l 1
 700 50 l 1
 700 100 l 1xe404
 650 100 l 1
 600 100 l 1
 600 50 l 1
 600 0 l 1
 500 0 l 1
 400 0 l 1
 400 100 l 1
 400 200 l 1xe418
 350 200 l 1
 300 200 l 1xe420
 300 250 l 1
 300 300 l 1
 250 300 l 1xd020
 200 300 l 1xe120
 200 350 l 1
 200 400 l 1xd040
 250 400 l 1
 300 400 l 1xd020
 300 450 l 1
 300 500 l 1xc820
 400 500 l 1
 500 500 l 1
 500 550 l 1xc810
 500 600 l 1xcc20
 400 600 l 1xcc10
 300 600 l 1
 300 650 l 1xcc20
700 450 m 1xc804
 700 500 l 1xc804
 650 500 l 1
 600 500 l 1
 600 400 l 1xc808
 600 300 l 1
 550 300 l 1
 500 300 l 1xd028
 500 250 l 1
 500 200 l 1
 550 200 l 1
 600 200 l 1xe028
 600 250 l 1
 600 300 l 1xd028
 700 300 l 1xd004
 800 300 l 1
 800 350 l 1xd002
 800 400 l 1
 750 400 l 1
 700 400 l 1
 700 450 l 1xc804
EndSplineSet
Validated: 5
EndChar

StartChar: b
Encoding: 98 98 48
Width: 1000
VWidth: 0
HStem: -200 100<100 200 300 700 800 1000> 0 100<400 600 900 1000> 100 100<100 200> 200 100<900 1000> 300 100<100 200 800 900> 400 100<900 1000> 500 100<600 700> 600 100<100 200 300 400 900 1000> 700 100<200 300 600 700>
VStem: 0 200<100 200 600 700> 0 100<-100 100 200 300 400 600 700 800> 200 100<-100 0 200 300 700 800> 400 100<700 800> 500 100<300 400> 600 100<700 800> 700 100<-100 200 400 500> 800 100<300 400 700 800> 900 100<0 100 200 300 400 500>
LayerCount: 2
Back
Fore
SplineSet
900 50 m 1xc00040
 900 100 l 1
 950 100 l 1
 1000 100 l 1
 1000 50 l 1
 1000 0 l 1
 950 0 l 1
 900 0 l 1
 900 50 l 1xc00040
400 50 m 1xc008
 400 100 l 1xc008
 500 100 l 1xc004
 600 100 l 1
 600 50 l 1
 600 0 l 1xc002
 500 0 l 1xc004
 400 0 l 1
 400 50 l 1xc008
600 750 m 1x8082
 600 800 l 1
 650 800 l 1
 700 800 l 1
 700 750 l 1
 700 700 l 1
 650 700 l 1
 600 700 l 1
 600 750 l 1x8082
0 300 m 1x883540
 0 800 l 1
 50 800 l 1
 100 800 l 1x88b540
 100 750 l 1
 100 700 l 1x813540
 150 700 l 1
 200 700 l 1x8140
 200 750 l 1
 200 800 l 1
 250 800 l 1
 300 800 l 1x8090
 300 750 l 1
 300 700 l 1
 350 700 l 1
 400 700 l 1x8118
 400 750 l 1
 400 800 l 1
 450 800 l 1
 500 800 l 1
 500 700 l 1x8098
 500 600 l 1x8104
 650 600 l 1x8204
 800 600 l 1x810480
 800 700 l 1
 800 800 l 1
 850 800 l 1
 900 800 l 1x808480
 900 750 l 1
 900 700 l 1x810480
 950 700 l 1
 1000 700 l 1
 1000 650 l 1
 1000 600 l 1
 900 600 l 1x810040
 800 600 l 1x810080
 800 500 l 1
 800 400 l 1x8a01
 850 400 l 1
 900 400 l 1x8a0080
 900 450 l 1
 900 500 l 1
 950 500 l 1
 1000 500 l 1
 1000 450 l 1
 1000 400 l 1
 950 400 l 1x840040
 900 400 l 1x880080
 900 350 l 1
 900 300 l 1x900080
 950 300 l 1
 1000 300 l 1
 1000 250 l 1
 1000 200 l 1
 950 200 l 1
 900 200 l 1
 900 250 l 1x900040
 900 300 l 1x900080
 850 300 l 1
 800 300 l 1
 800 350 l 1x880080
 800 400 l 1x8801
 750 400 l 1
 700 400 l 1x8401
 700 450 l 1
 700 500 l 1x8201
 650 500 l 1
 600 500 l 1x8202
 600 400 l 1x8404
 600 300 l 1
 550 300 l 1
 500 300 l 1x8804
 500 350 l 1
 500 400 l 1x8404
 450 400 l 1
 400 400 l 1x8408
 400 350 l 1
 400 300 l 1
 350 300 l 1
 300 300 l 1x8818
 300 250 l 1
 300 200 l 1
 250 200 l 1x9018
 200 200 l 1
 200 150 l 1
 200 100 l 1xa040
 150 100 l 1
 100 100 l 1xa020
 100 0 l 1
 100 -100 l 1
 150 -100 l 1
 200 -100 l 1
 200 -50 l 1
 200 0 l 1
 250 0 l 1
 300 0 l 1
 300 -50 l 1
 300 -100 l 1
 500 -100 l 1
 700 -100 l 1
 700 50 l 1
 700 200 l 1
 750 200 l 1
 800 200 l 1xd035
 800 50 l 1
 800 -100 l 1
 900 -100 l 1
 1000 -100 l 1
 1000 -150 l 1
 1000 -200 l 1
 500 -200 l 1
 0 -200 l 1
 0 300 l 1x883540
300 650 m 1
 300 700 l 1x8138
 250 700 l 1x80b8
 200 700 l 1
 200 650 l 1
 200 600 l 1x8140
 150 600 l 1
 100 600 l 1x8120
 100 500 l 1
 100 400 l 1
 200 400 l 1x8a30
 300 400 l 1x8430
 300 450 l 1
 300 500 l 1
 350 500 l 1
 400 500 l 1x8238
 400 550 l 1
 400 600 l 1
 350 600 l 1
 300 600 l 1x8138
 300 650 l 1
200 250 m 1
 200 300 l 1
 150 300 l 1
 100 300 l 1
 100 250 l 1
 100 200 l 1xa830
 150 200 l 1
 200 200 l 1xa840
 200 250 l 1
EndSplineSet
Validated: 5
EndChar

StartChar: c
Encoding: 99 99 49
Width: 1000
VWidth: 0
HStem: -200 200<200 300 700 800> -200 100<100 200 300 700 800 1000> 0 100<400 500 900 1000> 100 100<700 800> 200 100<900 1000> 300 100<600 700 800 900> 400 100<300 400 700 800 900 1000> 600 100<100 200 300 400 700 800 900 1000> 700 100<200 300 600 700 800 900>
VStem: 0 200<0 400 600 700> 0 100<-100 0 400 600 700 800> 200 100<-100 0 700 800> 400 100<0 100 500 600 700 800> 500 100<200 300> 600 100<700 800> 700 100<-100 0 400 500 600 700> 800 100<300 400 700 800> 900 100<200 300 400 500 600 700>
LayerCount: 2
Back
Fore
SplineSet
400 50 m 1x2008
 400 100 l 1
 450 100 l 1
 500 100 l 1
 500 50 l 1
 500 0 l 1
 450 0 l 1
 400 0 l 1
 400 50 l 1x2008
600 750 m 1x0082
 600 800 l 1
 650 800 l 1
 700 800 l 1x0082
 700 750 l 1
 700 700 l 1x0102
 750 700 l 1
 800 700 l 1x0101
 800 750 l 1
 800 800 l 1
 850 800 l 1
 900 800 l 1x008080
 900 750 l 1
 900 700 l 1x010080
 950 700 l 1
 1000 700 l 1
 1000 650 l 1
 1000 600 l 1
 950 600 l 1
 900 600 l 1
 900 650 l 1x010040
 900 700 l 1x010080
 850 700 l 1x008080
 800 700 l 1
 800 650 l 1
 800 600 l 1
 750 600 l 1
 700 600 l 1
 700 650 l 1x0101
 700 700 l 1x0102
 650 700 l 1
 600 700 l 1
 600 750 l 1x0082
0 300 m 1x4440
 0 800 l 1
 50 800 l 1
 100 800 l 1x44a0
 100 750 l 1
 100 700 l 1x0120
 150 700 l 1
 200 700 l 1x0140
 200 750 l 1
 200 800 l 1
 250 800 l 1
 300 800 l 1x0090
 300 750 l 1
 300 700 l 1
 350 700 l 1
 400 700 l 1x0118
 400 750 l 1
 400 800 l 1
 450 800 l 1
 500 800 l 1x0098
 500 650 l 1x0084
 500 500 l 1
 550 500 l 1
 600 500 l 1x028a
 600 450 l 1
 600 400 l 1x040a
 650 400 l 1
 700 400 l 1x0401
 700 450 l 1
 700 500 l 1
 750 500 l 1
 800 500 l 1x0201
 800 450 l 1
 800 400 l 1x0401
 850 400 l 1
 900 400 l 1x040080
 900 450 l 1
 900 500 l 1
 950 500 l 1
 1000 500 l 1
 1000 450 l 1
 1000 400 l 1
 950 400 l 1x020040
 900 400 l 1x040080
 900 350 l 1
 900 300 l 1x080080
 950 300 l 1
 1000 300 l 1
 1000 250 l 1
 1000 200 l 1
 950 200 l 1
 900 200 l 1
 900 150 l 1
 900 100 l 1
 950 100 l 1
 1000 100 l 1
 1000 50 l 1
 1000 0 l 1
 900 0 l 1x280040
 800 0 l 1x800140
 800 -50 l 1
 800 -100 l 1
 900 -100 l 1
 1000 -100 l 1
 1000 -150 l 1
 1000 -200 l 1
 500 -200 l 1
 0 -200 l 1x402540
 0 300 l 1x4440
300 650 m 1x0318
 300 700 l 1x0318
 250 700 l 1x0098
 200 700 l 1
 200 650 l 1
 200 600 l 1x0140
 150 600 l 1
 100 600 l 1
 100 500 l 1
 100 400 l 1x0320
 150 400 l 1
 200 400 l 1
 200 200 l 1
 200 0 l 1x8b40
 150 0 l 1
 100 0 l 1
 100 -50 l 1
 100 -100 l 1
 150 -100 l 1
 200 -100 l 1
 200 -50 l 1x6030
 200 0 l 1x8040
 250 0 l 1
 300 0 l 1x8010
 300 -50 l 1
 300 -100 l 1
 500 -100 l 1
 700 -100 l 1x4015
 700 -50 l 1
 700 0 l 1
 750 0 l 1
 800 0 l 1x8015
 800 50 l 1
 800 100 l 1x900080
 750 100 l 1
 700 100 l 1
 700 150 l 1
 700 200 l 1x9001
 800 200 l 1x900080
 900 200 l 1
 900 250 l 1x080040
 900 300 l 1x080080
 850 300 l 1
 800 300 l 1
 800 350 l 1x040080
 800 400 l 1x0401
 750 400 l 1x0201
 700 400 l 1
 700 350 l 1
 700 300 l 1
 650 300 l 1
 600 300 l 1x0405
 600 250 l 1
 600 200 l 1
 550 200 l 1
 500 200 l 1x0805
 500 250 l 1
 500 300 l 1x0405
 450 300 l 1
 400 300 l 1x0408
 400 350 l 1
 400 400 l 1
 350 400 l 1
 300 400 l 1
 300 450 l 1
 300 500 l 1
 350 500 l 1
 400 500 l 1
 400 550 l 1
 400 600 l 1
 350 600 l 1
 300 600 l 1
 300 650 l 1x0318
EndSplineSet
Validated: 5
EndChar

StartChar: d
Encoding: 100 100 50
Width: 1000
VWidth: 0
HStem: -200 200<700 900> -200 100<100 700 900 1000> 0 100<600 700 900 1000> 100 100<500 600 700 800> 200 100<900 1000> 300 100<100 200> 400 100<300 500 600 700 900 1000> 600 100<100 200 300 400 900 1000> 700 100<200 300 800 900>
VStem: 0 200<300 400 600 700> 0 100<-100 300 400 600 700 800> 200 100<0 200 700 800> 400 100<0 100 200 300 700 800> 500 100<500 600> 600 100<0 100 700 800> 700 100<100 200 500 600> 800 100<300 400 700 800> 900 100<0 100 400 500 600 700>
LayerCount: 2
Back
Fore
SplineSet
200 100 m 1x1010
 200 200 l 1
 250 200 l 1
 300 200 l 1x0810
 300 100 l 1x1010
 300 0 l 1
 250 0 l 1
 200 0 l 1x2010
 200 100 l 1x1010
400 150 m 1x200a
 400 300 l 1
 450 300 l 1
 500 300 l 1
 500 250 l 1
 500 200 l 1
 550 200 l 1
 600 200 l 1x140a
 600 150 l 1
 600 100 l 1x200a
 550 100 l 1
 500 100 l 1x100a
 500 50 l 1
 500 0 l 1
 450 0 l 1
 400 0 l 1
 400 150 l 1x200a
0 300 m 1x4440
 0 800 l 1
 50 800 l 1
 100 800 l 1x44a0
 100 750 l 1
 100 700 l 1x0120
 150 700 l 1
 200 700 l 1x0140
 200 750 l 1
 200 800 l 1
 250 800 l 1
 300 800 l 1x0090
 300 750 l 1
 300 700 l 1
 350 700 l 1
 400 700 l 1x0118
 400 750 l 1
 400 800 l 1
 450 800 l 1
 500 800 l 1
 500 700 l 1x0098
 500 600 l 1
 550 600 l 1
 600 600 l 1x0104
 600 700 l 1
 600 800 l 1
 650 800 l 1
 700 800 l 1
 700 750 l 1
 700 700 l 1
 750 700 l 1
 800 700 l 1
 800 750 l 1
 800 800 l 1
 850 800 l 1
 900 800 l 1x008280
 900 750 l 1
 900 700 l 1x010280
 950 700 l 1
 1000 700 l 1
 1000 650 l 1
 1000 600 l 1
 950 600 l 1
 900 600 l 1
 900 650 l 1x010040
 900 700 l 1x010080
 850 700 l 1
 800 700 l 1x008080
 800 550 l 1x0081
 800 400 l 1
 850 400 l 1
 900 400 l 1x028080
 900 450 l 1
 900 500 l 1
 950 500 l 1
 1000 500 l 1
 1000 450 l 1
 1000 400 l 1x028040
 950 400 l 1
 900 400 l 1
 900 350 l 1
 900 300 l 1x0a8080
 950 300 l 1
 1000 300 l 1
 1000 250 l 1
 1000 200 l 1
 900 200 l 1x0a8040
 800 200 l 1
 800 150 l 1
 800 100 l 1
 750 100 l 1x100140
 700 100 l 1x2002
 700 50 l 1
 700 0 l 1
 800 0 l 1x800280
 900 0 l 1x800040
 900 50 l 1
 900 100 l 1
 950 100 l 1
 1000 100 l 1
 1000 50 l 1
 1000 0 l 1
 950 0 l 1x200040
 900 0 l 1x800040
 900 -50 l 1
 900 -100 l 1
 950 -100 l 1
 1000 -100 l 1
 1000 -150 l 1
 1000 -200 l 1
 500 -200 l 1
 0 -200 l 1x402440
 0 300 l 1x4440
300 650 m 1x0318
 300 700 l 1x0318
 250 700 l 1x0098
 200 700 l 1
 200 650 l 1
 200 600 l 1x0140
 150 600 l 1
 100 600 l 1
 100 500 l 1x0320
 100 400 l 1x0420
 150 400 l 1
 200 400 l 1
 200 350 l 1
 200 300 l 1x0440
 150 300 l 1
 100 300 l 1
 100 100 l 1
 100 -100 l 1
 400 -100 l 1
 700 -100 l 1
 700 -50 l 1x5429
 700 0 l 1x8002
 650 0 l 1
 600 0 l 1
 600 50 l 1
 600 100 l 1
 650 100 l 1
 700 100 l 1x2002
 700 150 l 1
 700 200 l 1
 750 200 l 1
 800 200 l 1x1001
 800 300 l 1x140080
 800 400 l 1
 550 400 l 1
 300 400 l 1
 300 450 l 1
 300 500 l 1
 400 500 l 1x021880
 500 500 l 1
 500 550 l 1
 500 600 l 1x0304
 400 600 l 1
 300 600 l 1
 300 650 l 1x0318
700 550 m 1x0305
 700 600 l 1
 650 600 l 1
 600 600 l 1
 600 550 l 1
 600 500 l 1
 650 500 l 1
 700 500 l 1
 700 550 l 1x0305
EndSplineSet
Validated: 5
EndChar

StartChar: e
Encoding: 101 101 51
Width: 1000
VWidth: 0
HStem: -200 100<100 700 900 1000> 0 100<100 200 600 700 900 1000> 200 100<900 1000> 400 100<500 600 700 800 900 1000> 600 100<100 200 300 400 900 1000> 700 100<200 300>
VStem: 0 100<-100 0 100 200 400 600 700 800> 200 100<100 200 700 800> 400 200<100 300> 400 100<700 800> 600 100<300 400 500 800> 700 200<-100 0 100 200> 800 100<300 400 700 800> 900 100<400 500>
LayerCount: 2
Back
Fore
SplineSet
800 700 m 1xf708
 800 800 l 1
 850 800 l 1
 900 800 l 1xf708
 900 750 l 1
 900 700 l 1xfb08
 950 700 l 1
 1000 700 l 1
 1000 650 l 1
 1000 600 l 1
 900 600 l 1xfb04
 800 600 l 1xfb08
 800 700 l 1xf708
0 300 m 1
 0 800 l 1
 50 800 l 1
 100 800 l 1xf744
 100 750 l 1
 100 700 l 1
 150 700 l 1
 200 700 l 1xfb44
 200 750 l 1
 200 800 l 1
 250 800 l 1
 300 800 l 1xf744
 300 750 l 1
 300 700 l 1
 350 700 l 1
 400 700 l 1xfb44
 400 750 l 1
 400 800 l 1
 450 800 l 1
 500 800 l 1
 500 700 l 1xf744
 500 600 l 1
 400 600 l 1
 300 600 l 1
 300 650 l 1
 300 700 l 1xfb44
 250 700 l 1xf744
 200 700 l 1
 200 650 l 1
 200 600 l 1
 150 600 l 1
 100 600 l 1xfb44
 100 500 l 1
 100 400 l 1
 200 400 l 1
 300 400 l 1
 300 450 l 1
 300 500 l 1
 450 500 l 1
 600 500 l 1
 600 650 l 1
 600 800 l 1
 650 800 l 1
 700 800 l 1
 700 650 l 1
 700 500 l 1
 750 500 l 1
 800 500 l 1
 800 450 l 1
 800 400 l 1
 850 400 l 1
 900 400 l 1xf768
 900 450 l 1
 900 500 l 1
 950 500 l 1
 1000 500 l 1
 1000 450 l 1
 1000 400 l 1xf704
 950 400 l 1
 900 400 l 1
 900 350 l 1
 900 300 l 1xf708
 950 300 l 1
 1000 300 l 1
 1000 250 l 1
 1000 200 l 1xf704
 950 200 l 1
 900 200 l 1
 900 150 l 1
 900 100 l 1xf710
 950 100 l 1
 1000 100 l 1
 1000 50 l 1
 1000 0 l 1xf704
 950 0 l 1
 900 0 l 1
 900 -50 l 1
 900 -100 l 1xf710
 950 -100 l 1
 1000 -100 l 1
 1000 -150 l 1
 1000 -200 l 1
 500 -200 l 1xf744
 0 -200 l 1
 0 300 l 1
600 350 m 1xf320
 600 400 l 1
 550 400 l 1
 500 400 l 1
 500 350 l 1
 500 300 l 1xf360
 550 300 l 1
 600 300 l 1
 600 200 l 1
 600 100 l 1
 650 100 l 1
 700 100 l 1
 700 150 l 1
 700 200 l 1xf390
 750 200 l 1
 800 200 l 1
 800 300 l 1
 800 400 l 1
 750 400 l 1
 700 400 l 1
 700 350 l 1
 700 300 l 1xf328
 650 300 l 1
 600 300 l 1xf380
 600 350 l 1xf320
400 150 m 1xf380
 400 300 l 1xf380
 350 300 l 1
 300 300 l 1
 300 150 l 1
 300 0 l 1
 200 0 l 1
 100 0 l 1
 100 -50 l 1
 100 -100 l 1
 400 -100 l 1
 700 -100 l 1
 700 -50 l 1
 700 0 l 1
 550 0 l 1
 400 0 l 1xf350
 400 150 l 1xf380
200 150 m 1
 200 200 l 1
 150 200 l 1
 100 200 l 1
 100 150 l 1
 100 100 l 1
 150 100 l 1
 200 100 l 1
 200 150 l 1
EndSplineSet
Validated: 5
EndChar

StartChar: f
Encoding: 102 102 52
Width: 1000
VWidth: 0
HStem: -200 100<300 1000> 0 100<600 800 900 1000> 100 100<800 900> 200 100<700 800 900 1000> 300 100<100 200 500 600 800 900> 400 100<300 400 900 1000> 500 100<500 600> 600 100<100 200 300 400 900 1000> 700 100<200 300 800 900>
VStem: 0 200<300 400 600 700> 0 100<200 300 400 600 700 800> 200 100<700 800> 300 100<200 300 400 500> 400 100<0 100 700 800> 600 200<0 100 200 300 400 500 600 700> 600 100<700 800> 800 100<100 200 300 400 700 800> 900 100<0 100 200 300 400 500 600 700>
LayerCount: 2
Back
Fore
SplineSet
0 300 m 1xc840
 0 800 l 1
 50 800 l 1
 100 800 l 1xc8a0
 100 750 l 1
 100 700 l 1x8120
 150 700 l 1
 200 700 l 1x8140
 200 750 l 1
 200 800 l 1
 250 800 l 1
 300 800 l 1x8090
 300 750 l 1
 300 700 l 1
 350 700 l 1
 400 700 l 1x8114
 400 750 l 1
 400 800 l 1
 450 800 l 1
 500 800 l 1
 500 700 l 1
 500 600 l 1
 550 600 l 1
 600 600 l 1
 600 700 l 1x8296
 600 800 l 1
 650 800 l 1
 700 800 l 1
 700 750 l 1
 700 700 l 1x8281
 750 700 l 1
 800 700 l 1x8282
 800 750 l 1
 800 800 l 1
 850 800 l 1
 900 800 l 1x828080
 900 750 l 1
 900 700 l 1x810080
 950 700 l 1
 1000 700 l 1
 1000 650 l 1
 1000 600 l 1
 950 600 l 1
 900 600 l 1
 900 650 l 1x810040
 900 700 l 1x810080
 850 700 l 1
 800 700 l 1x8082
 800 550 l 1x808080
 800 400 l 1x8882
 850 400 l 1
 900 400 l 1x888080
 900 450 l 1
 900 500 l 1
 950 500 l 1
 1000 500 l 1
 1000 450 l 1
 1000 400 l 1
 950 400 l 1x840040
 900 400 l 1x880080
 900 350 l 1
 900 300 l 1x900080
 950 300 l 1
 1000 300 l 1
 1000 250 l 1
 1000 200 l 1
 950 200 l 1x900040
 900 200 l 1xa00080
 900 150 l 1
 900 100 l 1xc00080
 950 100 l 1
 1000 100 l 1
 1000 50 l 1
 1000 0 l 1
 950 0 l 1
 900 0 l 1
 900 50 l 1xc00040
 900 100 l 1xc00080
 850 100 l 1xa00080
 800 100 l 1
 800 50 l 1
 800 0 l 1xc002
 700 0 l 1xc001
 600 0 l 1
 600 50 l 1
 600 100 l 1xc002
 700 100 l 1xc001
 800 100 l 1xc002
 800 150 l 1xc00080
 800 200 l 1xa002
 700 200 l 1x9001
 600 200 l 1x9002
 600 250 l 1
 600 300 l 1
 550 300 l 1
 500 300 l 1
 500 350 l 1
 500 400 l 1
 550 400 l 1
 600 400 l 1
 600 450 l 1
 600 500 l 1
 500 500 l 1x8a06
 400 500 l 1
 400 450 l 1
 400 400 l 1
 350 400 l 1
 300 400 l 1
 300 450 l 1
 300 500 l 1
 350 500 l 1
 400 500 l 1x8408
 400 550 l 1
 400 600 l 1x8504
 350 600 l 1
 300 600 l 1
 300 650 l 1x8508
 300 700 l 1x8510
 250 700 l 1x8090
 200 700 l 1
 200 650 l 1
 200 600 l 1x8140
 150 600 l 1
 100 600 l 1x8120
 100 500 l 1
 100 400 l 1x8a20
 150 400 l 1
 200 400 l 1
 200 350 l 1
 200 300 l 1x8a40
 150 300 l 1
 100 300 l 1x8a20
 100 250 l 1
 100 200 l 1
 200 200 l 1x9030
 300 200 l 1x9008
 300 250 l 1
 300 300 l 1
 350 300 l 1
 400 300 l 1x8808
 400 250 l 1
 400 200 l 1x9008
 450 200 l 1
 500 200 l 1x9004
 500 100 l 1xa004
 500 0 l 1
 450 0 l 1
 400 0 l 1xc004
 400 50 l 1
 400 100 l 1xa004
 350 100 l 1
 300 100 l 1xa008
 300 0 l 1
 300 -100 l 1xc008
 650 -100 l 1
 1000 -100 l 1
 1000 -150 l 1
 1000 -200 l 1
 500 -200 l 1
 0 -200 l 1xc02440
 0 300 l 1xc840
800 350 m 1x900080
 800 400 l 1x8802
 750 400 l 1
 700 400 l 1
 700 350 l 1
 700 300 l 1x9401
 750 300 l 1
 800 300 l 1x9402
 800 250 l 1
 800 200 l 1xa002
 850 200 l 1
 900 200 l 1xa00080
 900 250 l 1xa00040
 900 300 l 1x900080
 850 300 l 1x880080
 800 300 l 1x9002
 800 350 l 1x900080
EndSplineSet
Validated: 5
EndChar

StartChar: g
Encoding: 103 103 53
Width: 1000
VWidth: 0
HStem: -200 100<300 1000> 0 100<500 700 800 1000> 200 100<600 800 900 1000> 300 100<400 500 800 900> 400 100<600 800 900 1000> 600 100<100 200 300 400 900 1000> 700 100<200 300>
VStem: 0 100<0 100 400 600 700 800> 200 100<0 100 700 800> 300 100<400 500> 400 100<500 600 700 800> 600 100<600 800> 800 100<300 400 700 800> 900 100<200 300 400 500>
LayerCount: 2
Back
Fore
SplineSet
800 50 m 1xc118
 800 100 l 1xc118
 900 100 l 1
 1000 100 l 1
 1000 50 l 1
 1000 0 l 1
 900 0 l 1xc114
 800 0 l 1
 800 50 l 1xc118
800 700 m 1xc318
 800 800 l 1
 850 800 l 1
 900 800 l 1xc318
 900 750 l 1
 900 700 l 1xc518
 950 700 l 1
 1000 700 l 1
 1000 650 l 1
 1000 600 l 1
 900 600 l 1xc514
 800 600 l 1xc518
 800 700 l 1xc318
600 700 m 1
 600 800 l 1
 650 800 l 1
 700 800 l 1
 700 700 l 1xc310
 700 600 l 1
 650 600 l 1
 600 600 l 1xc510
 600 700 l 1
0 300 m 1xd134
 0 800 l 1
 50 800 l 1
 100 800 l 1xd334
 100 750 l 1
 100 700 l 1
 150 700 l 1
 200 700 l 1xc5b4
 200 750 l 1
 200 800 l 1
 250 800 l 1
 300 800 l 1xc3b4
 300 750 l 1
 300 700 l 1
 350 700 l 1
 400 700 l 1xc5b4
 400 750 l 1
 400 800 l 1
 450 800 l 1
 500 800 l 1
 500 650 l 1
 500 500 l 1xcbb4
 450 500 l 1
 400 500 l 1xcb50
 400 450 l 1
 400 400 l 1xd150
 500 400 l 1xd130
 600 400 l 1
 600 450 l 1
 600 500 l 1
 700 500 l 1
 800 500 l 1xc938
 800 450 l 1
 800 400 l 1
 850 400 l 1
 900 400 l 1xd138
 900 450 l 1
 900 500 l 1
 950 500 l 1
 1000 500 l 1
 1000 450 l 1
 1000 400 l 1
 950 400 l 1xc914
 900 400 l 1xd118
 900 350 l 1
 900 300 l 1xe118
 950 300 l 1
 1000 300 l 1
 1000 250 l 1
 1000 200 l 1
 950 200 l 1
 900 200 l 1
 900 250 l 1xe114
 900 300 l 1xe118
 850 300 l 1xd118
 800 300 l 1
 800 250 l 1
 800 200 l 1
 650 200 l 1
 500 200 l 1
 500 150 l 1
 500 100 l 1
 600 100 l 1
 700 100 l 1
 700 50 l 1
 700 0 l 1
 550 0 l 1
 400 0 l 1
 400 50 l 1
 400 100 l 1
 350 100 l 1
 300 100 l 1
 300 0 l 1xe1b8
 300 -100 l 1xe150
 650 -100 l 1
 1000 -100 l 1
 1000 -150 l 1
 1000 -200 l 1
 500 -200 l 1
 0 -200 l 1
 0 300 l 1xd134
300 650 m 1xcd50
 300 700 l 1xcd90
 250 700 l 1xc390
 200 700 l 1
 200 650 l 1
 200 600 l 1
 150 600 l 1
 100 600 l 1
 100 500 l 1
 100 400 l 1
 200 400 l 1xcd90
 300 400 l 1
 300 450 l 1
 300 500 l 1
 350 500 l 1
 400 500 l 1xcd50
 400 550 l 1
 400 600 l 1xcd30
 350 600 l 1
 300 600 l 1
 300 650 l 1xcd50
800 350 m 1xe918
 800 400 l 1xd118
 700 400 l 1
 600 400 l 1
 600 350 l 1
 600 300 l 1
 700 300 l 1
 800 300 l 1
 800 350 l 1xe918
500 250 m 1xe130
 500 300 l 1
 450 300 l 1
 400 300 l 1xd130
 400 250 l 1
 400 200 l 1
 450 200 l 1
 500 200 l 1
 500 250 l 1xe130
200 50 m 1xc190
 200 100 l 1
 150 100 l 1
 100 100 l 1
 100 50 l 1
 100 0 l 1
 150 0 l 1
 200 0 l 1
 200 50 l 1xc190
EndSplineSet
Validated: 5
EndChar

StartChar: h
Encoding: 104 104 54
Width: 1000
VWidth: 0
HStem: -200 100<200 800 900 1000> 0 100<400 500 900 1000> 200 100<400 500 700 800 900 1000> 300 100<100 200> 400 100<900 1000> 500 100<500 600> 600 100<100 200 300 400 900 1000> 700 100<200 300 600 700>
VStem: 0 200<-100 100 600 700> 0 100<100 300 400 600 700 800> 200 100<700 800> 300 100<100 200 400 500> 400 100<700 800> 500 100<100 200 500 600> 600 100<300 400 700 800> 700 100<400 600> 800 100<-100 0 100 200 300 400 700 800> 900 100<0 100 400 500>
LayerCount: 2
Back
Fore
SplineSet
600 750 m 1xc102
 600 800 l 1
 650 800 l 1
 700 800 l 1
 700 750 l 1
 700 700 l 1
 650 700 l 1
 600 700 l 1
 600 750 l 1xc102
0 300 m 1xd04440
 0 800 l 1
 50 800 l 1
 100 800 l 1xd14440
 100 750 l 1
 100 700 l 1xc24440
 150 700 l 1
 200 700 l 1xc280
 200 750 l 1
 200 800 l 1
 250 800 l 1
 300 800 l 1xc120
 300 750 l 1
 300 700 l 1
 350 700 l 1
 400 700 l 1xc228
 400 750 l 1
 400 800 l 1
 450 800 l 1
 500 800 l 1
 500 700 l 1xc128
 500 600 l 1
 550 600 l 1
 600 600 l 1
 600 550 l 1
 600 500 l 1
 550 500 l 1
 500 500 l 1
 500 550 l 1
 500 600 l 1xc504
 400 600 l 1xc208
 300 600 l 1
 300 650 l 1xc210
 300 700 l 1xc220
 250 700 l 1xc120
 200 700 l 1
 200 650 l 1
 200 600 l 1xc280
 150 600 l 1
 100 600 l 1xc240
 100 500 l 1
 100 400 l 1
 200 400 l 1xd460
 300 400 l 1xc810
 300 450 l 1
 300 500 l 1
 350 500 l 1
 400 500 l 1xc410
 400 400 l 1xc810
 400 300 l 1xe808
 450 300 l 1
 500 300 l 1
 500 250 l 1
 500 200 l 1
 550 200 l 1
 600 200 l 1xe804
 600 300 l 1xd002
 600 400 l 1
 650 400 l 1
 700 400 l 1xc802
 700 500 l 1xc401
 700 600 l 1
 750 600 l 1
 800 600 l 1xc201
 800 700 l 1
 800 800 l 1
 850 800 l 1
 900 800 l 1xc10080
 900 750 l 1
 900 700 l 1xc20080
 950 700 l 1
 1000 700 l 1
 1000 650 l 1
 1000 600 l 1
 900 600 l 1
 800 600 l 1xc20140
 800 500 l 1xc40140
 800 400 l 1xc80140
 850 400 l 1
 900 400 l 1xc80080
 900 450 l 1
 900 500 l 1
 950 500 l 1
 1000 500 l 1
 1000 450 l 1
 1000 400 l 1xc80040
 950 400 l 1
 900 400 l 1
 900 350 l 1
 900 300 l 1xe80080
 950 300 l 1
 1000 300 l 1
 1000 250 l 1
 1000 200 l 1xe80040
 950 200 l 1
 900 200 l 1
 900 150 l 1
 900 100 l 1xe80080
 950 100 l 1
 1000 100 l 1
 1000 50 l 1
 1000 0 l 1xe80040
 950 0 l 1
 900 0 l 1
 900 -50 l 1
 900 -100 l 1xe80080
 950 -100 l 1
 1000 -100 l 1
 1000 -150 l 1
 1000 -200 l 1
 500 -200 l 1
 0 -200 l 1
 0 300 l 1xd04440
800 350 m 1xe80280
 800 400 l 1xe801
 750 400 l 1
 700 400 l 1
 700 350 l 1
 700 300 l 1
 750 300 l 1
 800 300 l 1
 800 350 l 1xe80280
200 250 m 1xe020
 200 300 l 1
 150 300 l 1
 100 300 l 1xd060
 100 200 l 1
 100 100 l 1xe060
 150 100 l 1
 200 100 l 1
 200 0 l 1
 200 -100 l 1
 500 -100 l 1
 800 -100 l 1
 800 -50 l 1
 800 0 l 1
 850 0 l 1
 900 0 l 1xe08480
 900 50 l 1xe00040
 900 100 l 1
 850 100 l 1
 800 100 l 1
 800 150 l 1
 800 200 l 1xe00080
 700 200 l 1
 600 200 l 1
 600 100 l 1xe005
 600 0 l 1xe002
 500 0 l 1xe004
 400 0 l 1
 400 50 l 1xe008
 400 100 l 1
 450 100 l 1
 500 100 l 1
 500 150 l 1
 500 200 l 1
 450 200 l 1
 400 200 l 1
 400 150 l 1
 400 100 l 1
 350 100 l 1
 300 100 l 1
 300 150 l 1
 300 200 l 1xe014
 250 200 l 1
 200 200 l 1
 200 250 l 1xe020
EndSplineSet
Validated: 5
EndChar

StartChar: i
Encoding: 105 105 55
Width: 1000
VWidth: 0
HStem: -200 100<200 800 900 1000> 0 100<400 500 700 800 900 1000> 100 200<300 400 500 600> 200 200<100 200 400 500 800 900> 200 100<600 800 900 1000> 400 100<300 400 700 800 900 1000> 500 100<600 700> 600 100<100 200 300 400 700 800 900 1000> 700 100<200 300 600 700 800 900>
VStem: 0 200<-100 0 200 400 600 700> 0 100<0 200 400 600 700 800> 200 100<700 800> 300 100<100 200 400 500> 400 100<0 100 300 400 700 800> 500 100<100 200> 600 100<500 600 700 800> 700 100<400 500 600 700> 800 100<-100 0 300 400 700 800> 900 100<400 500 600 700>
LayerCount: 2
Back
Fore
SplineSet
600 750 m 1x8081
 600 800 l 1
 650 800 l 1
 700 800 l 1x8081
 700 750 l 1
 700 700 l 1x8101
 750 700 l 1
 800 700 l 1x810080
 800 750 l 1
 800 800 l 1
 850 800 l 1
 900 800 l 1x808040
 900 750 l 1
 900 700 l 1x810040
 950 700 l 1
 1000 700 l 1
 1000 650 l 1
 1000 600 l 1
 950 600 l 1
 900 600 l 1
 900 650 l 1x810020
 900 700 l 1x810040
 850 700 l 1x808040
 800 700 l 1
 800 650 l 1
 800 600 l 1
 750 600 l 1x810080
 700 600 l 1x8201
 700 550 l 1
 700 500 l 1x8401
 750 500 l 1
 800 500 l 1x840080
 800 450 l 1
 800 400 l 1x900080
 850 400 l 1
 900 400 l 1x900040
 900 450 l 1
 900 500 l 1
 950 500 l 1
 1000 500 l 1
 1000 450 l 1
 1000 400 l 1
 950 400 l 1x840020
 900 400 l 1x900040
 900 350 l 1
 900 300 l 1x880040
 950 300 l 1
 1000 300 l 1
 1000 250 l 1
 1000 200 l 1x880020
 800 200 l 1x900040
 600 200 l 1x880240
 600 150 l 1
 600 100 l 1
 550 100 l 1xa00240
 500 100 l 1
 500 50 l 1
 500 0 l 1
 450 0 l 1
 400 0 l 1
 400 50 l 1xc004
 400 100 l 1xc008
 350 100 l 1
 300 100 l 1xa008
 300 200 l 1x8808
 300 300 l 1xa008
 350 300 l 1
 400 300 l 1
 400 350 l 1xa004
 400 400 l 1x9008
 350 400 l 1
 300 400 l 1
 300 450 l 1
 300 500 l 1
 350 500 l 1
 400 500 l 1x8408
 400 450 l 1
 400 400 l 1x9008
 450 400 l 1
 500 400 l 1x9004
 500 350 l 1
 500 300 l 1xa004
 650 300 l 1
 800 300 l 1
 800 350 l 1x880440
 800 400 l 1x900080
 750 400 l 1
 700 400 l 1
 700 450 l 1x840080
 700 500 l 1x8401
 650 500 l 1
 600 500 l 1
 600 550 l 1
 600 600 l 1
 650 600 l 1
 700 600 l 1x8201
 700 650 l 1x820080
 700 700 l 1x8101
 650 700 l 1
 600 700 l 1
 600 750 l 1x8081
500 150 m 1xd002
 500 200 l 1
 450 200 l 1
 400 200 l 1
 400 150 l 1
 400 100 l 1xd00a
 450 100 l 1
 500 100 l 1xd004
 500 150 l 1xd002
0 300 m 1xc840
 0 800 l 1
 50 800 l 1
 100 800 l 1xc8a0
 100 750 l 1
 100 700 l 1x8120
 150 700 l 1
 200 700 l 1x8140
 200 750 l 1
 200 800 l 1
 250 800 l 1
 300 800 l 1x8090
 300 750 l 1
 300 700 l 1
 350 700 l 1
 400 700 l 1x8114
 400 750 l 1
 400 800 l 1
 450 800 l 1
 500 800 l 1
 500 700 l 1x8094
 500 600 l 1x8102
 400 600 l 1x8104
 300 600 l 1
 300 650 l 1x8108
 300 700 l 1x8110
 250 700 l 1x8090
 200 700 l 1
 200 650 l 1
 200 600 l 1x8140
 150 600 l 1
 100 600 l 1x8120
 100 500 l 1
 100 400 l 1x9220
 150 400 l 1
 200 400 l 1x9240
 200 300 l 1x8840
 200 200 l 1x9040
 150 200 l 1
 100 200 l 1x9020
 100 100 l 1xa020
 100 0 l 1xc020
 150 0 l 1
 200 0 l 1
 200 -50 l 1
 200 -100 l 1
 500 -100 l 1
 800 -100 l 1
 800 -50 l 1
 800 0 l 1xc04240
 750 0 l 1
 700 0 l 1
 700 50 l 1
 700 100 l 1xc00080
 850 100 l 1xa00080
 1000 100 l 1
 1000 50 l 1
 1000 0 l 1xc000a0
 950 0 l 1
 900 0 l 1
 900 -50 l 1
 900 -100 l 1xc00040
 950 -100 l 1
 1000 -100 l 1
 1000 -150 l 1
 1000 -200 l 1
 500 -200 l 1
 0 -200 l 1xc02220
 0 300 l 1xc840
EndSplineSet
Validated: 5
EndChar

StartChar: j
Encoding: 106 106 56
Width: 1000
VWidth: 0
HStem: -200 200<100 200 700 900> -200 100<200 600 900 1000> 0 100<200 300 900 1000> 100 100<700 800> 200 100<900 1000> 300 100<600 700> 400 100<900 1000> 500 100<600 700> 600 100<100 200 300 400 900 1000> 700 100<200 300 600 700 800 900>
VStem: 0 200<-100 0 600 700> 0 100<0 600 700 800> 200 100<0 100 700 800> 300 100<400 500> 400 100<500 600 700 800> 500 100<200 300> 600 100<500 600 700 800> 700 100<100 200 400 500> 800 100<700 800> 900 100<0 100 200 300 400 500 600 700>
LayerCount: 2
Back
Fore
SplineSet
200 50 m 1x8008
 200 100 l 1
 250 100 l 1
 300 100 l 1
 300 50 l 1
 300 0 l 1
 250 0 l 1x2008
 200 0 l 1x8020
 200 50 l 1x8008
900 250 m 1x080010
 900 300 l 1
 950 300 l 1
 1000 300 l 1
 1000 250 l 1
 1000 200 l 1
 950 200 l 1
 900 200 l 1
 900 250 l 1x080010
900 450 m 1
 900 500 l 1
 950 500 l 1
 1000 500 l 1
 1000 450 l 1
 1000 400 l 1
 950 400 l 1
 900 400 l 1x020010
 900 450 l 1
800 750 m 1x004020
 800 800 l 1
 850 800 l 1
 900 800 l 1x004020
 900 750 l 1
 900 700 l 1x008020
 950 700 l 1
 1000 700 l 1
 1000 650 l 1
 1000 600 l 1
 950 600 l 1
 900 600 l 1
 900 650 l 1x008010
 900 700 l 1x008020
 850 700 l 1
 800 700 l 1
 800 750 l 1x004020
600 750 m 1x004080
 600 800 l 1
 650 800 l 1
 700 800 l 1
 700 750 l 1
 700 700 l 1
 650 700 l 1
 600 700 l 1
 600 750 l 1x004080
0 300 m 1x441110
 0 800 l 1
 50 800 l 1
 100 800 l 1x445110
 100 750 l 1
 100 700 l 1x009110
 150 700 l 1
 200 700 l 1x00a0
 200 750 l 1
 200 800 l 1
 250 800 l 1
 300 800 l 1x0048
 300 750 l 1
 300 700 l 1
 350 700 l 1
 400 700 l 1x008a
 400 750 l 1
 400 800 l 1
 450 800 l 1
 500 800 l 1x004a
 500 650 l 1x0041
 500 500 l 1x0142
 450 500 l 1
 400 500 l 1x0144
 400 350 l 1
 400 200 l 1x0942
 450 200 l 1
 500 200 l 1x0941
 500 250 l 1
 500 300 l 1
 550 300 l 1
 600 300 l 1x0401
 600 350 l 1
 600 400 l 1x040080
 650 400 l 1
 700 400 l 1
 700 450 l 1x040040
 700 500 l 1
 650 500 l 1
 600 500 l 1
 600 550 l 1
 600 600 l 1
 650 600 l 1
 700 600 l 1
 700 550 l 1
 700 500 l 1x050080
 750 500 l 1
 800 500 l 1x050040
 800 400 l 1x020040
 800 300 l 1x040020
 700 300 l 1
 600 300 l 1x040140
 600 200 l 1x080140
 600 100 l 1x100080
 650 100 l 1
 700 100 l 1
 700 150 l 1
 700 200 l 1
 750 200 l 1
 800 200 l 1
 800 150 l 1
 800 100 l 1
 750 100 l 1
 700 100 l 1
 700 50 l 1
 700 0 l 1x900040
 800 0 l 1x900020
 900 0 l 1x900010
 900 50 l 1
 900 100 l 1
 950 100 l 1
 1000 100 l 1
 1000 50 l 1
 1000 0 l 1
 950 0 l 1x200010
 900 0 l 1x800010
 900 -50 l 1
 900 -100 l 1
 950 -100 l 1
 1000 -100 l 1
 1000 -150 l 1
 1000 -200 l 1
 500 -200 l 1
 0 -200 l 1
 0 300 l 1x441110
300 650 m 1x0084
 300 700 l 1x0088
 250 700 l 1x0048
 200 700 l 1
 200 650 l 1
 200 600 l 1x00a0
 150 600 l 1
 100 600 l 1
 100 300 l 1
 100 0 l 1x8490
 150 0 l 1
 200 0 l 1x84a0
 200 -50 l 1
 200 -100 l 1
 400 -100 l 1
 600 -100 l 1
 600 -50 l 1
 600 0 l 1x602280
 500 0 l 1x6001
 400 0 l 1x6002
 400 50 l 1
 400 100 l 1
 350 100 l 1x1002
 300 100 l 1x200a
 300 150 l 1
 300 200 l 1x2804
 250 200 l 1
 200 200 l 1x2808
 200 300 l 1x0408
 200 400 l 1x0208
 250 400 l 1
 300 400 l 1x0204
 300 450 l 1
 300 500 l 1
 350 500 l 1
 400 500 l 1x0104
 400 550 l 1
 400 600 l 1x0082
 350 600 l 1
 300 600 l 1
 300 650 l 1x0084
EndSplineSet
Validated: 5
EndChar

StartChar: k
Encoding: 107 107 57
Width: 1000
VWidth: 0
HStem: -200 100<200 600 900 1000> 0 100<200 300 900 1000> 100 100<500 600> 200 100<100 200 900 1000> 300 100<400 500> 400 100<300 400 900 1000> 500 100<500 600> 600 100<100 200 300 400 900 1000> 700 100<200 300 600 700>
VStem: 0 200<-100 0 200 300 600 700> 0 100<100 200 300 600 700 800> 200 100<700 800> 300 100<200 300 400 500> 400 100<0 100 300 400 700 800> 600 100<700 800> 700 100<300 600> 800 100<700 800> 900 100<200 300 400 500>
LayerCount: 2
Back
Fore
SplineSet
900 450 m 1x840040
 900 500 l 1
 950 500 l 1
 1000 500 l 1
 1000 450 l 1
 1000 400 l 1
 950 400 l 1
 900 400 l 1
 900 450 l 1x840040
600 750 m 1x8a82
 600 800 l 1
 650 800 l 1
 700 800 l 1
 700 750 l 1
 700 700 l 1
 750 700 l 1
 800 700 l 1
 800 750 l 1
 800 800 l 1
 850 800 l 1
 900 800 l 1x8a8280
 900 750 l 1
 900 700 l 1x810280
 950 700 l 1
 1000 700 l 1
 1000 650 l 1
 1000 600 l 1
 900 600 l 1
 800 600 l 1x810140
 800 450 l 1
 800 300 l 1
 750 300 l 1
 700 300 l 1
 700 500 l 1x8a0140
 700 700 l 1
 650 700 l 1
 600 700 l 1
 600 750 l 1x8a82
0 300 m 1xc840
 0 800 l 1
 50 800 l 1
 100 800 l 1xc8a0
 100 750 l 1
 100 700 l 1x8120
 150 700 l 1
 200 700 l 1x8140
 200 750 l 1
 200 800 l 1
 250 800 l 1
 300 800 l 1x8090
 300 750 l 1
 300 700 l 1
 350 700 l 1
 400 700 l 1x8114
 400 750 l 1
 400 800 l 1
 450 800 l 1
 500 800 l 1
 500 700 l 1
 500 600 l 1
 550 600 l 1
 600 600 l 1
 600 550 l 1
 600 500 l 1
 500 500 l 1x8296
 400 500 l 1x8408
 400 450 l 1
 400 400 l 1x8808
 450 400 l 1
 500 400 l 1
 500 350 l 1
 500 300 l 1x8804
 450 300 l 1
 400 300 l 1x8808
 400 250 l 1
 400 200 l 1x9008
 500 200 l 1
 600 200 l 1
 600 150 l 1
 600 100 l 1xa006
 650 100 l 1
 700 100 l 1xa001
 700 150 l 1
 700 200 l 1x9001
 800 200 l 1x900080
 900 200 l 1
 900 250 l 1
 900 300 l 1
 950 300 l 1
 1000 300 l 1
 1000 250 l 1
 1000 200 l 1
 950 200 l 1
 900 200 l 1
 900 150 l 1
 900 100 l 1
 950 100 l 1
 1000 100 l 1
 1000 50 l 1
 1000 0 l 1
 950 0 l 1
 900 0 l 1
 900 -50 l 1
 900 -100 l 1
 950 -100 l 1
 1000 -100 l 1
 1000 -150 l 1
 1000 -200 l 1
 500 -200 l 1
 0 -200 l 1xd02440
 0 300 l 1xc840
300 650 m 1x8508
 300 700 l 1x8510
 250 700 l 1x8090
 200 700 l 1
 200 650 l 1
 200 600 l 1x8140
 150 600 l 1
 100 600 l 1
 100 450 l 1
 100 300 l 1x9120
 150 300 l 1
 200 300 l 1
 200 250 l 1
 200 200 l 1x9140
 150 200 l 1
 100 200 l 1x9120
 100 150 l 1
 100 100 l 1xa020
 200 100 l 1xc030
 300 100 l 1
 300 50 l 1
 300 0 l 1xc008
 250 0 l 1
 200 0 l 1
 200 -50 l 1
 200 -100 l 1
 400 -100 l 1
 600 -100 l 1
 600 0 l 1xc046
 600 100 l 1
 550 100 l 1
 500 100 l 1xa046
 500 50 l 1
 500 0 l 1
 450 0 l 1
 400 0 l 1xc046
 400 50 l 1
 400 100 l 1
 350 100 l 1xa046
 300 100 l 1
 300 200 l 1xd008
 300 300 l 1
 350 300 l 1
 400 300 l 1x8808
 400 350 l 1x8804
 400 400 l 1x8808
 350 400 l 1
 300 400 l 1
 300 450 l 1
 300 500 l 1
 350 500 l 1
 400 500 l 1x8408
 400 550 l 1
 400 600 l 1x8504
 350 600 l 1
 300 600 l 1
 300 650 l 1x8508
EndSplineSet
Validated: 5
EndChar

StartChar: l
Encoding: 108 108 58
Width: 1000
VWidth: 0
HStem: -200 200<100 300 600 700> -200 100<300 600 800 1000> 0 100<400 500 900 1000> 100 100<100 300> 200 100<400 500 800 1000> 300 200<600 800> 400 100<300 400 900 1000> 600 100<100 200 300 400 700 800 900 1000> 700 100<200 300>
VStem: 0 100<0 100 200 600 700 800> 200 100<700 800> 300 100<400 500> 400 100<0 100 700 800> 600 100<700 800> 700 100<0 200> 800 100<700 800> 900 100<0 100 400 500>
LayerCount: 2
Back
Fore
SplineSet
400 50 m 1x2048
 400 100 l 1
 450 100 l 1
 500 100 l 1
 500 50 l 1
 500 0 l 1
 450 0 l 1
 400 0 l 1
 400 50 l 1x2048
900 50 m 1x204080
 900 100 l 1
 950 100 l 1
 1000 100 l 1
 1000 50 l 1
 1000 0 l 1
 950 0 l 1
 900 0 l 1
 900 50 l 1x204080
900 450 m 1
 900 500 l 1
 950 500 l 1
 1000 500 l 1
 1000 450 l 1
 1000 400 l 1
 950 400 l 1
 900 400 l 1x024080
 900 450 l 1
300 450 m 1x0250
 300 500 l 1
 350 500 l 1
 400 500 l 1
 400 450 l 1
 400 400 l 1
 350 400 l 1
 300 400 l 1
 300 450 l 1x0250
600 700 m 1x00c5
 600 800 l 1
 650 800 l 1
 700 800 l 1x00c5
 700 750 l 1
 700 700 l 1
 750 700 l 1
 800 700 l 1x0145
 800 750 l 1
 800 800 l 1
 850 800 l 1
 900 800 l 1x00c5
 900 750 l 1
 900 700 l 1x0145
 950 700 l 1
 1000 700 l 1
 1000 650 l 1
 1000 600 l 1x014080
 800 600 l 1
 600 600 l 1x0145
 600 700 l 1x00c5
0 300 m 1x444880
 0 800 l 1
 50 800 l 1
 100 800 l 1x44c880
 100 750 l 1
 100 700 l 1
 150 700 l 1
 200 700 l 1x016880
 200 750 l 1
 200 800 l 1
 250 800 l 1
 300 800 l 1x00e880
 300 750 l 1
 300 700 l 1
 350 700 l 1
 400 700 l 1x016880
 400 750 l 1
 400 800 l 1
 450 800 l 1
 500 800 l 1
 500 700 l 1x00e880
 500 600 l 1
 400 600 l 1x016880
 300 600 l 1
 300 650 l 1x0150
 300 700 l 1x0160
 250 700 l 1x00e0
 200 700 l 1
 200 650 l 1
 200 600 l 1
 150 600 l 1
 100 600 l 1
 100 400 l 1
 100 200 l 1
 200 200 l 1x1360
 300 200 l 1
 300 250 l 1
 300 300 l 1x1450
 400 300 l 1
 500 300 l 1
 500 350 l 1
 500 400 l 1
 550 400 l 1
 600 400 l 1x0a4c
 600 450 l 1
 600 500 l 1x044c
 700 500 l 1x0442
 800 500 l 1x0441
 800 400 l 1
 800 300 l 1x0a41
 900 300 l 1
 1000 300 l 1
 1000 250 l 1
 1000 200 l 1
 900 200 l 1
 800 200 l 1
 800 50 l 1x0a4280
 800 -100 l 1x4a41
 900 -100 l 1
 1000 -100 l 1
 1000 -150 l 1
 1000 -200 l 1
 500 -200 l 1
 0 -200 l 1
 0 300 l 1x444880
800 250 m 1x0841
 800 300 l 1x0841
 700 300 l 1x0442
 600 300 l 1x0444
 600 250 l 1
 600 200 l 1
 500 200 l 1
 400 200 l 1
 400 150 l 1
 400 100 l 1x284c
 250 100 l 1
 100 100 l 1
 100 50 l 1
 100 0 l 1
 200 0 l 1x906c
 300 0 l 1x9050
 300 -50 l 1
 300 -100 l 1
 450 -100 l 1
 600 -100 l 1x4054
 600 -50 l 1
 600 0 l 1x8054
 650 0 l 1
 700 0 l 1
 700 100 l 1x9042
 700 200 l 1
 750 200 l 1
 800 200 l 1x0842
 800 250 l 1x0841
EndSplineSet
Validated: 5
EndChar

StartChar: m
Encoding: 109 109 59
Width: 1000
VWidth: 0
HStem: -200 200<200 300 600 800> -200 100<300 600 800 1000> 0 100<400 600 900 1000> 100 100<700 800> 200 100<900 1000> 300 100<500 600> 400 100<900 1000> 500 100<500 600> 600 100<100 200 300 400 900 1000> 700 100<200 300 800 900>
VStem: 0 200<0 100 600 700> 0 100<300 600 700 800> 200 100<700 800> 300 100<400 500> 400 100<700 800> 600 100<600 800> 700 100<300 400> 800 100<700 800> 900 100<400 500 600 700>
LayerCount: 2
Back
Fore
SplineSet
400 50 m 1x2003
 400 100 l 1
 500 100 l 1
 600 100 l 1x2003
 600 50 l 1
 600 0 l 1x8003
 500 0 l 1
 400 0 l 1
 400 50 l 1x2003
900 450 m 1x020020
 900 500 l 1
 950 500 l 1
 1000 500 l 1
 1000 450 l 1
 1000 400 l 1
 950 400 l 1
 900 400 l 1
 900 450 l 1x020020
800 750 m 1x004040
 800 800 l 1
 850 800 l 1
 900 800 l 1x004040
 900 750 l 1
 900 700 l 1x008040
 950 700 l 1
 1000 700 l 1
 1000 650 l 1
 1000 600 l 1
 950 600 l 1
 900 600 l 1
 900 650 l 1x008020
 900 700 l 1x008040
 850 700 l 1
 800 700 l 1
 800 750 l 1x004040
0 300 m 1x441220
 0 800 l 1
 50 800 l 1
 100 800 l 1x445220
 100 750 l 1
 100 700 l 1x009220
 150 700 l 1
 200 700 l 1x00a0
 200 750 l 1
 200 800 l 1
 250 800 l 1
 300 800 l 1x0048
 300 750 l 1
 300 700 l 1
 350 700 l 1
 400 700 l 1x008a
 400 750 l 1
 400 800 l 1
 450 800 l 1
 500 800 l 1
 500 700 l 1
 500 600 l 1
 550 600 l 1
 600 600 l 1
 600 700 l 1
 600 800 l 1
 650 800 l 1
 700 800 l 1
 700 700 l 1x014b
 700 600 l 1
 750 600 l 1
 800 600 l 1
 800 450 l 1x008b40
 800 300 l 1x048080
 900 300 l 1
 1000 300 l 1
 1000 250 l 1
 1000 200 l 1
 950 200 l 1
 900 200 l 1
 900 150 l 1
 900 100 l 1
 950 100 l 1
 1000 100 l 1
 1000 50 l 1
 1000 0 l 1
 900 0 l 1x2800a0
 800 0 l 1x800040
 800 -50 l 1
 800 -100 l 1x400040
 900 -100 l 1
 1000 -100 l 1
 1000 -150 l 1
 1000 -200 l 1
 500 -200 l 1
 0 -200 l 1
 0 300 l 1x441220
300 650 m 1x0084
 300 700 l 1x0088
 250 700 l 1x0048
 200 700 l 1
 200 650 l 1
 200 600 l 1x00a0
 150 600 l 1
 100 600 l 1
 100 450 l 1
 100 300 l 1
 150 300 l 1
 200 300 l 1x0498
 200 350 l 1
 200 400 l 1x0218
 250 400 l 1
 300 400 l 1x0204
 300 450 l 1
 300 500 l 1
 350 500 l 1
 400 500 l 1x0104
 400 450 l 1
 400 400 l 1x0204
 500 400 l 1
 600 400 l 1
 600 350 l 1
 600 300 l 1
 550 300 l 1
 500 300 l 1x0403
 500 250 l 1
 500 200 l 1
 450 200 l 1
 400 200 l 1
 400 150 l 1
 400 100 l 1x2803
 300 100 l 1
 200 100 l 1
 200 50 l 1
 200 0 l 1
 250 0 l 1
 300 0 l 1x9024
 300 -50 l 1
 300 -100 l 1
 450 -100 l 1
 600 -100 l 1x4025
 600 -50 l 1
 600 0 l 1x8025
 700 0 l 1x800080
 800 0 l 1
 800 50 l 1
 800 100 l 1x900040
 750 100 l 1
 700 100 l 1
 700 150 l 1
 700 200 l 1x900080
 750 200 l 1
 800 200 l 1
 800 250 l 1x900040
 800 300 l 1
 750 300 l 1
 700 300 l 1x940080
 700 350 l 1
 700 400 l 1
 650 400 l 1x020080
 600 400 l 1
 600 450 l 1
 600 500 l 1
 550 500 l 1
 500 500 l 1
 500 550 l 1
 500 600 l 1x0503
 400 600 l 1x0083
 300 600 l 1
 300 650 l 1x0084
EndSplineSet
Validated: 5
EndChar

StartChar: n
Encoding: 110 110 60
Width: 1000
VWidth: 0
HStem: -200 200<600 700 800 900> -200 100<100 600 700 800 900 1000> 0 100<100 200 400 500 900 1000> 100 100<200 300 800 900> 200 100<600 700 900 1000> 400 100<300 400 500 600 900 1000> 600 100<100 200 300 400 700 800 900 1000> 700 100<200 300>
VStem: 0 200<0 100 600 700> 0 100<-100 0 100 600 700 800> 200 100<100 200 700 800> 400 100<0 100 500 600 700 800> 500 100<100 200> 600 100<-100 0 500 600 700 800> 700 100<300 400> 800 100<-100 0 100 200 700 800> 900 100<0 100 200 300 400 500>
LayerCount: 2
Back
Fore
SplineSet
400 50 m 1x2410
 400 100 l 1
 450 100 l 1
 500 100 l 1
 500 50 l 1
 500 0 l 1
 450 0 l 1
 400 0 l 1
 400 50 l 1x2410
200 150 m 1x2420
 200 200 l 1
 250 200 l 1
 300 200 l 1
 300 150 l 1
 300 100 l 1
 250 100 l 1x1420
 200 100 l 1x2480
 200 150 l 1x2420
900 450 m 1x040080
 900 500 l 1
 950 500 l 1
 1000 500 l 1
 1000 450 l 1
 1000 400 l 1
 950 400 l 1
 900 400 l 1
 900 450 l 1x040080
0 300 m 1x4c4880
 0 800 l 1
 50 800 l 1
 100 800 l 1x4d4880
 100 750 l 1
 100 700 l 1x064880
 150 700 l 1
 200 700 l 1x0680
 200 750 l 1
 200 800 l 1
 250 800 l 1
 300 800 l 1x0520
 300 750 l 1
 300 700 l 1
 350 700 l 1
 400 700 l 1x0630
 400 750 l 1
 400 800 l 1
 450 800 l 1
 500 800 l 1x0530
 500 650 l 1x0508
 500 500 l 1
 550 500 l 1
 600 500 l 1
 600 650 l 1
 600 800 l 1
 650 800 l 1
 700 800 l 1x0514
 700 750 l 1
 700 700 l 1
 750 700 l 1
 800 700 l 1x0615
 800 750 l 1
 800 800 l 1
 850 800 l 1
 900 800 l 1x0515
 900 750 l 1
 900 700 l 1x0615
 950 700 l 1
 1000 700 l 1
 1000 650 l 1
 1000 600 l 1x060080
 850 600 l 1
 700 600 l 1
 700 550 l 1
 700 500 l 1
 750 500 l 1
 800 500 l 1x0605
 800 350 l 1x0602
 800 200 l 1
 850 200 l 1
 900 200 l 1x1601
 900 250 l 1
 900 300 l 1
 950 300 l 1
 1000 300 l 1
 1000 250 l 1
 1000 200 l 1
 950 200 l 1x0c0080
 900 200 l 1x1401
 900 150 l 1
 900 100 l 1x2401
 950 100 l 1
 1000 100 l 1
 1000 50 l 1
 1000 0 l 1
 950 0 l 1x240080
 900 0 l 1x8401
 900 -50 l 1
 900 -100 l 1x4401
 950 -100 l 1
 1000 -100 l 1
 1000 -150 l 1
 1000 -200 l 1
 500 -200 l 1
 0 -200 l 1
 0 300 l 1x4c4880
300 650 m 1x2e30
 300 700 l 1x2e30
 250 700 l 1x0530
 200 700 l 1
 200 650 l 1
 200 600 l 1x0680
 150 600 l 1
 100 600 l 1
 100 350 l 1
 100 100 l 1x2640
 150 100 l 1
 200 100 l 1
 200 50 l 1
 200 0 l 1x2680
 150 0 l 1
 100 0 l 1
 100 -50 l 1
 100 -100 l 1
 350 -100 l 1
 600 -100 l 1x6644
 600 -50 l 1
 600 0 l 1
 650 0 l 1
 700 0 l 1x8444
 700 -50 l 1
 700 -100 l 1
 750 -100 l 1
 800 -100 l 1x4445
 800 -50 l 1
 800 0 l 1
 850 0 l 1
 900 0 l 1x8445
 900 50 l 1x840080
 900 100 l 1x2401
 850 100 l 1
 800 100 l 1
 800 150 l 1
 800 200 l 1x1401
 700 200 l 1
 600 200 l 1x0c0a
 600 150 l 1
 600 100 l 1
 550 100 l 1x140a
 500 100 l 1x2410
 500 200 l 1
 500 300 l 1x2c08
 600 300 l 1x2c04
 700 300 l 1
 700 350 l 1
 700 400 l 1
 500 400 l 1x2c0a
 300 400 l 1
 300 450 l 1
 300 500 l 1
 350 500 l 1
 400 500 l 1
 400 550 l 1
 400 600 l 1
 350 600 l 1
 300 600 l 1
 300 650 l 1x2e30
EndSplineSet
Validated: 5
EndChar

StartChar: o
Encoding: 111 111 61
Width: 1000
VWidth: 0
HStem: -200 100<100 600 700 800 900 1000> 0 100<400 500 700 800 900 1000> 200 100<100 200 900 1000> 400 100<900 1000> 600 100<100 200 300 400 900 1000> 700 100<200 300 800 900>
VStem: 0 100<-100 200 300 600 700 800> 200 100<100 200 700 800> 400 100<700 800> 500 100<100 200> 600 100<-100 0 600 800> 700 100<500 600> 800 100<-100 0 700 800> 900 100<200 300 400 500 600 700>
LayerCount: 2
Back
Fore
SplineSet
900 250 m 1xf304
 900 300 l 1
 950 300 l 1
 1000 300 l 1
 1000 250 l 1
 1000 200 l 1
 950 200 l 1
 900 200 l 1
 900 250 l 1xf304
900 450 m 1
 900 500 l 1
 950 500 l 1
 1000 500 l 1
 1000 450 l 1
 1000 400 l 1
 950 400 l 1
 900 400 l 1
 900 450 l 1
800 750 m 1xf708
 800 800 l 1
 850 800 l 1
 900 800 l 1xf708
 900 750 l 1
 900 700 l 1xfb08
 950 700 l 1
 1000 700 l 1
 1000 650 l 1
 1000 600 l 1
 950 600 l 1
 900 600 l 1
 900 650 l 1xfb04
 900 700 l 1xfb08
 850 700 l 1
 800 700 l 1
 800 750 l 1xf708
0 300 m 1
 0 800 l 1
 50 800 l 1
 100 800 l 1xf744
 100 750 l 1
 100 700 l 1
 150 700 l 1
 200 700 l 1xfb44
 200 750 l 1
 200 800 l 1
 250 800 l 1
 300 800 l 1xf744
 300 750 l 1
 300 700 l 1
 350 700 l 1
 400 700 l 1xfb80
 400 750 l 1
 400 800 l 1
 450 800 l 1
 500 800 l 1
 500 700 l 1xf780
 500 600 l 1xfb40
 550 600 l 1
 600 600 l 1xfb20
 600 700 l 1
 600 800 l 1
 650 800 l 1
 700 800 l 1
 700 700 l 1xf720
 700 600 l 1xfb20
 750 600 l 1
 800 600 l 1xfb10
 800 400 l 1
 800 200 l 1xfb08
 700 200 l 1
 600 200 l 1
 600 100 l 1xfb50
 600 0 l 1
 650 0 l 1
 700 0 l 1xfb20
 700 50 l 1
 700 100 l 1
 850 100 l 1
 1000 100 l 1
 1000 50 l 1
 1000 0 l 1xfb14
 950 0 l 1
 900 0 l 1
 900 -50 l 1
 900 -100 l 1xfb08
 950 -100 l 1
 1000 -100 l 1
 1000 -150 l 1
 1000 -200 l 1
 500 -200 l 1xfb44
 0 -200 l 1
 0 300 l 1
300 650 m 1
 300 700 l 1xfb80
 250 700 l 1xf780
 200 700 l 1
 200 650 l 1
 200 600 l 1
 150 600 l 1
 100 600 l 1
 100 450 l 1
 100 300 l 1
 150 300 l 1
 200 300 l 1
 200 350 l 1
 200 400 l 1
 250 400 l 1
 300 400 l 1
 300 450 l 1
 300 500 l 1
 350 500 l 1
 400 500 l 1
 400 550 l 1
 400 600 l 1
 350 600 l 1
 300 600 l 1xfb80
 300 650 l 1
700 550 m 1xfb10
 700 600 l 1
 650 600 l 1
 600 600 l 1
 600 550 l 1
 600 500 l 1xfb20
 650 500 l 1
 700 500 l 1
 700 550 l 1xfb10
600 300 m 1
 600 400 l 1xf320
 550 400 l 1
 500 400 l 1
 500 350 l 1
 500 300 l 1xf340
 400 300 l 1
 300 300 l 1
 300 200 l 1
 300 100 l 1
 250 100 l 1
 200 100 l 1
 200 150 l 1
 200 200 l 1
 150 200 l 1
 100 200 l 1
 100 50 l 1
 100 -100 l 1
 350 -100 l 1
 600 -100 l 1
 600 -50 l 1
 600 0 l 1xf3a0
 500 0 l 1xf340
 400 0 l 1
 400 50 l 1
 400 100 l 1xf380
 450 100 l 1
 500 100 l 1
 500 150 l 1
 500 200 l 1
 550 200 l 1
 600 200 l 1xf340
 600 300 l 1
800 -50 m 1xf328
 800 0 l 1
 750 0 l 1
 700 0 l 1
 700 -50 l 1
 700 -100 l 1
 750 -100 l 1
 800 -100 l 1
 800 -50 l 1xf328
EndSplineSet
Validated: 5
EndChar

StartChar: p
Encoding: 112 112 62
Width: 1000
VWidth: 0
HStem: -200 100<100 200 300 600 700 1000> 0 100<500 600 700 800 900 1000> 200 100<600 700 900 1000> 400 100<400 500 900 1000> 600 100<100 200 300 400 900 1000> 700 100<200 300 600 700 800 900>
VStem: 0 200<100 200 600 700> 0 100<-100 0 200 600 700 800> 200 100<-100 0 200 300 700 800> 400 100<100 200 700 800> 500 100<300 400> 600 100<-100 0 700 800> 700 100<300 500> 800 100<100 200 700 800> 900 100<0 100 400 500 600 700>
LayerCount: 2
Back
Fore
SplineSet
900 450 m 1xf002
 900 500 l 1
 950 500 l 1
 1000 500 l 1
 1000 450 l 1
 1000 400 l 1
 950 400 l 1
 900 400 l 1
 900 450 l 1xf002
800 750 m 1xf404
 800 800 l 1
 850 800 l 1
 900 800 l 1xf404
 900 750 l 1
 900 700 l 1xf804
 950 700 l 1
 1000 700 l 1
 1000 650 l 1
 1000 600 l 1
 950 600 l 1
 900 600 l 1
 900 650 l 1xf802
 900 700 l 1xf804
 850 700 l 1
 800 700 l 1
 800 750 l 1xf404
600 750 m 1xf410
 600 800 l 1
 650 800 l 1
 700 800 l 1
 700 750 l 1
 700 700 l 1
 650 700 l 1
 600 700 l 1
 600 750 l 1xf410
0 300 m 1xf922
 0 800 l 1
 50 800 l 1
 100 800 l 1xf522
 100 750 l 1
 100 700 l 1xf922
 150 700 l 1
 200 700 l 1xfa
 200 750 l 1
 200 800 l 1
 250 800 l 1
 300 800 l 1xf480
 300 750 l 1
 300 700 l 1
 350 700 l 1
 400 700 l 1xf8c0
 400 750 l 1
 400 800 l 1
 450 800 l 1
 500 800 l 1
 500 700 l 1xf4c0
 500 600 l 1xf820
 400 600 l 1
 300 600 l 1
 300 650 l 1
 300 700 l 1xf8c0
 250 700 l 1xf4c0
 200 700 l 1
 200 650 l 1
 200 600 l 1xfa
 150 600 l 1
 100 600 l 1
 100 400 l 1
 100 200 l 1xf9
 150 200 l 1
 200 200 l 1xfa
 200 300 l 1
 200 400 l 1
 250 400 l 1
 300 400 l 1
 300 450 l 1
 300 500 l 1
 450 500 l 1
 600 500 l 1xf890
 600 400 l 1
 600 300 l 1
 650 300 l 1
 700 300 l 1
 700 400 l 1
 700 500 l 1
 750 500 l 1
 800 500 l 1
 800 400 l 1
 800 300 l 1
 900 300 l 1
 1000 300 l 1
 1000 250 l 1
 1000 200 l 1xf82a
 950 200 l 1
 900 200 l 1
 900 150 l 1
 900 100 l 1xf804
 950 100 l 1
 1000 100 l 1
 1000 50 l 1
 1000 0 l 1
 950 0 l 1
 900 0 l 1
 900 50 l 1xf802
 900 100 l 1
 850 100 l 1
 800 100 l 1
 800 50 l 1
 800 0 l 1
 750 0 l 1
 700 0 l 1
 700 -50 l 1
 700 -100 l 1xf814
 850 -100 l 1
 1000 -100 l 1
 1000 -150 l 1
 1000 -200 l 1
 500 -200 l 1
 0 -200 l 1
 0 300 l 1xf922
500 350 m 1
 500 400 l 1xf020
 450 400 l 1
 400 400 l 1
 400 350 l 1
 400 300 l 1
 350 300 l 1
 300 300 l 1
 300 250 l 1
 300 200 l 1xf0c0
 250 200 l 1
 200 200 l 1
 200 150 l 1
 200 100 l 1xf2
 250 100 l 1
 300 100 l 1
 300 0 l 1
 300 -100 l 1
 450 -100 l 1
 600 -100 l 1
 600 -50 l 1
 600 0 l 1xf090
 500 0 l 1xf020
 400 0 l 1
 400 150 l 1
 400 300 l 1xf040
 450 300 l 1
 500 300 l 1
 500 350 l 1
800 150 m 1xf044
 800 200 l 1
 650 200 l 1
 500 200 l 1
 500 150 l 1
 500 100 l 1
 650 100 l 1
 800 100 l 1
 800 150 l 1xf044
200 -50 m 1xf180
 200 0 l 1
 150 0 l 1
 100 0 l 1
 100 -50 l 1
 100 -100 l 1
 150 -100 l 1
 200 -100 l 1
 200 -50 l 1xf180
EndSplineSet
Validated: 5
EndChar

StartChar: q
Encoding: 113 113 63
Width: 1000
VWidth: 0
HStem: -200 100<100 200 300 600 700 1000> 0 100<800 1000> 200 100<800 1000> 400 100<300 400 900 1000> 500 100<600 700> 600 100<100 200 300 400 900 1000> 700 100<200 300 600 700>
VStem: 0 200<100 300 600 700> 0 100<-100 100 300 600 700 800> 200 100<-100 100 700 800> 400 100<0 300 700 800> 600 100<-100 100 700 800> 700 100<400 500> 800 100<700 800> 900 100<400 500>
LayerCount: 2
Back
Fore
SplineSet
800 50 m 1xe024
 800 100 l 1xe024
 900 100 l 1
 1000 100 l 1
 1000 50 l 1
 1000 0 l 1
 900 0 l 1xe022
 800 0 l 1
 800 50 l 1xe024
900 450 m 1xf022
 900 500 l 1
 950 500 l 1
 1000 500 l 1
 1000 450 l 1
 1000 400 l 1
 950 400 l 1
 900 400 l 1
 900 450 l 1xf022
0 300 m 1xe520
 0 800 l 1
 50 800 l 1
 100 800 l 1xe2a0
 100 750 l 1
 100 700 l 1xe4a0
 150 700 l 1
 200 700 l 1xe520
 200 750 l 1
 200 800 l 1
 250 800 l 1
 300 800 l 1xe260
 300 750 l 1
 300 700 l 1
 350 700 l 1
 400 700 l 1xe460
 400 750 l 1
 400 800 l 1
 450 800 l 1
 500 800 l 1
 500 700 l 1xe260
 500 600 l 1xe460
 600 600 l 1xe870
 700 600 l 1
 700 650 l 1xe828
 700 700 l 1
 650 700 l 1
 600 700 l 1
 600 750 l 1
 600 800 l 1
 650 800 l 1
 700 800 l 1
 700 750 l 1
 700 700 l 1
 750 700 l 1
 800 700 l 1
 800 750 l 1
 800 800 l 1
 850 800 l 1
 900 800 l 1xea34
 900 750 l 1
 900 700 l 1xe434
 950 700 l 1
 1000 700 l 1
 1000 650 l 1
 1000 600 l 1
 900 600 l 1xe422
 800 600 l 1xe424
 800 450 l 1xe428
 800 300 l 1xe424
 900 300 l 1
 1000 300 l 1
 1000 250 l 1
 1000 200 l 1xe422
 800 200 l 1
 600 200 l 1
 600 250 l 1
 600 300 l 1
 550 300 l 1
 500 300 l 1
 500 150 l 1
 500 0 l 1
 450 0 l 1
 400 0 l 1
 400 200 l 1
 400 400 l 1
 350 400 l 1
 300 400 l 1
 300 450 l 1
 300 500 l 1
 400 500 l 1xf474
 500 500 l 1xe874
 500 550 l 1
 500 600 l 1
 400 600 l 1
 300 600 l 1
 300 650 l 1
 300 700 l 1xe474
 250 700 l 1xe274
 200 700 l 1
 200 650 l 1
 200 600 l 1xe520
 150 600 l 1
 100 600 l 1
 100 450 l 1
 100 300 l 1xe4a0
 150 300 l 1
 200 300 l 1
 200 200 l 1
 200 100 l 1xe520
 250 100 l 1
 300 100 l 1
 300 0 l 1
 300 -100 l 1
 450 -100 l 1
 600 -100 l 1
 600 0 l 1
 600 100 l 1
 650 100 l 1
 700 100 l 1
 700 0 l 1
 700 -100 l 1
 850 -100 l 1
 1000 -100 l 1
 1000 -150 l 1
 1000 -200 l 1
 500 -200 l 1
 0 -200 l 1xe4f2
 0 300 l 1xe520
700 450 m 1xf028
 700 500 l 1xe828
 650 500 l 1
 600 500 l 1xe830
 600 450 l 1
 600 400 l 1xf030
 650 400 l 1
 700 400 l 1
 700 450 l 1xf028
200 0 m 1xe0e0
 200 100 l 1xe120
 150 100 l 1
 100 100 l 1
 100 0 l 1
 100 -100 l 1
 150 -100 l 1
 200 -100 l 1
 200 0 l 1xe0e0
EndSplineSet
Validated: 5
EndChar

